<?xml version="1.0" encoding="utf-8"?>
<!-- Generator: Adobe Illustrator 19.0.1, SVG Export Plug-In . SVG Version: 6.00 Build 0)  -->
<svg version="1.1" id="Слой_1" xmlns="http://www.w3.org/2000/svg" xmlns:xlink="http://www.w3.org/1999/xlink" x="0px" y="0px"
	 viewBox="0 0 135 135" style="enable-background:new 0 0 135 135;" xml:space="preserve">
<style type="text/css">
	.st0{fill:url(#SVGID_1_);}
	.st1{fill:#FFFFFF;}
</style>
<g>
	<g>
		<linearGradient id="SVGID_1_" gradientUnits="userSpaceOnUse" x1="67.5" y1="118.9226" x2="67.5" y2="-16.3818">
			<stop  offset="0" style="stop-color:#E8C400"/>
			<stop  offset="0.9255" style="stop-color:#F9D718"/>
		</linearGradient>
		<circle class="st0" cx="67.5" cy="67.7" r="67.5"/>
	</g>
	<g>
		<g>
			<g>
				<g>
					<path class="st1" d="M104.2,72.7c-2.5-2.3-6.1-3.1-9.2-3.4v-1.8H36.4v7.3c0,16.2,13.1,29.3,29.3,29.3
						c11.1,0,20.7-6.1,25.7-15.2c0.4,0,0.9,0,1.4,0c3.5,0,8.4-0.5,11.5-3c1.8-1.5,2.7-3.4,2.8-5.7C107.2,77.1,106.3,74.5,104.2,72.7
						z M101.9,83.2c-2.1,1.7-5.8,2.2-8.9,2.2c1.3-3.3,2-6.8,2-10.5v-1.9c2.5,0.3,5.1,0.9,6.7,2.4c1.2,1.1,1.8,2.7,1.7,4.7
						C103.4,81.3,102.9,82.3,101.9,83.2z"/>
				</g>
			</g>
			<g>
				<path class="st1" d="M67.2,40.4c-1.8,2.8-3.2,6-4.5,9.2c-1.6,3.9-1.6,8.1-0.8,12.1c0.8-2.2,1.4-4.5,2.3-6.6c2-4.8,5-9,8-13.2
					c6.2-8.5,4.8-18.1-3.6-24.1c-0.2-0.2-0.5-0.3-1-0.5C72.3,25.3,72,32.8,67.2,40.4z"/>
			</g>
			<g>
				<path class="st1" d="M59.1,42.1c1-2.5,2.6-4.7,4.1-6.8c3.2-4.4,2.5-9.4-1.8-12.4c-0.1-0.1-0.3-0.1-0.5-0.3
					c2.3,4.1,2.2,8-0.3,11.9c-0.9,1.5-1.7,3.1-2.3,4.7c-0.8,2-0.8,4.2-0.4,6.3C58.3,44.3,58.6,43.2,59.1,42.1z"/>
			</g>
		</g>
	</g>
</g>
</svg>
