<?xml version="1.0" encoding="utf-8"?>
<!-- Generator: Adobe Illustrator 19.0.1, SVG Export Plug-In . SVG Version: 6.00 Build 0)  -->
<svg version="1.1" id="Слой_1" xmlns="http://www.w3.org/2000/svg" xmlns:xlink="http://www.w3.org/1999/xlink" x="0px" y="0px"
	 viewBox="0 0 202.5 134.6" style="enable-background:new 0 0 202.5 134.6;" xml:space="preserve">
<style type="text/css">
	.st0{fill:url(#SVGID_1_);}
	.st1{filter:url(#Adobe_OpacityMaskFilter);}
	.st2{mask:url(#SVGID_2_);}
	.st3{fill:#FFFFFF;}
	.st4{fill:#82CB13;}
</style>
<g>
	<g>
		<linearGradient id="SVGID_1_" gradientUnits="userSpaceOnUse" x1="101.238" y1="2.2759" x2="101.238" y2="140.7441">
			<stop  offset="1.063830e-002" style="stop-color:#87D21A"/>
			<stop  offset="0.984" style="stop-color:#7CC10B"/>
		</linearGradient>
		<path class="st0" d="M135.2,134.6H67.3C30.1,134.6,0,104.5,0,67.3v0C0,30.1,30.1,0,67.3,0l67.9,0c37.2,0,67.3,30.1,67.3,67.3v0
			C202.5,104.5,172.3,134.6,135.2,134.6z"/>
	</g>
</g>
<g>
	<defs>
		<filter id="Adobe_OpacityMaskFilter" filterUnits="userSpaceOnUse" x="33.9" y="37.1" width="137.2" height="60.3">
			
				<feColorMatrix  type="matrix" values="-1 0 0 0 1  0 -1 0 0 1  0 0 -1 0 1  0 0 0 1 0" color-interpolation-filters="sRGB" result="source"/>
			<feFlood  style="flood-color:white;flood-opacity:1" result="back"/>
			<feBlend  in="source" in2="back" mode="normal"/>
		</filter>
	</defs>
	<mask maskUnits="userSpaceOnUse" x="33.9" y="37.1" width="137.2" height="60.3" id="SVGID_2_">
		<g class="st1">
		</g>
	</mask>
	<g class="st2">
		<path class="st3" d="M44.1,94c0,0-2.1,0.3-2.4-3.3s-1.8-17.3-1.8-17.3s-6.5-2-5.9-7.7c0.4-3.3,2.9-4.8,4.9-5.4
			c1.5-0.5,3.2-0.4,4.7,0.1c2.6,1,6.8,3.3,7.1,7.9c0.3,6.7,0,25.6,0,25.6L44.1,94z"/>
		<ellipse class="st3" cx="47.2" cy="96.3" rx="4" ry="1.2"/>
		<path class="st3" d="M161,94c0,0,2.1,0.3,2.4-3.3c0.3-3.6,1.8-17.3,1.8-17.3s6.5-2,5.9-7.7c-0.4-3.3-2.9-4.8-4.9-5.4
			c-1.5-0.5-3.2-0.4-4.7,0.1c-2.6,1-6.8,3.3-7.1,7.9c-0.3,6.7,0,25.6,0,25.6L161,94z"/>
		<ellipse class="st3" cx="157.9" cy="96.3" rx="4" ry="1.2"/>
		<rect x="52" y="68.2" class="st3" width="101.3" height="10.4"/>
		<rect x="52" y="79.7" class="st3" width="101.3" height="15.6"/>
		<path class="st3" d="M152.1,44.6c0,0.1-0.2-7.4-11.1-7.4H104v27.1c0,0,0,0,0,0c0.3,1,2,1.4,2.5,1.5h41.5c0,0,3.6-0.2,4.2-5.1
			C152.8,55.7,152.1,44.6,152.1,44.6z"/>
	</g>
	<path class="st3" d="M101.3,64.2C101.3,64.2,101.4,64.2,101.3,64.2l0-27H63.6c-9.9-0.4-11.1,7.5-11.1,7.4c0,0,0,0.7-0.1,1.7
		c6.1,1,13.6,5.2,15,19.4h31.5C99.4,65.6,101,65.2,101.3,64.2z"/>
	<g>
		<path class="st3" d="M44.6,48c0,0,19.5-5.3,21.4,18.3C66,66.3,42.7,68.9,44.6,48z"/>
	</g>
</g>
<g>
	<g>
		<path class="st4" d="M41.2,64.6c1.2,0,2.1,1,2.1,2.1s-1,2.1-2.1,2.1s-2.1-1-2.1-2.1S40.1,64.6,41.2,64.6 M41.2,63.8
			c-1.6,0-2.9,1.3-2.9,2.9s1.3,2.9,2.9,2.9s2.9-1.3,2.9-2.9S42.9,63.8,41.2,63.8L41.2,63.8z"/>
	</g>
</g>
<g>
	<g>
		<path class="st4" d="M163.7,64.6c1.2,0,2.1,1,2.1,2.1s-1,2.1-2.1,2.1s-2.1-1-2.1-2.1S162.6,64.6,163.7,64.6 M163.7,63.8
			c-1.6,0-2.9,1.3-2.9,2.9s1.3,2.9,2.9,2.9s2.9-1.3,2.9-2.9S165.3,63.8,163.7,63.8L163.7,63.8z"/>
	</g>
</g>
</svg>
