<?xml version="1.0" encoding="utf-8"?>
<!-- Generator: Adobe Illustrator 19.0.1, SVG Export Plug-In . SVG Version: 6.00 Build 0)  -->
<svg version="1.1" id="Слой_1" xmlns="http://www.w3.org/2000/svg" xmlns:xlink="http://www.w3.org/1999/xlink" x="0px" y="0px"
	 viewBox="0 0 134.6 134.6" style="enable-background:new 0 0 134.6 134.6;" xml:space="preserve">
<style type="text/css">
	.st0{fill:url(#SVGID_1_);}
	.st1{fill:#FFFFFF;}
	.st2{fill:none;stroke:#FFFFFF;stroke-width:3.61;stroke-miterlimit:10;}
</style>
<g>
	<linearGradient id="SVGID_1_" gradientUnits="userSpaceOnUse" x1="67.2923" y1="-5.3491" x2="67.2923" y2="171.2116">
		<stop  offset="7.389162e-002" style="stop-color:#26A9E0"/>
		<stop  offset="1" style="stop-color:#0893C5"/>
	</linearGradient>
	<circle class="st0" cx="67.3" cy="67.3" r="67.3"/>
</g>
<g>
	<path class="st1" d="M65.2,103.8L65.2,103.8C49.1,103.8,36,90.7,36,74.6v-7.3l58.4,0v7.3C94.5,90.7,81.4,103.8,65.2,103.8z"/>
	<path class="st2" d="M88.6,70.9c0,0,16.6-2.2,16,9c-0.4,9-16.4,6.8-16.4,6.8"/>
</g>
<path class="st1" d="M62.6,61.5c-0.8-3.8-0.7-7.6,0.8-11.3c1.2-2.9,2.5-5.9,4.2-8.6c4.5-7.1,4.7-14.1,0.5-21.6
	c0.4,0.2,0.7,0.3,0.9,0.5c7.8,5.6,9.1,14.6,3.3,22.5c-2.8,3.9-5.6,7.9-7.5,12.3C63.9,57.3,63.3,59.4,62.6,61.5z"/>
<path class="st1" d="M61.4,46.4c-0.4-2-0.4-3.9,0.4-5.8c0.6-1.5,1.3-3,2.1-4.4c2.3-3.6,2.4-7.3,0.2-11.1c0.2,0.1,0.3,0.2,0.5,0.2
	c4,2.9,4.7,7.5,1.7,11.6c-1.5,2-2.9,4.1-3.9,6.4C62.1,44.2,61.7,45.3,61.4,46.4z"/>
</svg>
