<?xml version="1.0" encoding="utf-8"?>
<!-- Generator: Adobe Illustrator 19.0.1, SVG Export Plug-In . SVG Version: 6.00 Build 0)  -->
<svg version="1.1" id="Слой_1" xmlns="http://www.w3.org/2000/svg" xmlns:xlink="http://www.w3.org/1999/xlink" x="0px" y="0px"
	 viewBox="0 0 171.4 134.6" style="enable-background:new 0 0 171.4 134.6;" xml:space="preserve">
<style type="text/css">
	.st0{fill:url(#SVGID_1_);}
	.st1{fill:#FFFFFF;}
</style>
<g>
	<g>
		<linearGradient id="SVGID_1_" gradientUnits="userSpaceOnUse" x1="85.6853" y1="129.6158" x2="85.6853" y2="0.8895">
			<stop  offset="0" style="stop-color:#FD8701"/>
			<stop  offset="1" style="stop-color:#FFA12A"/>
		</linearGradient>
		<path class="st0" d="M104.1,134.6H67.3C30.1,134.6,0,104.5,0,67.3v0C0,30.1,30.1,0,67.3,0l36.8,0c37.2,0,67.3,30.1,67.3,67.3v0
			C171.4,104.5,141.2,134.6,104.1,134.6z"/>
	</g>
</g>
<g>
	<path class="st1" d="M109.7,75.7c-0.8-0.2-1.4-0.3-2.3-0.5c-1.5,5.3-3,10.5-4.4,15.6c-1.2,4.1-2.3,8.3-3.5,12.5
		c-0.9,3.3-3.1,4.8-5.8,4c-2.6-0.8-3.7-3.1-2.8-6.3c2.7-9.8,5.8-19.4,8.1-29.3c1.6-6.9,2.4-14,3.4-21c0.1-0.5-0.6-1.4-1.1-1.6
		c-7.2-2.7-12.3-7.6-15-15.3c-2.9,8.1-8.4,13.1-16.4,15.7c0.6,4,1.3,8,1.7,12C73,74,77.7,85.7,80.6,97.8c0.3,1.3,0.7,2.5,1,3.7
		c0.7,2.9-0.5,5.1-3.1,5.8c-2.5,0.7-4.7-0.7-5.5-3.5c-2.5-8.7-4.9-17.4-7.3-26.1c-0.2-0.8-0.5-1.5-0.7-2.4c-0.8,0.1-1.5,0.3-2.3,0.4
		c0,3.3,0,6.4,0,9.6c0,5.8,0,11.6,0,17.5c0,2.8-1.8,4.6-4.4,4.6c-2.6,0-4.4-1.7-4.4-4.5c-0.1-8.8,0.3-17.7-0.1-26.5
		c-0.3-6.8-1.6-13.5-2.5-20.3c-0.3,0-0.6-0.1-0.8-0.1c-0.7,2.2-1.8,4.5-1.9,6.7c-0.1,4.8,0.2,9.7,0.5,14.6c0.2,2.3-0.4,3.7-2.1,4
		c-1.6,0.3-2.9-0.8-3.3-2.9c-1.4-7-1.9-14,0.4-20.9c0.7-2.1,1.8-4.2,3.1-6.1c1.8-2.7,4.3-4.5,7.7-4.8c3.9-0.4,7.8-1,11.7-1.9
		c7.8-1.8,13-6.5,14.8-14.5c0.7-3,1.3-3.4,4.3-2.8c0.2,0,0.4,0.1,0.6,0.1c3.9-0.3,3.8-0.3,4.8,3.4c2.3,8.8,8.6,12.8,17,14.3
		c3.3,0.6,6.7,1.1,10,1.5c2.5,0.2,4.3,1.5,5.9,3.2c4.2,4.7,5.7,10.5,5.7,16.6c0,4.1-0.6,8.2-1.1,12.2c-0.2,1.9-1.8,2.9-3.3,2.5
		c-1.6-0.4-2.4-1.8-2-3.7c1-5.5,1.7-11.1,0.3-16.7c-0.4-1.6-1.1-3.2-2.2-4.8c-0.1,0.5-0.3,1.1-0.4,1.6c-3.2,14.8-2.5,29.7-2.5,44.7
		c0,3-1.4,4.8-3.9,5c-2.9,0.3-4.9-1.6-4.9-4.9c0-7.9,0-15.8,0-23.7C109.7,77.7,109.7,76.8,109.7,75.7z"/>
	<path class="st1" d="M51.5,35.6c0.1-4.4,3.6-7.9,8-7.9c4.5,0,8.1,3.6,8,8.1c0,4.4-3.7,7.9-8,7.9C55,43.7,51.4,40,51.5,35.6z"/>
	<path class="st1" d="M112.8,27.7c4.5-0.1,8.1,3.5,8.1,8c0,4.4-3.5,8-7.9,8c-4.4,0.1-8-3.4-8.1-7.8
		C104.8,31.4,108.3,27.7,112.8,27.7z"/>
</g>
</svg>
