<?xml version="1.0" encoding="utf-8"?>
<!-- Generator: Adobe Illustrator 19.0.1, SVG Export Plug-In . SVG Version: 6.00 Build 0)  -->
<svg version="1.1" id="Слой_1" xmlns="http://www.w3.org/2000/svg" xmlns:xlink="http://www.w3.org/1999/xlink" x="0px" y="0px"
	 viewBox="0 0 172 135" style="enable-background:new 0 0 172 135;" xml:space="preserve">
<style type="text/css">
	.st0{fill:url(#SVGID_1_);}
	.st1{fill:#FFFFFF;}
</style>
<g>
	<g>
		<linearGradient id="SVGID_1_" gradientUnits="userSpaceOnUse" x1="86" y1="-8.9644" x2="86" y2="116.3012">
			<stop  offset="1.063830e-002" style="stop-color:#87D21A"/>
			<stop  offset="0.984" style="stop-color:#7CC10B"/>
		</linearGradient>
		<path class="st0" d="M104.4,135H67.6c-37.3,0-67.5-30.2-67.5-67.5v0C0.1,30.2,30.3,0,67.6,0l36.9,0c37.3,0,67.5,30.2,67.5,67.5v0
			C171.9,104.8,141.7,135,104.4,135z"/>
	</g>
	<g>
		<path class="st1" d="M109.6,76c-0.8-0.2-1.4-0.3-2.3-0.5c-1.5,5.3-3,10.5-4.4,15.7c-1.2,4.2-2.3,8.3-3.5,12.5
			c-0.9,3.3-3.1,4.8-5.8,4c-2.6-0.8-3.7-3.1-2.8-6.3c2.7-9.8,5.8-19.5,8.1-29.4c1.6-6.9,2.4-14.1,3.4-21.1c0.1-0.5-0.6-1.4-1.1-1.6
			c-7.3-2.7-12.3-7.6-15.1-15.4c-2.9,8.2-8.5,13.2-16.5,15.8c0.6,4.1,1.3,8,1.7,12c1.4,12.6,6.2,24.3,9.1,36.5
			c0.3,1.3,0.7,2.5,1,3.8c0.7,2.9-0.5,5.1-3.1,5.8c-2.5,0.7-4.7-0.7-5.5-3.5c-2.5-8.7-4.9-17.5-7.4-26.2c-0.2-0.8-0.5-1.5-0.7-2.4
			c-0.8,0.1-1.5,0.3-2.3,0.4c0,3.3,0,6.4,0,9.6c0,5.8,0,11.7,0,17.5c0,2.8-1.8,4.6-4.4,4.6c-2.6,0-4.4-1.7-4.4-4.5
			c-0.1-8.9,0.3-17.8-0.1-26.6c-0.3-6.8-1.6-13.6-2.5-20.3c-0.3,0-0.6-0.1-0.8-0.1c-0.7,2.3-1.9,4.5-1.9,6.8
			c-0.1,4.9,0.2,9.8,0.5,14.6c0.2,2.3-0.4,3.7-2.1,4c-1.6,0.3-2.9-0.8-3.3-2.9c-1.4-7-1.9-14,0.4-21c0.7-2.2,1.8-4.2,3.1-6.1
			c1.8-2.8,4.3-4.5,7.8-4.8c3.9-0.4,7.9-1,11.7-1.9c7.9-1.8,13-6.5,14.8-14.5c0.7-3,1.3-3.4,4.3-2.8c0.2,0,0.4,0.1,0.6,0.1
			c3.9-0.3,3.8-0.3,4.8,3.5c2.3,8.8,8.6,12.9,17.1,14.4c3.3,0.6,6.7,1.2,10.1,1.5c2.5,0.2,4.3,1.5,5.9,3.3
			c4.2,4.7,5.7,10.5,5.7,16.6c0,4.1-0.6,8.2-1.1,12.3c-0.2,1.9-1.8,2.9-3.4,2.5c-1.6-0.4-2.4-1.8-2-3.7c1-5.6,1.7-11.1,0.3-16.7
			c-0.4-1.7-1.1-3.2-2.2-4.9c-0.1,0.6-0.3,1.1-0.4,1.7c-3.2,14.8-2.5,29.8-2.5,44.8c0,3-1.4,4.8-3.9,5.1c-2.9,0.3-4.9-1.6-4.9-4.9
			c0-7.9,0-15.9,0-23.8C109.6,78,109.6,77.1,109.6,76z"/>
		<path class="st1" d="M51.2,35.6c0.1-4.4,3.6-7.9,8.1-7.9c4.5,0,8.1,3.6,8,8.2c0,4.4-3.7,8-8.1,7.9C54.8,43.8,51.2,40.1,51.2,35.6z
			"/>
		<path class="st1" d="M112.8,27.7c4.5-0.1,8.2,3.5,8.2,8c0,4.4-3.6,8-7.9,8.1c-4.4,0.1-8-3.5-8.1-7.8
			C104.7,31.4,108.2,27.8,112.8,27.7z"/>
	</g>
</g>
</svg>
