<?xml version="1.0" encoding="utf-8"?>
<!-- Generator: Adobe Illustrator 19.0.1, SVG Export Plug-In . SVG Version: 6.00 Build 0)  -->
<svg version="1.1" id="Слой_1" xmlns="http://www.w3.org/2000/svg" xmlns:xlink="http://www.w3.org/1999/xlink" x="0px" y="0px"
	 viewBox="-196 353.9 203 135" style="enable-background:new -196 353.9 203 135;" xml:space="preserve">
<style type="text/css">
	.st0{fill:url(#SVGID_1_);}
	.st1{fill:#FFFFFF;}
	.st2{fill:#FE9313;}
</style>
<g>
	<g>
		<g>
			
				<linearGradient id="SVGID_1_" gradientUnits="userSpaceOnUse" x1="-94.5" y1="487.4647" x2="-94.5" y2="348.638" gradientTransform="matrix(1 0 0 -1 0 843.67)">
				<stop  offset="0" style="stop-color:#FF9529"/>
				<stop  offset="1" style="stop-color:#FD7900"/>
			</linearGradient>
			<path class="st0" d="M-60.5,488.9h-68c-37.3,0-67.5-30.2-67.5-67.5l0,0c0-37.3,30.2-67.5,67.5-67.5h68.1
				c37.2,0,67.4,30.2,67.4,67.5l0,0C7,458.7-23.2,488.9-60.5,488.9z"/>
		</g>
	</g>
	<g>
		<g>
			<path class="st1" d="M-151.8,448.2c0,0-2.1,0.3-2.5-3.3c-0.4-3.6-1.8-17.3-1.8-17.3s-6.5-2-5.9-7.7c0.4-3.3,2.9-4.8,4.9-5.4
				c1.5-0.5,3.2-0.4,4.7,0.1c2.6,1,6.9,3.3,7.1,7.9c0.3,6.7,0,25.7,0,25.7H-151.8z"/>
			<ellipse class="st1" cx="-148.7" cy="450.4" rx="4" ry="1.2"/>
			<path class="st1" d="M-34.6,448.2c0,0,2.1,0.3,2.5-3.3s1.8-17.3,1.8-17.3s6.5-2,5.9-7.7c-0.4-3.3-2.9-4.8-4.9-5.4
				c-1.5-0.5-3.2-0.4-4.7,0.1c-2.6,1-6.9,3.3-7.1,7.9c-0.3,6.7,0,25.7,0,25.7H-34.6z"/>
			<ellipse class="st1" cx="-37.7" cy="450.4" rx="4" ry="1.2"/>
			<rect x="-143.8" y="422.3" class="st1" width="101.5" height="10.4"/>
			<rect x="-143.8" y="433.8" class="st1" width="101.5" height="15.6"/>
			<path class="st1" d="M-43.5,398.6c0,0.1-0.2-7.4-11.1-7.4h-37.2v27.2l0,0c0.3,1,2,1.4,2.5,1.5h41.6c0,0,3.6-0.2,4.3-5.1
				C-42.8,409.8-43.5,398.6-43.5,398.6z"/>
		</g>
		<path class="st1" d="M-94.4,418.3L-94.4,418.3v-27.1h-37.8c-9.9-0.4-11.1,7.5-11.1,7.4c0,0,0,0.7-0.1,1.7c6.1,1,13.6,5.2,15,19.4
			h31.5C-96.4,419.7-94.7,419.3-94.4,418.3z"/>
		<g>
			<path class="st1" d="M-151.3,402.1c0,0,19.5-5.3,21.5,18.3C-129.8,420.4-153.2,423-151.3,402.1z"/>
		</g>
	</g>
	<path class="st2" d="M-154.6,418.7c1.2,0,2.1,1,2.1,2.1s-1,2.1-2.1,2.1c-1.1,0-2.1-1-2.1-2.1S-155.8,418.7-154.6,418.7
		 M-154.6,417.9c-1.6,0-2.9,1.3-2.9,2.9s1.3,2.9,2.9,2.9c1.6,0,2.9-1.3,2.9-2.9S-153,417.9-154.6,417.9L-154.6,417.9z"/>
	<path class="st2" d="M-31.8,418.7c1.2,0,2.1,1,2.1,2.1s-1,2.1-2.1,2.1c-1.2,0-2.1-1-2.1-2.1S-33,418.7-31.8,418.7 M-31.8,417.9
		c-1.6,0-2.9,1.3-2.9,2.9s1.3,2.9,2.9,2.9c1.6,0,2.9-1.3,2.9-2.9C-28.9,419.2-30.2,417.9-31.8,417.9L-31.8,417.9z"/>
</g>
</svg>
