<?xml version="1.0" encoding="utf-8"?>
<!-- Generator: Adobe Illustrator 19.0.1, SVG Export Plug-In . SVG Version: 6.00 Build 0)  -->
<svg version="1.1" id="Layer_1" xmlns="http://www.w3.org/2000/svg" xmlns:xlink="http://www.w3.org/1999/xlink" x="0px" y="0px"
	 viewBox="0 0 40 40" style="enable-background:new 0 0 40 40;" xml:space="preserve">
<style type="text/css">
	.st0{fill:#ABD2E9;}
</style>
<path class="st0" d="M20,0C9,0,0,9,0,20c0,8.8,5.8,16.4,13.7,19l0-15.7l-4.1,0l0-5.6l4.1,0v-2.2c0-3.7,2.8-7.1,6.3-7.1l4.5,0V14
	L20,14c-0.5,0-1.1,0.6-1.1,1.5v2.2h5.6v5.6l-5.6,0L19,40c0.4,0,0.7,0.1,1.1,0.1c11,0,20-9,20-20C40,9,31.1,0,20,0z"/>
</svg>
