<?xml version="1.0" encoding="utf-8"?>
<!-- Generator: Adobe Illustrator 19.0.1, SVG Export Plug-In . SVG Version: 6.00 Build 0)  -->
<svg version="1.1" id="Слой_1" xmlns="http://www.w3.org/2000/svg" xmlns:xlink="http://www.w3.org/1999/xlink" x="0px" y="0px"
	 viewBox="0 0 12 12" style="enable-background:new 0 0 12 12;" xml:space="preserve">
<style type="text/css">
	.st0{fill:#607079;}
</style>
<path class="st0" d="M7.3,8.9C6.8,8.9,6.2,8.8,5.6,8.4C5.3,8.3,5.2,8.4,5,8.6c-1,1-2,2-2.9,3C1.8,11.9,1.4,12,1,12
	c-0.4,0-0.8-0.2-0.9-0.6c-0.1-0.4-0.1-0.9,0.2-1.2C0.8,9.6,1.4,9,1.9,8.5c0.5-0.5,1-1,1.5-1.5c0.3-0.3,0.3-0.3,0.1-0.7
	c-0.5-1.2-0.6-2.5,0-3.7c0.7-1.5,1.8-2.4,3.4-2.6c1.2-0.2,2.3,0.1,3.3,0.8c0.9,0.6,1.5,1.5,1.7,2.6c0.4,2.2-0.4,4.1-2.5,5.1
	C8.8,8.8,8.2,8.9,7.3,8.9z M7.5,7.6c1,0.1,1.8-0.3,2.5-1.2c1.2-1.4,0.8-3.3-0.4-4.3c-0.9-0.7-1.9-1-3.1-0.6C5.2,1.9,4.4,3.1,4.4,4.4
	C4.3,6.1,5.9,7.7,7.5,7.6z"/>
</svg>
