<?xml version="1.0" encoding="utf-8"?>
<!-- Generator: Adobe Illustrator 19.0.1, SVG Export Plug-In . SVG Version: 6.00 Build 0)  -->
<svg version="1.1" id="Layer_1" xmlns="http://www.w3.org/2000/svg" xmlns:xlink="http://www.w3.org/1999/xlink" x="0px" y="0px"
	 viewBox="-459 261 40 40" style="enable-background:new -459 261 40 40;" xml:space="preserve">
<style type="text/css">
	.st0{fill:#C2C9CE;}
</style>
<path class="st0" d="M-439,261c-11,0-20,9-20,20c0,8.8,5.8,16.4,13.7,19v-15.7h-4.1v-5.6h4.1v-2.2c0-3.7,2.8-7.1,6.3-7.1h4.5v5.6
	h-4.5c-0.5,0-1.1,0.6-1.1,1.5v2.2h5.6v5.6h-5.6l0.1,16.7c0.4,0,0.7,0.1,1.1,0.1c11,0,20-9,20-20C-419,270-427.9,261-439,261z"/>
</svg>
