<?xml version="1.0" encoding="utf-8"?>
<!-- Generator: Adobe Illustrator 19.0.1, SVG Export Plug-In . SVG Version: 6.00 Build 0)  -->
<svg version="1.1" id="Layer_1" xmlns="http://www.w3.org/2000/svg" xmlns:xlink="http://www.w3.org/1999/xlink" x="0px" y="0px"
	 viewBox="-459 261 40 40" style="enable-background:new -459 261 40 40;" xml:space="preserve">
<style type="text/css">
	.st0{fill:#C2C9CE;}
</style>
<g>
	<path class="st0" d="M-436.4,283.1c-0.3-0.1-0.8-0.2-1.4-0.2c-0.6,0-1.4,0-2.3,0h-1v5.5h0.3c1.4,0,2.4,0,3,0c0.5,0,1.1-0.1,1.7-0.4
		c0.5-0.2,0.9-0.5,1.1-0.9s0.3-0.9,0.3-1.4c0-0.7-0.1-1.2-0.4-1.6C-435.4,283.6-435.8,283.3-436.4,283.1z"/>
	<path class="st0" d="M-438.4,279.1c0.4,0,0.8-0.1,1.2-0.3c0.4-0.2,0.7-0.5,0.9-0.8c0.2-0.4,0.3-0.8,0.3-1.3c0-0.4-0.1-0.7-0.3-1.1
		c-0.2-0.4-0.5-0.6-0.8-0.8c-0.4-0.2-0.8-0.2-1.3-0.3c-0.5,0-1.2,0-2.2,0h-0.4v4.6h0.7C-439.5,279.2-438.8,279.1-438.4,279.1z"/>
	<path class="st0" d="M-439,261c-11,0-20,9-20,20s9,20,20,20s20-9,20-20S-427.9,261-439,261z M-429.7,288.5c-0.4,0.8-1,1.5-1.7,2
		c-0.8,0.6-1.7,1.1-2.7,1.4c-1,0.3-2.2,0.4-3.7,0.4h-8.7v-21.8h7.7c1.6,0,2.8,0.1,3.6,0.2c0.8,0.1,1.6,0.4,2.3,0.8
		c0.8,0.4,1.4,1,1.7,1.7c0.4,0.7,0.6,1.5,0.6,2.4c0,1.1-0.3,2-0.8,2.8c-0.5,0.8-1.3,1.4-2.2,1.8v0.1c1.3,0.3,2.4,0.9,3.2,1.7
		c0.8,0.9,1.2,2.1,1.2,3.5C-429.1,286.8-429.3,287.7-429.7,288.5z"/>
</g>
</svg>
