<?xml version="1.0" encoding="utf-8"?>
<!-- Generator: Adobe Illustrator 19.0.1, SVG Export Plug-In . SVG Version: 6.00 Build 0)  -->
<svg version="1.1" id="Слой_1" xmlns="http://www.w3.org/2000/svg" xmlns:xlink="http://www.w3.org/1999/xlink" x="0px" y="0px"
	 viewBox="-263.2 398.4 28 44.9" style="enable-background:new -263.2 398.4 28 44.9;" xml:space="preserve">
<style type="text/css">
	.st0{fill:#7DC30C;}
	.st1{fill:#FFFFFF;}
</style>
<path class="st0" d="M-239.9,402.1c-6.3-6.3-18.2-4.1-21.9,4c-3.3,5.9-0.4,12.6,2.5,17.9c2.8,5.4,4.3,8.5,6.3,12.7
	c1.1,2.3,2.3,4.3,3.5,6.7c5.3-9.8,7.8-14.6,11.9-23C-233.9,413.7-234.6,406.7-239.9,402.1z"/>
<path class="st1" d="M-249.3,420.8c-4.6,0-8.3-3.7-8.3-8.3c0-4.6,3.7-8.3,8.3-8.3c4.6,0,8.3,3.7,8.3,8.3
	C-241,417.1-244.7,420.8-249.3,420.8z"/>
</svg>
