<?xml version="1.0" encoding="utf-8"?>
<!-- Generator: Adobe Illustrator 19.0.1, SVG Export Plug-In . SVG Version: 6.00 Build 0)  -->
<svg version="1.1" id="Слой_1" xmlns="http://www.w3.org/2000/svg" xmlns:xlink="http://www.w3.org/1999/xlink" x="0px" y="0px"
	 viewBox="-275 423.9 12 20" style="enable-background:new -275 423.9 12 20;" xml:space="preserve">
<style type="text/css">
	.st0{fill:#9DA6AC;}
	.st1{fill:#FFFFFF;}
</style>
<g>
	<path class="st0" d="M-265,425.5c-2.7-2.8-7.8-1.8-9.4,1.8c-1.4,2.6-0.2,5.6,1.1,8c1.2,2.4,1.8,3.8,2.7,5.7c0.5,1,1,1.9,1.5,3
		c2.3-4.4,3.3-6.5,5.1-10.2C-262.4,430.7-262.7,427.6-265,425.5z"/>
	<path class="st1" d="M-269,433.8c-2,0-3.6-1.6-3.6-3.7c0-2,1.6-3.7,3.6-3.7c2,0,3.6,1.6,3.6,3.7C-265.5,432.2-267,433.8-269,433.8z
		"/>
</g>
</svg>
