<?xml version="1.0" encoding="utf-8"?>
<!-- Generator: Adobe Illustrator 19.0.1, SVG Export Plug-In . SVG Version: 6.00 Build 0)  -->
<svg version="1.1" id="Слой_1" xmlns="http://www.w3.org/2000/svg" xmlns:xlink="http://www.w3.org/1999/xlink" x="0px" y="0px"
	 viewBox="0 0 12 20" style="enable-background:new 0 0 12 20;" xml:space="preserve">
<style type="text/css">
	.st0{fill:#18A4D9;}
</style>
<path class="st0" d="M10,1.6C7.3-1.2,2.2-0.2,0.6,3.4C-0.8,6,0.5,9,1.7,11.4c1.2,2.4,1.8,3.8,2.7,5.7c0.5,1,1,1.9,1.5,3
	c2.3-4.3,3.3-6.5,5.1-10.2C12.6,6.8,12.3,3.6,10,1.6z M6,9.9c-2,0-3.5-1.6-3.5-3.7S4,2.6,6,2.6s3.5,1.6,3.5,3.7S8,9.9,6,9.9z"/>
</svg>
