<?xml version="1.0" encoding="utf-8"?>
<!-- Generator: Adobe Illustrator 19.0.1, SVG Export Plug-In . SVG Version: 6.00 Build 0)  -->
<svg version="1.1" id="Слой_1" xmlns="http://www.w3.org/2000/svg" xmlns:xlink="http://www.w3.org/1999/xlink" x="0px" y="0px"
	 viewBox="0 0 24 26" style="enable-background:new 0 0 24 26;" xml:space="preserve">
<style type="text/css">
	.st0{fill:#FFFFFF;}
</style>
<path id="google_4_" class="st0" d="M7.9,24.7c-3,0-5.1-2-5.1-4.3c0-2.3,2.7-4.2,5.6-4.2c0.7,0,1.3,0.1,1.9,0.3
	c1.6,1.2,2.8,1.8,3.1,3.2c0.1,0.3,0.1,0.5,0.1,0.8C13.5,22.9,12,24.7,7.9,24.7 M8.7,10.9c-2-0.1-3.9-2.3-4.2-5c-0.3-2.7,1-4.8,3-4.7
	c2,0.1,3.9,2.2,4.2,5C12,8.8,10.6,11,8.7,10.9 M12.8,15c-0.7-0.5-2-1.8-2-2.5c0-0.9,0.2-1.3,1.5-2.3c1.3-1,2.2-2.5,2.2-4.2
	c0-2-0.9-4-2.5-4.7h2.4L16.1,0H8.4C4.9,0,1.7,2.7,1.7,5.9c0,3.2,2.4,5.9,5.9,5.9c0.2,0,0.5,0,0.7,0c-0.2,0.5-0.4,1-0.4,1.5
	c0,0.9,0.5,1.6,1.1,2.2c-0.4,0-0.9,0-1.3,0c-4.3,0-7.6,2.8-7.6,5.8C0,24.2,3.6,26,7.9,26c4.9,0,7.6-2.9,7.6-5.8
	C15.5,17.9,14.8,16.5,12.8,15 M24,11.2h-3V8h-2.4v3.1h-3v2.5h3v3.1H21v-3.1h3V11.2z"/>
</svg>
