<?xml version="1.0" encoding="utf-8"?>
<!-- Generator: Adobe Illustrator 19.0.1, SVG Export Plug-In . SVG Version: 6.00 Build 0)  -->
<svg version="1.1" id="Слой_1" xmlns="http://www.w3.org/2000/svg" xmlns:xlink="http://www.w3.org/1999/xlink" x="0px" y="0px"
	 viewBox="0 0 52 40.9" style="enable-background:new 0 0 52 40.9;" xml:space="preserve">
<style type="text/css">
	.st0{fill:url(#SVGID_1_);}
	.st1{fill:#FFFFFF;}
</style>
<g>
	<g>
		<linearGradient id="SVGID_1_" gradientUnits="userSpaceOnUse" x1="26.0237" y1="39.366" x2="26.0237" y2="0.2702">
			<stop  offset="0" style="stop-color:#FD8701"/>
			<stop  offset="1" style="stop-color:#FFA12A"/>
		</linearGradient>
		<path class="st0" d="M31.6,40.9H20.4C9.2,40.9,0,31.7,0,20.4v0C0,9.2,9.2,0,20.4,0l11.2,0C42.9,0,52,9.2,52,20.4v0
			C52,31.7,42.9,40.9,31.6,40.9z"/>
	</g>
</g>
<g>
	<path class="st1" d="M33.3,23c-0.2-0.1-0.4-0.1-0.7-0.2c-0.5,1.6-0.9,3.2-1.3,4.8c-0.4,1.3-0.7,2.5-1.1,3.8c-0.3,1-0.9,1.5-1.7,1.2
		c-0.8-0.2-1.1-0.9-0.9-1.9c0.8-3,1.7-5.9,2.5-8.9c0.5-2.1,0.7-4.3,1-6.4c0-0.1-0.2-0.4-0.3-0.5c-2.2-0.8-3.7-2.3-4.6-4.6
		c-0.9,2.5-2.6,4-5,4.8c0.2,1.2,0.4,2.4,0.5,3.6c0.4,3.8,1.9,7.3,2.8,11c0.1,0.4,0.2,0.8,0.3,1.1c0.2,0.9-0.2,1.5-0.9,1.8
		c-0.8,0.2-1.4-0.2-1.7-1.1c-0.7-2.6-1.5-5.3-2.2-7.9c-0.1-0.2-0.1-0.5-0.2-0.7c-0.2,0-0.4,0.1-0.7,0.1c0,1,0,2,0,2.9
		c0,1.8,0,3.5,0,5.3c0,0.8-0.5,1.4-1.3,1.4c-0.8,0-1.3-0.5-1.3-1.4c0-2.7,0.1-5.4,0-8.1c-0.1-2.1-0.5-4.1-0.8-6.2
		c-0.1,0-0.2,0-0.3,0c-0.2,0.7-0.6,1.4-0.6,2c0,1.5,0.1,3,0.2,4.4c0,0.7-0.1,1.1-0.6,1.2c-0.5,0.1-0.9-0.2-1-0.9
		c-0.4-2.1-0.6-4.3,0.1-6.3c0.2-0.7,0.6-1.3,0.9-1.9c0.5-0.8,1.3-1.4,2.4-1.5c1.2-0.1,2.4-0.3,3.6-0.6c2.4-0.5,3.9-2,4.5-4.4
		c0.2-0.9,0.4-1,1.3-0.8c0.1,0,0.1,0,0.2,0c1.2-0.1,1.2-0.1,1.5,1c0.7,2.7,2.6,3.9,5.2,4.3c1,0.2,2,0.3,3,0.4c0.8,0.1,1.3,0.5,1.8,1
		c1.3,1.4,1.7,3.2,1.7,5c0,1.2-0.2,2.5-0.3,3.7c-0.1,0.6-0.5,0.9-1,0.8c-0.5-0.1-0.7-0.5-0.6-1.1c0.3-1.7,0.5-3.4,0.1-5.1
		c-0.1-0.5-0.3-1-0.7-1.5c0,0.2-0.1,0.3-0.1,0.5c-1,4.5-0.8,9-0.8,13.6c0,0.9-0.4,1.5-1.2,1.5c-0.9,0.1-1.5-0.5-1.5-1.5
		c0-2.4,0-4.8,0-7.2C33.3,23.6,33.3,23.3,33.3,23z"/>
	<path class="st1" d="M15.6,10.8c0-1.3,1.1-2.4,2.4-2.4c1.4,0,2.4,1.1,2.4,2.5c0,1.3-1.1,2.4-2.4,2.4C16.7,13.3,15.6,12.2,15.6,10.8
		z"/>
	<path class="st1" d="M34.3,8.4c1.4,0,2.5,1.1,2.5,2.4c0,1.3-1.1,2.4-2.4,2.4c-1.3,0-2.4-1-2.5-2.4C31.8,9.5,32.9,8.4,34.3,8.4z"/>
</g>
</svg>
