<?xml version="1.0" encoding="utf-8"?>
<!-- Generator: Adobe Illustrator 19.0.1, SVG Export Plug-In . SVG Version: 6.00 Build 0)  -->
<svg version="1.1" id="Слой_1" xmlns="http://www.w3.org/2000/svg" xmlns:xlink="http://www.w3.org/1999/xlink" x="0px" y="0px"
	 viewBox="0 0 61.5 40.9" style="enable-background:new 0 0 61.5 40.9;" xml:space="preserve">
<style type="text/css">
	.st0{fill:url(#SVGID_1_);}
	.st1{filter:url(#Adobe_OpacityMaskFilter);}
	.st2{mask:url(#SVGID_2_);}
	.st3{fill:#FFFFFF;}
	.st4{fill:#82CB13;}
	.st5{fill:#82CA13;}
</style>
<g>
	<g>
		<linearGradient id="SVGID_1_" gradientUnits="userSpaceOnUse" x1="30.7473" y1="0.6912" x2="30.7473" y2="42.7458">
			<stop  offset="1.063830e-002" style="stop-color:#87D21A"/>
			<stop  offset="0.984" style="stop-color:#7CC10B"/>
		</linearGradient>
		<path class="st0" d="M41.1,40.9H20.4C9.2,40.9,0,31.7,0,20.4v0C0,9.2,9.2,0,20.4,0l20.6,0c11.3,0,20.4,9.2,20.4,20.4v0
			C61.5,31.7,52.3,40.9,41.1,40.9z"/>
	</g>
</g>
<g>
	<defs>
		<filter id="Adobe_OpacityMaskFilter" filterUnits="userSpaceOnUse" x="10.3" y="11.3" width="41.7" height="19">
			
				<feColorMatrix  type="matrix" values="-1 0 0 0 1  0 -1 0 0 1  0 0 -1 0 1  0 0 0 1 0" color-interpolation-filters="sRGB" result="source"/>
			<feFlood  style="flood-color:white;flood-opacity:1" result="back"/>
			<feBlend  in="source" in2="back" mode="normal"/>
		</filter>
	</defs>
	<mask maskUnits="userSpaceOnUse" x="10.3" y="11.3" width="41.7" height="19" id="SVGID_2_">
		<g class="st1">
		</g>
	</mask>
	<g class="st2">
		<path class="st3" d="M13.4,28.6c0,0-0.6,0.1-0.7-1c-0.1-1.1-0.5-5.3-0.5-5.3s-2-0.6-1.8-2.3c0.1-1,0.9-1.4,1.5-1.6
			c0.5-0.1,1-0.1,1.4,0c0.8,0.3,2.1,1,2.1,2.4c0.1,2,0,7.8,0,7.8L13.4,28.6z"/>
		<g>
			<ellipse class="st3" cx="14.3" cy="29.9" rx="1.2" ry="0.4"/>
		</g>
		<path class="st3" d="M48.9,28.6c0,0,0.6,0.1,0.7-1s0.5-5.3,0.5-5.3s2-0.6,1.8-2.3c-0.1-1-0.9-1.4-1.5-1.6c-0.5-0.1-1-0.1-1.4,0
			c-0.8,0.3-2.1,1-2.1,2.4c-0.1,2,0,7.8,0,7.8L48.9,28.6z"/>
		<g>
			<ellipse class="st3" cx="47.9" cy="29.9" rx="1.2" ry="0.4"/>
		</g>
		<rect x="15.8" y="20.7" class="st3" width="30.8" height="3.2"/>
		<rect x="15.8" y="24.2" class="st3" width="30.8" height="4.7"/>
		<path class="st3" d="M46.2,13.5c0,0-0.1-2.3-3.4-2.3H31.6v8.2c0,0,0,0,0,0c0.1,0.3,0.6,0.4,0.7,0.5h12.6c0,0,1.1-0.1,1.3-1.5
			C46.4,16.9,46.2,13.5,46.2,13.5z"/>
	</g>
	<path class="st3" d="M30.8,19.5C30.8,19.5,30.8,19.5,30.8,19.5l0-8.2H19.3c-3-0.1-3.4,2.3-3.4,2.3c0,0,0,0.2,0,0.5
		c1.8,0.3,4.1,1.6,4.5,5.9H30C30.2,19.9,30.7,19.8,30.8,19.5z"/>
	<g>
		<path class="st3" d="M13.5,14.6c0,0,5.9-1.6,6.5,5.6C20,20.1,13,20.9,13.5,14.6z"/>
	</g>
	<g>
		<g>
			<path class="st4" d="M14.9,14.4c1.8,0,4.7,0.8,5.1,5.7c0,0-0.3,0-0.7,0c-1.8,0-6.2-0.5-5.8-5.6C13.5,14.6,14.1,14.4,14.9,14.4
				 M14.9,14.2L14.9,14.2c-0.8,0-1.4,0.2-1.4,0.2l-0.2,0l0,0.2c-0.2,1.7,0.2,3.1,1.1,4.1c1.4,1.5,3.7,1.7,4.9,1.7c0.4,0,0.7,0,0.7,0
				l0.2,0l0-0.2C19.8,15,16.7,14.2,14.9,14.2L14.9,14.2z"/>
		</g>
	</g>
</g>
<g>
	<circle class="st4" cx="12.5" cy="20.3" r="0.6"/>
</g>
<g>
	<circle class="st5" cx="49.7" cy="20.3" r="0.6"/>
</g>
</svg>
