<?xml version="1.0" encoding="utf-8"?>
<!-- Generator: Adobe Illustrator 19.0.1, SVG Export Plug-In . SVG Version: 6.00 Build 0)  -->
<svg version="1.1" id="Слой_1" xmlns="http://www.w3.org/2000/svg" xmlns:xlink="http://www.w3.org/1999/xlink" x="0px" y="0px"
	 viewBox="0 0 35 34" style="enable-background:new 0 0 35 34;" xml:space="preserve">
<style type="text/css">
	.st0{fill:#FFFFFF;}
</style>
<text transform="matrix(1 0 0 1 -1089.0337 87.0373)" style="fill:#0881AF; font-family:'OpenSans-Light'; font-size:31.0863px;"> </text>
<g>
	<g>
		<g>
			<g>
				<path class="st0" d="M22.8,5.7c-3.6-3.4-10.3-2.2-12.4,2.2c-1.9,3.2-0.2,6.8,1.4,9.7c1.6,2.9,4.9,8.3,5.5,9.6
					c3-5.3,4.4-7,6.7-11.6C26.2,11.9,25.8,8.2,22.8,5.7z M17.5,5.5c0.8,0,1.4,0.6,1.4,1.4s-0.6,1.4-1.4,1.4s-1.4-0.6-1.4-1.4
					C16.1,6.1,16.7,5.5,17.5,5.5z M20.3,16.4c0,0-1,0.2-2.9,0.2c-1.2,0-2.8-0.2-2.8-0.2c-1-0.2-1.7-0.6-1.7-1.4
					c0-0.8,0.7-1.1,1.6-0.9c0,0,1.2,0.3,2.9,0.3c1.7,0,2.9-0.3,2.9-0.3c0.9-0.2,1.6,0.1,1.6,0.9C22,15.7,21.2,16.2,20.3,16.4z
					 M22.1,13.5c-0.3,0.2-0.7,0.1-1-0.2l-1-1.8c0,0,0,0,0,0L20,11.3c-0.1-0.1-0.3-0.2-0.5-0.1c-0.1,0-0.2,0.1-0.2,0.4l-0.2,1.7
					C19,13.6,18.6,14,18.2,14h-0.7h-0.7c-0.4,0-0.8-0.3-0.9-0.7l-0.2-1.7c-0.1-0.2-0.1-0.3-0.2-0.4c-0.2-0.1-0.4,0-0.5,0.1l-0.1,0.1
					c0,0,0,0,0,0l-1,1.8c-0.3,0.3-0.7,0.4-1,0.2c-0.3-0.2-0.3-0.7,0-1l1.7-2.9c0.4-0.8,1.7-1,2.3-1.1c0,0,0,0,0,0c0.4,0,0.7,0,1,0
					c0,0,0,0,0,0c0.6,0.1,1.9,0.3,2.3,1.1l1.7,2.9C22.3,12.8,22.3,13.2,22.1,13.5z"/>
			</g>
		</g>
		<rect x="11.4" y="27.1" class="st0" width="12.2" height="2.9"/>
	</g>
	<path class="st0" d="M31.8,34H3.2C1.4,34,0,32.6,0,30.9V3.1C0,1.4,1.4,0,3.2,0h28.7C33.6,0,35,1.4,35,3.1v27.7
		C35,32.6,33.6,34,31.8,34z M3.2,1C2,1,1,2,1,3.1v27.7C1,32,2,33,3.2,33h28.7c1.2,0,2.1-1,2.1-2.1V3.1C34,2,33,1,31.8,1H3.2z"/>
</g>
</svg>
