<?xml version="1.0" encoding="utf-8"?>
<!-- Generator: Adobe Illustrator 19.0.1, SVG Export Plug-In . SVG Version: 6.00 Build 0)  -->
<svg version="1.1" id="_x31_" xmlns="http://www.w3.org/2000/svg" xmlns:xlink="http://www.w3.org/1999/xlink" x="0px" y="0px"
	 viewBox="-245 368.9 105 105" style="enable-background:new -245 368.9 105 105;" xml:space="preserve">
<style type="text/css">
	.st0{fill:#535353;}
</style>
<g>
	<path class="st0" d="M-190.5,369.1c4.7,0.7,9,0.9,13.6,2.4c7.7,2.4,14.5,6.5,20.4,12.1c3.7,3.5,6.7,7.5,9.4,11.8
		c0.6,0.9,0.9,1.9,0.9,3c0.2,3.5-6.1,7.7-8,10.1c-0.7,0.9-1,2-1,3.1c0,1.7,0.2,3.4,0.4,5.1c0.2,1.4,1,2.3,2.2,2.8
		c1.1,0.5,2.3,0.8,3.5,0.9c1.1,0.1,2.3,0.2,3.4,0.2c0.9,0,1.7-0.2,2.6-0.3c0.9-0.1,1.4-0.7,1.6-1.6c0.3-1.5,0.3-3.1,0.2-4.6
		c-0.1-1.6-0.4-3.2-1.1-4.7c-0.1-0.3-0.3-0.5-0.4-0.7c-0.4-0.5-1-0.7-1.6-0.6c-0.6,0.2-0.8,0.7-0.8,1.2c-0.1,0.8,0,1.6,0.4,2.4
		c0.2,0.5,0.6,0.9,1,1.2c1.4,1.3-0.3,4.3-1.8,2.8c-2.3-2.5-2.9-5.7-2-8.9c0.1-0.3,0.2-0.6,0.4-0.9c0.9-1.7,3.6-2,4.7-0.1
		c0.5,0.9,0.8,1.8,1,2.7c1.3,4.8,1.6,9.7,1.5,14.7c-0.1,4.2-0.6,8.4-1.9,12.4c-0.2,0.6-0.5,1.2-0.8,1.7c-1.1,1.9-3.7,1.3-4.5,0
		c-0.5-0.8-0.7-1.6-0.8-2.5c-0.2-1.7-0.1-3.4,0.6-4.9c0.4-1,1-1.8,1.8-2.5c0.5-0.5,1-0.5,1.5,0c0.2,0.2,0.5,0.5,0.6,0.8
		c0.4,0.7,0.3,1.5-0.4,2c-1.1,0.9-1.5,2.1-1.4,3.5c0,0.9,0.6,1.5,1.3,1.4c0.5,0,0.8-0.3,1-0.6c0.5-0.7,0.8-1.4,1-2.2
		c0.6-1.8,0.7-3.7,0.6-5.6c0-0.8-0.1-1.6-0.3-2.4c-0.1-0.8-0.6-1.2-1.3-1.4c-1.3-0.3-2.7-0.4-4.1-0.4c-1.5,0.1-3,0.3-4.5,0.7
		c-0.4,0.1-0.8,0.3-1.2,0.4c-1.2,0.5-1.9,1.4-2.1,2.7c-0.3,1.9-0.5,3.8-0.4,5.8c0,1,0.5,1.9,1.1,2.7c2.3,3.1,9,6.8,7.6,11.4
		c-0.3,1.1-0.9,2-1.5,2.9c-1.7,2.6-3.5,5.1-5.5,7.4c-7,7.7-15.5,13-25.5,15.7c-5,1.3-10.2,2-15.4,1.7c-6.1-0.3-12.1-1.6-17.8-3.9
		c-5.9-2.4-11.1-5.8-15.7-10.1c-3.8-3.5-6.9-7.6-9.7-12c-0.6-0.9-0.9-1.9-1-3c-0.1-1,0.1-2,0.8-2.8c2.3-2.6,4.9-4.8,7-7.6
		c0.7-1,1-2,1-3.2c0-1.7-0.2-3.4-0.4-5.1c-0.2-1.4-1-2.3-2.3-2.9c-1.2-0.5-2.4-0.8-3.7-0.9c-1.9-0.2-3.8-0.2-5.6,0.1
		c-1.2,0.2-1.6,0.7-1.8,2c-0.4,3-0.3,6.4,1.1,9.2c0.3,0.8,0.9,1.2,1.9,1.2c0.5-0.1,0.8-0.5,0.8-0.9c0.1-0.6,0-1.2,0-1.8
		c-0.1-0.9-0.5-1.6-1.2-2.1c-1-0.9-0.8-2.5,0.4-3.1c0.5-0.3,1-0.1,1.4,0.3c0.6,0.6,1.1,1.2,1.4,1.9c0.7,1.6,1,3.3,0.8,5
		c-0.1,0.9-0.2,1.8-0.7,2.7c-0.6,1.2-2,1.8-3.3,1.4c-0.6-0.2-1.1-0.6-1.4-1.1c-0.5-0.7-0.7-1.5-0.9-2.3c-1-3.8-1-7.6-1.7-11.4
		c0-1.3,0-2.6,0-3.9c0.6-3.3-0.2-13.9,4.2-14.9c1.1-0.3,2.5,0.1,3.1,1.4c0.2,0.4,0.4,0.8,0.5,1.2c0.7,2.4,0.4,5.6-1.2,7.6
		c-0.3,0.4-0.6,0.7-1,1c-0.3,0.3-0.7,0.4-1.1,0.2c-1.3-0.6-1.6-2.2-0.5-3.1c1.1-0.9,1.4-2.2,1.3-3.5c0-0.6-0.3-1.1-0.9-1.3
		c-1,0.1-1.6,0.5-1.9,1.3c-1,2-2.8,10.4,0.7,10.9c0.9,0.1,1.7,0.3,2.6,0.3c1.1,0,2.2-0.1,3.3-0.2c1.2-0.1,2.4-0.4,3.6-0.9
		c1.3-0.5,2-1.4,2.2-2.8c0.3-1.7,0.4-3.4,0.4-5.1c0-1.1-0.2-2.1-0.9-3.1c-1.9-2.6-4.2-4.6-6.5-6.9c-0.7-0.7-1.3-1.4-1.5-2.4
		c-1.1-5.2,6.8-12.7,10.2-15.8c5.8-5.5,12.5-9.5,20.2-12C-202.4,369.8-196.5,369.1-190.5,369.1
		C-190.4,369.2-191.8,369.1-190.5,369.1z M-156.3,407c1.6-1.1,3.1-2.4,4.4-3.9c1.2-1.3,2.2-2.7,2.9-4.3c0.6-1.5,0.5-2.9-0.3-4.2
		c-2-3.1-4.3-6.1-6.9-8.7c-4.2-4.3-9-7.7-14.4-10.3c-12-5.8-26.1-6.6-38.7-2.1c-8.3,3-15.3,7.8-21.1,14.4c-1.9,2.2-3.6,4.5-5.1,6.9
		c-1.1,1.8-0.8,3.7,0.3,5.4c1.3,2.2,3.1,4.1,5.1,5.7c0.5,0.5,1.1,0.9,1.7,1.3c0.8-0.8,1.2-1.7,1.2-2.7c0-0.7-0.3-1.3-0.7-1.8
		c-1.5-2.1-3.3-4.2-4.1-6.6c-0.5-1.4-0.3-2.7,0.5-3.9c0.1-0.2,0.3-0.3,0.4-0.5c0.4,0.3,0.6,0.7,0.6,1.2c0.2,1.2,0.3,2.3,0.6,3.5
		c0.6,2.8,2.3,4.7,5.1,5.3c0.7,0.2,1.4,0.2,2.1,0.3c-0.4,0.9-0.8,1.7-1.4,2.5c-2.3,4.1-3.6,8.5-4.2,13.1c-0.3,2.8-0.3,5.5,0,8.3
		c0.3,2.5,0.8,4.9,1.5,7.2c1,3.1,2.5,5.8,4.1,8.6c-0.8,0.2-1.6,0.2-2.4,0.4c-1.6,0.4-2.9,1.2-3.8,2.6c-1.2,1.8-1.2,4-1.6,6.1
		c-0.1,0.4-0.2,0.8-0.7,1.1c-0.1-0.1-0.1-0.2-0.2-0.2c-1.3-1.4-1.1-3.4-0.4-5c1.2-2.6,6.7-7.3,3.2-10.3c-0.1,0.1-0.2,0.1-0.3,0.2
		c-1.6,1.1-3.1,2.5-4.4,4c-1,1.2-2,2.5-2.6,3.9c-0.7,1.5-0.6,3,0.3,4.4c2,3.1,4.3,6,6.8,8.6c4.2,4.3,9,7.7,14.4,10.3
		c7.6,3.6,15.7,5.3,24.2,4.9c2.3-0.1,4.7-0.4,7-0.8c4.5-0.9,8.8-2.3,12.9-4.3c5.7-2.8,10.6-6.5,14.9-11.1c2.3-2.4,4.3-5,6-7.8
		c0.6-1,0.9-2,0.6-3.1c-0.2-0.8-0.5-1.6-1-2.3c-1.4-2.3-3.2-4.3-5.3-6c-0.5-0.4-0.9-0.7-1.4-1.1c-1.2,0.9-1.6,2.7-0.8,4
		c1.3,2.2,3.1,4.1,4.2,6.4c0.4,1,0.6,1.9,0.4,3c-0.2,0.8-0.5,1.5-1.1,2.1c-0.3-0.2-0.6-0.6-0.6-1.2c-0.2-1.1-0.3-2.1-0.5-3.2
		c-0.3-1.6-0.9-3-2.1-4c-1.3-1.2-2.9-1.7-4.7-1.8c-0.1,0-0.3,0-0.5,0c0.4-2.8,3.2-6,4.1-8.8c0.9-3.1,1.6-6.3,1.7-9.5
		c0.1-2.4,0-4.9-0.4-7.3c-0.4-2.6-1-5.2-2.1-7.7c-0.9-2.3-2.2-4.4-3.3-6.6c0.8-0.1,1.5-0.2,2.2-0.4c2.6-0.7,4.3-2.3,4.9-4.9
		c0.3-1.1,0.4-2.3,0.6-3.5c0.1-0.6,0.2-1.1,0.7-1.5c0.1,0.1,0.2,0.2,0.3,0.3c1,1.4,1.1,2.9,0.5,4.4c-1,2.4-2.8,4.5-4.2,6.6
		C-158.1,404.4-157.3,406-156.3,407C-156.2,406.9-157.3,406-156.3,407z"/>
	<path class="st0" d="M-170.1,444c-1.1-0.3-1.9-1.7-1.4-2.7c0.6-1.3-0.2-4.3-0.3-5.7c0-0.3,0.1-0.7,0.1-1c0.1-0.5,0.4-0.9,0.9-1.1
		c0.3-0.1,0.6-0.3,0.8-0.4c0.9-0.4,1.2-1.1,1.3-2c0.2-2.3-1.2-3.5-2.4-5.2c-0.8-1.2-1-2.5-0.8-3.9c0.2-1,0.4-2.1,0.5-3.1
		c0.1-0.9-0.1-1.7-0.4-2.5c-0.5-1.1-1-2.3-1.5-3.5c-0.6-1.8-0.5-3.5-0.5-5.3c0-0.7-0.3-1.2-0.9-1.4c-0.1-0.1-0.3-0.1-0.4-0.2
		c-1.5-0.7-2.2-1.9-2-3.5c0.1-0.7-0.1-1.3-0.6-1.8c-1.6-1.5-3.4-2.6-4.8-4.3c-0.1-0.1-0.2-0.2-0.2-0.3c-0.2-0.3-0.1-0.5,0.3-0.5
		c2.2,0,4.3,0.4,6.1,1.8c0.3,0.2,0.5,0.5,0.7,0.7c0.3,1,0.8,2,1.4,2.9c1.2,0.7,2.5,1.3,3.7,1.9c0.4,0.2,0.8,0.6,0.8,1.1
		c0.1,1.6-0.6,3.3-0.5,4.9c0.1,1.3,0.1,2.7,0.2,4c0.1,1,0.6,1.8,1.4,2.4c0.7,0.5,1.3,1,2,1.6c0.3,0.3,0.5,0.6,0.7,1
		c0.2,0.5-0.8,1.9-0.6,2.5c0.4,2,1.8,3.6,2.4,5.5c0.4,1.3,0.3,2.5,0,3.8c-0.1,0.4-0.4,0.8-0.7,1c-0.4,0.3-0.8,0.6-1.2,0.9
		c-1.3,0.8-2.2,1.9-2.8,3.2c-0.5,1.2-1,2.3-1.1,3.6c0,1.8,0,3.5,0.1,5.3C-170,443.8-170.1,443.9-170.1,444
		C-171.1,443.7-170.1,443.9-170.1,444z"/>
	<path class="st0" d="M-196.1,395.9c-1.4,0.6-2.8,1.1-4.1,1.7c-1.5,0.6-2.5,1.7-3.1,3.2c-0.9,2.3-1.1,4.9-2.3,7.2
		c-0.5,1.1-1.3,1.9-2.5,2.4c-0.8,0.3-1.5,0.7-2.3,1c-1.6,0.7-2.5,2-2.8,3.7c-0.4,2.1-0.1,4,0.1,6.1c0,0.4-0.1,0.7-0.4,0.8
		c-0.4,0.2-0.9,0.5-1.3,0.6c-1.3,0.5-2.3,1.2-2.9,2.5c-0.4,0.8-0.9,2.5-1.8,3c0.2-2.8,0.9-5.4,0.8-8.2c0-1-1.1-0.2-1-1.1
		c0.1-0.9,0.5-1.6,1.1-2.3c0.7-0.8,1.4-1.5,1.9-2.5c1.1-2.5,1.9-5,3.1-7.4c0.9-1.9,2.3-3.2,4.1-4.2c1.8-1,3.8-1.8,5.5-3
		c0.3-0.2,0.6-0.5,0.7-0.9c1.2-2.8,4.8-2.8,7.3-2.7C-196.1,395.9-196.1,395.9-196.1,395.9C-196.4,396.1-196.1,395.9-196.1,395.9z"/>
	<path class="st0" d="M-204.3,397.7c-0.2-0.2-0.4-0.3-0.6-0.5c-1-1.1-2.3-1.4-3.7-1.2c-1.9,0.3-1.7,2.7-2,4.1
		c-0.1,0.5-0.4,0.9-0.8,1.2c-1.3,0.9-2.4,2-3.5,3.1c-1.5,1.6-2.5,3.7-4.1,5.1c-0.6,0.5-1.1,0.4-1.6-0.1c-0.1-0.1-0.2-0.3-0.3-0.4
		c-0.4-0.4-0.9-0.4-1.3,0c-1,1.1-1.2,3-1.8,4.4c0,0-0.1,0-0.1,0c0-0.2,0-0.4,0-0.7c0-2.2,0.3-4.3,1.2-6.4c1.3-2.9,3.5-5,6.4-6.1
		c0.4-0.2,0.9-0.3,1.3-0.5c0.9-0.4,1.2-1,1.1-2.2c0-0.3-0.1-0.7-0.2-1c-0.5-1.5,0.1-2.7,1.2-3.5c1.2-0.9,2.6-1.3,4-1.7
		c2.6-0.6,5.3-0.9,8-0.7c1.2,0.1,2,0.9,2.1,2.1c0,0.1-0.1,0.2-0.2,0.2c-2.4,0.4-3.9,1.9-4.8,4.1
		C-204.1,397.3-204.2,397.4-204.3,397.7C-204.2,397.6-204.3,397.6-204.3,397.7C-204.5,397.5-204.3,397.6-204.3,397.7z"/>
	<path class="st0" d="M-161.5,430.8c0.4-0.7,0.7-1.5,0.8-2.3c0-0.4-0.1-0.7-0.4-0.9c-0.3-0.2-0.6-0.5-0.9-0.7
		c-0.7-0.8-1-1.7-1.1-2.8c-0.2-1.9,0.2-3.7,0-5.6c-0.1-0.6-0.4-1-1-1.3c-1.1-0.5-2-1.3-2.7-2.2c-0.5-0.7-0.9-1.4-1-2.2
		c-0.1-0.7,0.2-1.3,0.7-1.8c0.2-0.2,0.4-0.4,0.7-0.6c0.6-0.5,0.7-1.2,0.3-1.9c-0.3-0.5-0.7-0.9-1.1-1.3c-1.1-1.2-0.6-3.2-1.7-4.6
		c-1.4-1.8-3.6-2.9-4.9-4.7c0,0,0-0.1,0-0.1c1.5,0.1,4-0.8,5.4-0.3c0.4,0.1,0.4,0.2,0.4,0.6c0,0.2-0.1,0.3-0.1,0.5
		c-0.2,0.6-0.1,1.2,0.4,1.7c1.5,1.5,3.7,1.8,5.1,3.4c0.9,1,1.4,2.3,1.1,3.7c-0.1,0.4-0.3,0.8-0.4,1.3c-0.2,1.6,0,3.1,0.8,4.6
		c0.2,0.3,0.4,0.6,0.7,0.9c0.7,0.7,1,1.5,1.2,2.4c0.3,1.4,0.1,2.6-0.4,3.9c-0.3,0.7-0.5,1.5-0.7,2.2c-0.6,2.2,0.9,4.2,0.3,6.4
		c-0.1,0.6-0.4,1.1-0.8,1.5C-161,430.7-161.2,430.8-161.5,430.8C-161.4,430.9-161.5,430.9-161.5,430.8
		C-161.4,430.6-161.5,430.9-161.5,430.8z"/>
	<path class="st0" d="M-212.4,422.6c-0.2-0.6-0.1-1.3,0-1.9c0.5-2.4,1.3-4.8,2.9-6.8c1-0.4,2.1-0.8,3.1-1.2c0.5-0.6,0.8-1.3,1-2
		c0.3-0.9,0.5-1.9,0.7-2.8c0-0.1,0.2-0.3,0.2-0.3c0.1,0,0.3,0.1,0.4,0.2c0.2,0.3,0.3,0.6,0.4,1c0.5,1.9,0.7,3.9,0.6,5.9
		c0,0.6-0.1,1.1-0.2,1.7c-0.1,0.5-0.3,1-0.7,1.3c-0.5,0.5-1,1.1-1.6,1.7c-1.4,1.4,0.2,5.3-0.3,6.9c-0.2,0.7-0.6,1.3-1.3,1.6
		c-0.9,0.4-1.8,0.9-2.7,1c-3.1,0.5,1.6-6.2-1.7-6.3C-211.9,422.6-212.2,422.6-212.4,422.6C-212.6,422-212.2,422.6-212.4,422.6z"/>
	<path class="st0" d="M-177.3,405.4c0.1,0.1,0.2,0.1,0.2,0.1c0.8,1.4,1.8,2.7,2.4,4.3c0.3,0.7,0.4,1.4,0.4,2.1c0,1.5-1.6,1.3-1,3.1
		c0.4,1.2,1.3,2.4,2.1,3.3c0.8,0.9,0.9,2,0.8,3.2c-0.1,1.2-0.3,2.5-0.4,3.7c-0.2,2.6,2.3,2.1,2.4,3.9c0.2,3-2.8,3.9-3.1,6.7
		c0,0.9-0.1,1.7-0.2,2.6c-0.2-0.2-0.3-0.3-0.4-0.5c-1.2-2.5-2.3-5.1-2.8-7.8c-0.3-1.4-0.4-2.7-0.1-4.1c0.1-0.4,0.3-0.8,0.5-1.1
		c0.2-0.4,0.4-0.7,0.7-1c2-2.7-1.8-5.1-2.3-7.7c-0.2-1,0-1.8,0.7-2.6c0.3-0.4,0.6-0.7,1-1c0.7-0.6,0.9-1.2,0.6-2.1
		C-176.4,409.1-177.3,407.1-177.3,405.4C-177.2,405.5-177.3,405.6-177.3,405.4z"/>
	<path class="st0" d="M-202.9,417.8c0.2,1.1,0.6,2.2,1.2,3.1c0.6,0.8,2.2,2.3,2.4,3.2c0.4,1.6-1.6,2.8-1.4,4.7
		c0.2,1.9,0.9,3.5,2.1,4.9c0.6,0.8,0.8,1.4,0.2,2.3c-0.9,1.3-2.1,2.4-3,3.6c-0.5,1.1-0.7,2.3-0.6,3.5c-0.4,1.3-1.3,2.2-2.4,3
		c-0.1,0.1-0.3,0.1-0.5,0.2c0,0-0.1,0-0.1-0.1c0.3-1.9,1-3.6,1.3-5.6c0.3-2.5-1.3-5.7-0.4-8c0.4-0.9,0.7-1.7,1.1-2.6
		c0.3-0.7,0.3-0.9-0.3-1.3c-1.2-0.9-1.6-2.2-1.6-3.6c0-2.4,0.6-4.7,1.6-6.9C-203.1,418.1-203,418-202.9,417.8
		C-202.9,417.8-202.9,417.8-202.9,417.8C-202.9,417.9-202.9,417.8-202.9,417.8z"/>
	<path class="st0" d="M-178.3,417.6c0.2,0.3,0.3,0.5,0.4,0.7c0.6,1.4,0.9,2.8,0.8,4.4c-0.2,1.8-2,2.8-2.2,4.9
		c-0.3,2.8,0.5,5.6,0.9,8.4c0.1,1,0,1.9-0.6,2.7c-1.2,1.5-2.7,2.7-4.6,3.4c-0.5,0.1-0.9,0.2-1.4,0.2c0.1-0.1,0.1-0.2,0.2-0.3
		c0.2-0.2,0.5-0.5,0.7-0.7c1-1,1.6-2.2,1.5-3.7c-0.2-1.5-1.1-2.7-1.3-4.2c-0.1-0.8,0.1-1.6,0.7-2.2c0.4-0.3,0.8-0.6,1.1-1
		c0.9-0.8,1-1.6,0.4-2.6c-0.3-0.4-0.5-0.8-0.8-1.2c-0.7-1.4,0.4-2.6,1.4-3.4c1.4-1.3,2.3-2.9,2.8-4.7
		C-178.4,418-178.4,417.9-178.3,417.6C-178.1,417.9-178.4,417.9-178.3,417.6z"/>
	<path class="st0" d="M-205.6,427c0.4,1.1,1.5,4.3,0.5,5.5c-0.8,0.9-1.6,1.8-2.5,2.5c-0.8,0.8-0.9,1.8-0.5,2.8
		c0.7,1,1.3,2.1,1.8,3.3c0.3,1.4,0,2.7-0.7,3.9c-0.4,0.8-0.9,1.5-1.6,2.1c-0.6,0.5-0.6,1.2-0.5,2c0,0.3,0,0.6,0.1,0.9
		c0,0-0.1,0-0.1,0c-0.1-0.2-0.2-0.4-0.3-0.6c-0.7-2.5-1.4-4.9-1.5-7.5c0-0.3,0.1-0.4,0.3-0.5c0.8-0.4,0.9-0.7,0.4-1.4
		c-0.2-0.3-0.5-0.7-0.7-1c-1.7-1.9-2.1-4-1.3-6.4c0.4-1,1-1.4,1.9-1.3c0.3,0,0.6,0,0.9,0.1c1.5,0.2,2.5-0.3,3-1.8
		C-206.2,428.7-206,427.8-205.6,427C-205.6,427.1-205.7,427.1-205.6,427z"/>
	<path class="st0" d="M-170.8,396.4c-0.6-0.3-1.2-0.7-1.8-1.1c-0.5-0.3-1-0.2-1.5,0.1c-0.3,0.2-0.7,0.4-1,0.5
		c-0.7,0.2-1.3-0.1-1.9-0.4c-0.6-0.4-1.2-0.7-1.9-1c-1.1-0.4-2.2-0.6-3.3-0.5c-0.6,0-1.1,0.2-1.6,0.6c-0.2,0.1-0.3,0.3-0.5,0.4
		c-0.5,0.3-0.9,0.3-1.4,0c-0.3-0.2-0.5-0.5-0.8-0.7c-0.3-0.2-0.6-0.3-0.8-0.3c-0.4,0-0.8,0.1-1,0.5c-0.4,0.7-0.8,1.3-1.7,1.1
		c-0.6-0.1-1.1-0.4-1.6-0.8c-0.6-0.6-0.6-1.8,0.2-2.3c1.1-0.6,2.1-1.3,3.2-2c1.7-1,4.8-0.1,6.8-1.1c0.4-0.2,0.8-0.3,1.2-0.4
		c0.4-0.1,0.5,0.1,0.5,0.4c-0.2,0.5-0.3,1.1-0.5,1.6c-0.4,1.7,4.5,0.7,4.8,0.7c0.8,0,1.5,0.3,2,0.9c1,1.1,1.8,2.3,2.5,3.6
		C-170.8,396.2-170.8,396.2-170.8,396.4C-171,396.2-170.8,396.2-170.8,396.4z"/>
	<path class="st0" d="M-221.1,436.3c0.1-0.7,0.2-1.5,0.3-2.2c0-0.2,0.1-0.4,0.2-0.5c0.2-0.4,0.4-0.5,0.8-0.3c0.1,0,0.1,0.1,0.2,0.1
		c0.6,0.3,0.9,0.3,1.2-0.3c0.9-2.2,1.1-4.5,2.2-6.5c0.2-0.5,0.6-0.9,0.9-1.3c0.3-0.3,0.6-0.5,1.1-0.6c0.2,0,0.4,0.1,0.5,0.1
		c-0.4,1.3-1.4,2.2-1.8,3.6c-0.8,3,1.4,1.3,1.3,3.6c0,0.9-0.1,1.9-0.1,2.8c0,0.1,0,0.2-0.1,0.3c-0.1,0.2-0.2,0.3-0.5,0.2
		c-0.5-0.2-0.9,0-1.2,0.3c-1.4,1.5-2.4,3.3-3.8,4.8c-0.2,0.2-0.3,0.1-0.5-0.1c-0.5-0.9-0.7-1.8-0.8-2.7
		C-221,437.3-221,436.8-221.1,436.3C-221.1,436.4-221.1,436.4-221.1,436.3C-221,435.6-221.1,436.4-221.1,436.3z"/>
	<path class="st0" d="M-182.4,381.5c0.4,0.2,0.3,0.9,0.9,0.7c0.2-1.1,0.4-2.1,0.6-3.2c0.1-0.6-0.8-2.7-0.9-3.2
		c-0.1-0.3,0-0.5,0.2-0.6c0.2-0.1,0.3-0.1,0.5-0.2c1-0.1,1.9-0.1,2.8,0.4c0.7,0.4,1.4,0.7,2.1,1.1c0.8,0.5,1.4,1.1,1.4,2.1
		c0,0.2,0,0.5-0.1,0.6c-0.4,0.8-1,1.4-2,1.6c0.6,0.9,1.7,1.9,1,3.2c-0.3,0.7-0.9,0.7-1.5,0.9c-0.9,0.2-1.8-0.1-2.7-0.2
		c-0.7-0.1-1.3-0.5-1.9-0.8c-0.4-0.2-0.6-0.6-0.6-1.1c0-0.3,0-0.7,0-1C-182.5,381.8-182.4,381.7-182.4,381.5
		C-182,381.8-182.4,381.7-182.4,381.5z M-178.4,376.5c-0.2,0.8-0.5,1.5-0.7,2.3c-0.1,0.3-0.1,0.5-0.1,0.8c-0.1,0.6,2.3-0.6,2.3-0.6
		c0.4-0.2,0.8-0.5,0.8-0.9c0-0.5-0.5-0.8-0.9-1C-177.5,376.9-177.9,376.8-178.4,376.5C-178.6,377.3-177.9,376.8-178.4,376.5z
		 M-179.3,381.1c-0.2,0.5-0.4,1-0.6,1.5c0.3,0.7,0.8,0.8,1.7,0.5c0.2,0,0.4-0.1,0.6-0.1c0.4-0.1,0.5-0.5,0.3-0.9
		c-0.2-0.4-0.6-0.7-1-0.9C-178.7,381-179.1,381.2-179.3,381.1C-179.6,381.7-179.1,381.2-179.3,381.1z M-179.2,376.3
		c-0.4,0-0.8,0-1.2,0c-0.2,0-0.3,0.1-0.3,0.3c-0.2,0.7-0.2,1.4,0.2,1.9c0.1-0.3,0.1-0.5,0.1-0.8
		C-180.1,377.3-179.7,376.8-179.2,376.3C-179.7,376.3-179.3,376.7-179.2,376.3z"/>
	<path class="st0" d="M-188.9,463.6c-0.1,0.9-0.1,1.9-0.1,2.8c0.1,0.8-0.1,1.6-0.8,2.2c-0.1,0.1-0.3,0.1-0.5,0.1
		c-0.1,0-0.1-0.2-0.1-0.3c0-1.9,0-3.8,0.1-5.6c0-0.3-0.1-0.7-0.4-0.8c0,0,0,0,0,0c-0.4-0.2-1.1-1.5-0.9-1.9c0.1-0.2,0.4-0.4,0.6-0.6
		c0,0,0.2,0.1,0.3,0.2c1.5,1.6,3,3.3,4.6,4.8c1.2-1.4,0.3-4.4,1.7-5.8c0.1-0.1,0.2-0.1,0.3-0.1c0.2,0.2,0.4,0.3,0.6,0.5
		c0.1,0,0.2,0,0.3,0.1c0.3,0.2,0.5,0.4,0.8,0.6c1,0.7,1.2,6,1.6,7.4c0,0.1,0.1,0.2,0.2,0.3c0.1,0.2,0.1,0.3-0.1,0.3
		c-0.3,0-0.6,0-0.9,0c-0.4-0.1-0.7-0.3-0.8-0.7c-0.4-2.2-0.8-4.4-1.2-6.7c0-0.2-0.1-0.3-0.2-0.5c0,0,0,0-0.1,0
		c-0.3,2.5-0.7,5.1-1.7,7.4c-0.1,0.2-0.3,0.3-0.5,0.2c-0.2-0.1-0.5-0.3-0.7-0.4c-0.4-0.3-0.1-1.5-0.8-2
		C-187.9,464.6-188.4,464.1-188.9,463.6C-189,464-188.4,464.1-188.9,463.6z"/>
	<path class="st0" d="M-178.5,451.4c0.7-0.5,1.4-1.2,2-1.9c0.2-0.4,0.4-0.9,0.4-1.4c0-0.9-1.3-1-1.4-2c-0.2-1.4-0.3-2.9,0-4.3
		c0.3-1.2,0.6-2.4,1-3.5c0.1-0.3,0.3-0.6,0.4-0.9c0,0,0.1,0,0.1,0c0.6,1.6,0.9,3.2,1.7,4.8c0.4,0.7,0.8,1.4,1.6,1.8
		c0.5,0.3,0.6,0.8,0.1,1.2c-0.2,0.2-0.4,0.4-0.6,0.5c-0.8,0.5-0.9,0.9-0.7,1.9c0.1,0.3,0.2,0.7,0.2,1c0.1,0.6,0,1.2-0.6,1.5
		c-1.1,0.6-2.3,1-3.5,1.3C-178.1,451.5-178.3,451.5-178.5,451.4C-178.5,451.5-178.5,451.5-178.5,451.4
		C-178.3,451.3-178.5,451.5-178.5,451.4z"/>
	<path class="st0" d="M-165.5,442.6c0-0.2,0-0.4,0.1-0.5c0.2-0.5,0.4-1,0.5-1.5c0.2-0.6,0.5-1.3,0.3-2c0-0.2-0.1-0.2-0.3-0.2
		c-0.7,0.2-1.2,0.5-1.4,1.1c-0.4,1.1-0.8,4.9-2.2,5.3c0.5-3,0.3-6.2,1-9.2c0.3-1,0.7-2,1.6-2.7c0.3-0.2,0.6-0.4,1.1-0.5
		c-0.3,0.7-0.6,1.4-1.1,2c-0.4,0.6-0.7,1.3-0.7,2c0,0.1,0,0.1,0,0.2c0.5-0.2,0.9-0.5,1.2-0.9c0.8-1,1.6-2,2.5-2.9
		c0.4-0.5,0.8-0.5,1.2,0c0,0.4,0,0.8,0,1.3c-0.2,1.8-0.9,3.5-1.8,5.1c-0.4,0.8-0.9,1.6-1.4,2.4
		C-164.9,442.1-165.1,442.4-165.5,442.6C-165.5,442.3-165.1,442.4-165.5,442.6z"/>
	<path class="st0" d="M-224.2,451.3c0.1,0.4,0.1,0.7,0.2,0.9c0,0.1,0.1,0.1,0.3,0.2c0-0.2,0-0.3,0.1-0.5c0.6-0.6,1.1-1.1,1.5-1.8
		c0.4-0.4,0.4-0.4,1.1-0.7c-0.1-0.2-0.4-0.5-0.7-0.5c-1.3-0.1-1.2,0.5-1.9,1.7c0,0,0,0.1-0.1,0.1c0.2-0.8,0.4-1.5,0.7-2.3
		c0.2-0.4,0.5-0.5,0.9-0.6c0.8-0.1,1.4,0.3,2.1,0.7c0.8,0.6,1.6,1.4,2.1,2.3c0.4,0.9,0.5,1.8,0.4,2.7c-0.1,0.3-0.2,0.7-0.4,0.9
		c-0.3,0.3-0.6,0.6-1,0.9c-0.9,0.7-2,0.6-3,0.3c-0.6-0.7-1.3-1-2.1-1c-0.3,0.5-0.6,1.1-0.9,1.6c-0.3,0.4-1.4-1-1-1.5
		c0.2-0.3,0.5-0.6,0.8-0.8c0.1-0.7,0.2-1.4,0.3-2.1C-224.7,451.7-224.5,451.5-224.2,451.3C-224.1,451.6-224.5,451.5-224.2,451.3z
		 M-220.4,454.3c0.9,0,1,0,1.1-0.7c0.3-1,0.1-1.9-0.4-2.8c-0.3-0.6-0.4-0.6-0.8-0.1c-0.8,0.8-1.6,1.7-2.3,2.6
		c0.2,0.1,0.4,0.3,0.6,0.3C-221.5,453.9-220.9,454.3-220.4,454.3C-219.5,454.3-220.9,454.3-220.4,454.3z"/>
	<path class="st0" d="M-193.7,395c-0.8,0.1-1.5,0.1-2.1,0.1c-0.6,0-0.9-0.4-0.9-1.2c-0.1-0.7-0.1-1.5-0.2-2.2c0-0.2-0.1-0.5-0.2-0.7
		c-0.3-0.9-0.9-1.4-1.9-1.4c-0.9,0.1-1.8,0.2-2.7,0.2c0,0,0-0.1,0-0.1c0.2-0.1,0.4-0.3,0.6-0.4c1.8-0.7,3.7-1.2,5.6-1.4
		c1.1-0.1,2.3-0.1,3.4,0.3c1.9,0.7,0.9,2.2-0.4,3.2c-0.6,0.4-1.1,0.8-1.7,1.3c-0.5,0.4-0.5,0.8-0.2,1.3
		C-194.1,394.2-193.9,394.6-193.7,395C-194.5,395-193.9,394.7-193.7,395z"/>
	<path class="st0" d="M-186.3,423c-1.1,2-2.7,3.2-5.1,3.1c-1.9-0.1-3.3-1.1-4.2-2.7c0.8-0.6,1.7-1.2,2.5-1.8c0.7-0.4,4.3-0.4,4.8,0
		C-187.5,422-186.9,422.6-186.3,423C-187.4,425.1-186.9,422.6-186.3,423z"/>
	<path class="st0" d="M-211.4,449.9c-0.8-0.2-1.5-0.9-1.9-1.6c-0.9-1.6-0.9-3.3-1.4-5c-0.5,0.8-1.2,1.1-2,0.8
		c-0.7-0.2-1.2-0.7-1.3-1.6c0.1,0.1,0.2,0.2,0.3,0.3c0.2,0.3,0.5,0.3,0.7,0c0.2-0.3,0.4-0.6,0.5-0.9c0.5-1.1,0.8-2.6,1.5-3.6
		c0.4-0.5,0.8-0.5,1.1,0c0.4,0.5,0.6,1.1,0.7,1.8c0.5,3.2,1,6.3,1.7,9.5C-211.4,449.8-211.4,449.9-211.4,449.9
		C-211.5,449.9-211.4,449.9-211.4,449.9z"/>
	<path class="st0" d="M-222.4,435.5c-1-1.7-1.5-3.6-1.7-5.5c-0.3-2.9,0.3-5.6,1.9-8.1c0,0.7,0,1.3,0.1,2c0.2,0.8,1.2-0.8,1.3-0.9
		c0,0.1,0,0.1,0,0.2c0,2,0.1,4.1-0.2,6.1c0,0.3-0.1,0.6-0.2,0.9c-0.1,0.4-0.3,0.4-0.6,0.1c-0.2-0.4-0.4-0.7-0.8-0.9
		c-0.1,0.1-0.2,0.3-0.2,0.4c0,2,0.2,3.7,0.5,5.6c0,0,0,0,0,0.1C-222.3,435.5-222.4,435.5-222.4,435.5
		C-223.4,433.8-222.4,435.5-222.4,435.5z"/>
	<path class="st0" d="M-225.3,426c-0.1-0.2-0.2-0.4-0.2-0.6c-0.2-2.8-0.2-5.4,0.2-8.1c0.1-1,1.7-2.2,2.5-2.8
		c0.2,0.8-0.5,1.6-0.4,2.4c0.4-0.1,0.7-0.4,1-0.7c0.8-1,1.6-2.2,2.5-3.1c0,0,0.1,0,0.1,0.1c-0.1,0.4-0.2,0.9-0.4,1.3
		c-1.3,2.5-3.2,4.8-4.1,7.5c-0.4,1.3-0.6,2.6-1,3.9C-225.3,426-225.3,426-225.3,426C-225.4,425.8-225.3,426-225.3,426z"/>
	<path class="st0" d="M-173.1,457.4c-0.8,0.4-0.8,0.4-1,0.1c0.7-0.4,1.5-0.2,2,0.4c0.3,0.5,0.7,1,1.2,1.5c0.1-0.9-0.1-1.9-0.1-2.8
		c0-0.8,0.3-1,1-1.1c0.1,0,0.3,0.1,0.4,0.2c0.4,0.4,0.7,0.9,1,1.3c0,0,0.1,0,0.1,0c0.3-0.6,0.5-1.2,0.6-1.9c0.2-0.4,0.6-0.7,1-0.8
		c0.7-0.2,2.4,2.5,2.7,2.9c0.3,0.5,0.2,0.9-0.3,1.4c-0.2,0.3-0.7,0.2-0.9-0.1c-0.5-0.8-1-1.5-1.6-2.3c0-0.1-0.1-0.1-0.2-0.1
		c-0.4,0.8-0.4,2.4-0.5,3.1c0,0.4-0.3,0.6-0.7,0.4c-0.5-0.3-0.9-0.7-1.1-1.3c-0.1-0.3-0.3-0.5-0.6-0.6c-0.1,0-0.1,0.2-0.2,0.3
		c-0.2,0.9,0,1.7,0.1,2.6c0.1,0.3,0.2,0.6,0.2,0.9c0.1,0.3-0.1,0.4-0.4,0.4c-0.4-0.1-0.7-0.3-0.9-0.7
		C-171.7,459.8-172.4,458.6-173.1,457.4C-173.9,457.8-172.4,458.6-173.1,457.4z"/>
	<path class="st0" d="M-206.2,458.7c0.2-0.2,0.5-0.3,0.7-0.5c0.2,0.2,0.4,0.4,0.5,0.6c0.1,0.1,0.1,0.3,0.1,0.5
		c-0.3,0.7-0.6,1.4-1,2.1c-0.2,0.6-0.3,1.3-0.4,2c0.1,0,0.2,0,0.2,0c0.4-0.3,0.7-0.6,1.1-0.9c0.1-0.1,0.2-0.1,0.3-0.1
		c0.5,0,1,0,1.4,0.2c0.3,0.1,0.4,0.6,0.3,1c-0.1,0.6-0.1,1.2-0.2,1.8c-0.2,0.7-0.4,1.4-0.6,2.2c0,0.1-0.1,0.2-0.2,0.2
		c-1.7,0.1-0.6-3-0.6-3.6c0-0.3-0.1-0.4-0.4-0.4c-0.7-0.1-1.2,0.2-1.6,0.6c-0.3,0.8-0.6,1.6-0.8,2.4c-0.2,0.4-1.3-0.2-1.3-0.7
		c0-0.1,0.1-0.2,0.2-0.4c0.6-2.1,1.2-4.2,1.5-6.3C-206.9,458.6-206.6,458.4-206.2,458.7C-206,458.5-206.6,458.4-206.2,458.7z"/>
	<path class="st0" d="M-182.7,449.4c-0.4,0.1-0.8,0.2-1.2,0.3c-1.9,0.5-3.7,1.3-5.2,2.5c-0.5,0.5-3.4,4.5-3.4,4.5
		c-0.1-0.2-0.2-0.4-0.3-0.5c-1.3-2.7-3.3-4.5-6.1-5.4c-1-0.3-2.1-0.6-3.1-0.8c-0.1,0-0.2,0-0.3-0.1c0.2,0,0.4-0.1,0.6-0.1
		c1.1,0.1,2.3,0.3,3.4,0.5c1.8,0.3,3.7,1.7,5.1,2.8c1.1,0.4,2,0.1,2.7-0.8c1.5-1.3,3.2-2.3,5.1-2.7c0.8-0.2,1.7-0.2,2.5-0.3
		C-182.9,449.3-182.8,449.3-182.7,449.4C-182.7,449.4-182.7,449.4-182.7,449.4C-183.1,449.6-182.7,449.4-182.7,449.4z"/>
	<path class="st0" d="M-180.5,406.4c-0.4-0.1-0.7-0.1-1.1-0.2c-1.1-0.5-2.2-0.4-3.3-0.1c-1.3,0.4-2.6,0.9-3.6,1.9
		c-0.6,0.6-0.9,1.4-0.9,2.2c0,1.9,0.4,3.7,1.3,5.4c0.1,0.2,0.2,0.4,0.3,0.7c0.4,1.1-0.3,2.1-1.4,2c-1,0-1.4,1.1-2.3,0.4
		c-0.3-0.3-0.7-0.4-1.1-0.3c-0.2,0-0.4,0-0.6,0c-0.3,0-0.4-0.2-0.5-0.4c-0.1-0.2,0.1-0.4,0.3-0.4c0.3-0.1,0.7-0.1,1-0.1
		c0.4,0,0.8,0.2,1.2,0.2c1,0.1,1.6-0.4,1.6-1.5c0-0.7-0.1-1.5-0.2-2.2c-0.2-1.7-0.1-3.4,0.4-5c0.3-1,0.9-1.7,1.7-2.3
		c1.4-1,3-1.8,4.8-1.6c1,0.1,1.8,0.4,2.4,1.2c0,0,0.1,0.1,0.1,0.1C-180.5,406.3-180.5,406.3-180.5,406.4
		C-180.9,406.3-180.5,406.3-180.5,406.4z"/>
	<path class="st0" d="M-219.3,385.5c1.5-0.6,3-1.2,4.6-1.7c1.4-0.5,1.7,0.2,2.3,1c0.3,0.4,0.4,0.9,0.4,1.4c-0.1,0.7-0.4,1.4-0.9,1.9
		c-0.2,0.3-5.3,4.5-5,1.1c0.1-0.8,0.6-1.7,1.2-2c-0.1,0.3-0.2,0.7-0.2,1.1c0,0.4,0.1,0.7,0.1,1.1c0.2-0.1,0.2-0.1,0.3-0.1
		c1.5-1,2.8-2.3,3.3-4.2c0.1-0.4,0.1-0.5-0.3-0.4c-1.7,0.3-3.2,1.9-5,1.5C-218.9,386.2-219.2,386-219.3,385.5
		C-218.2,385.2-219.2,386-219.3,385.5z"/>
	<path class="st0" d="M-179.6,414.5c0.6-1.1,1-2.3,1.2-3.6c0-0.3-0.1-0.7-0.1-1c-0.5-0.4-0.9-0.7-1.4-1c-0.2-0.5-0.2-1.1,0-1.6
		c0.2-0.8,0.5-1.6,0.7-2.4c0.2-1.2,0.2-2.5,0.4-3.7c0-0.1,0.1-0.2,0.2-0.3c0.7,0.7,1,2.3,1,3.1c0,0.3-0.1,0.7-0.2,1
		c-0.3,0.8-0.3,1.5,0.1,2.3c0.3,0.7,0.5,1.3,0.8,2c0.6,1.3,0.4,2.4-0.5,3.5c-0.5,0.6-1,1.1-1.6,1.6
		C-179.3,414.4-179.4,414.5-179.6,414.5C-179.6,414.6-179.6,414.6-179.6,414.5C-179.4,414.1-179.6,414.6-179.6,414.5z"/>
	<path class="st0" d="M-195.7,466.6c0,0.2-0.1,0.3-0.1,0.4c-0.2,0.3-0.5,0.7-0.7,1c-0.2,0.3-0.6,0.1-0.9,0.1
		c-0.3-0.1-0.3-0.3-0.3-0.5c-0.1-0.8,0-1.6,0.1-2.3c-0.3,0.3-0.6,0.6-1,0.9c-0.7,0.6-1.4,0.8-2.3,0.8c-0.7-0.1-1-0.4-1.3-0.9
		c-0.1-0.2-0.1-0.5,0-0.8c0.1-0.4,0.2-0.8,0.5-1c0.9-1,1.9-1.8,3.2-2c0.3-0.1,0.6-0.1,0.8,0c0.2,0.2,0.4,0.5,0.7,0.6
		c0.3,0.2,0.5,0.5,0.9,0.4c0.2,0,0.3,0.1,0.3,0.3c-0.1,0.9-0.1,1.8-0.2,2.7c0,0.2,0.2,0.3,0.2,0.5
		C-195.8,466.7-195.8,466.7-195.7,466.6C-195.8,466.8-195.8,466.7-195.7,466.6z M-200.7,466.3c0.1,0,0.1,0,0.2,0
		c1.2-0.2,2.4-0.5,3.1-1.6c0.3-0.4,0.3-0.9,0.4-1.3c-0.2,0-0.3,0-0.4,0c-0.6,0.2-1.3,0.5-1.8,0.9c-0.4,0.3-0.8,0.7-1.2,1.1
		C-200.7,465.7-200.8,466-200.7,466.3C-200.7,466.3-200.8,466-200.7,466.3z"/>
	<path class="st0" d="M-188.5,380.7c0,0.7-0.3,1.2-0.6,1.7c-0.1,0.1-0.6,0.2-0.8,0.1c-0.2-0.1-0.4-0.2-0.4-0.5c0-0.8,0-1.5,0-2.3
		c-0.5,0.5-1,1-1.5,1.6c-0.6,0.6-1.4,0.8-2.3,0.7c-0.4,0-0.8-0.6-0.9-1c-0.1-1.1,0.5-1.9,1.2-2.6c0.7-0.6,1.4-1.1,2.3-1.3
		c0.5-0.1,1-0.1,1.4,0.3c0.3,0.2,0.6,0.3,0.9,0.4c0.1,0,0.2,0.1,0.2,0.2C-188.7,378.1-189.3,380.7-188.5,380.7
		C-188.5,381.4-188.8,380.7-188.5,380.7z M-190,377.8c-0.4-0.2-0.8,0-1.2,0.4c-0.6,0.5-1.2,1.1-1.8,1.6c-0.3,0.3-0.4,0.7-0.3,1.1
		c0.7,0,1.3-0.2,1.9-0.6c0.3-0.1,0.7-0.3,0.8-0.6C-190.2,379.1-189.9,378.5-190,377.8C-190,377.8-189.9,378.5-190,377.8z"/>
	<path class="st0" d="M-175,459.2c0.3,0.5,0.6,1.1,0.7,1.7c0.1,0.4,0.2,0.8,0.7,0.8c0.1,0,0.1,0.1,0.1,0.2c0,0.6,0,1.3-0.1,1.9
		c0,0.3-0.4,0.3-0.6,0.4c-0.2,0-0.4,0-0.5-0.3c-0.5-1.2-0.4-1.5-1-2.1c-0.1,0.1-0.1,0.1-0.2,0.2c-0.2,1.1-0.8,2-1.7,2.7
		c-0.9,0.5-2,0-2.1-1.2c0-0.5,0-0.9,0.2-1.4c0.4-0.8,0.7-1.7,1.4-2.4c0.3-0.2,0.6-0.5,0.9-0.5c0.3-0.1,0.7,0,1,0
		c0.2,0,0.4,0.1,0.5,0.1C-175.5,459.4-175.3,459.3-175,459.2C-174.9,459.4-175.3,459.3-175,459.2z M-176,459.9
		c-0.5,0-0.6,0.3-0.8,0.6c-0.6,0.8-1.1,1.7-1.5,2.7c-0.1,0.1,0,0.3,0,0.4c0.1,0.3,0.2,0.4,0.5,0.2c0.6-0.3,1-0.9,1.4-1.4
		c0.3-0.4,0.5-0.8,0.4-1.3C-175.9,460.6-175.9,460.2-176,459.9C-176.4,459.9-175.9,460.1-176,459.9z"/>
	<path class="st0" d="M-204.6,384.8c-0.4,0.1-0.7,0.2-1.1,0.3c-0.8-0.1-1.2-0.6-1.3-1.3c-0.1-0.1-0.2-0.3-0.3-0.4
		c-0.3,0.8-0.7,1.6-1.2,2.4c-0.5,0.4-1.1,0.3-1.6-0.2c-1-0.7-1.7-3.3-2.3-4.2c0.5-0.4,1.8,0.3,2,0.7c0.3,0.7,0.6,1.5,1,2.2
		c0,0.1,0.1,0.1,0.2,0.2c0.1-0.1,0.1-0.1,0.2-0.2c0.3-0.7,0.5-1.4,0.8-2.1c0.2-0.4,0.3-0.9,0.2-1.4c-0.1-0.8,0.7-0.7,1.3-0.7
		c0.3,1.1,0.3,1.7,0.9,2.8C-205.5,383.4-205.1,384.1-204.6,384.8C-204.9,384.9-204.8,384.6-204.6,384.8z"/>
	<path class="st0" d="M-163.1,449.5c0,0,0,0.1,0,0.1c0.3,0,0.6,0,0.9-0.1c0.2-0.1,0.5-0.2,0.6-0.3c0.2-0.2,0.4-0.2,0.5,0
		c0.5,0.6,1,1.2,1.5,1.8c0.2,0.2,0.3,0.2,0.5-0.1c0.4,0.6,0.6,1.2,0.6,1.8c0,0.4-0.7,0.7-1,0.5c-0.4-0.3-0.8-0.7-1.2-1.1
		c-0.1-0.1-0.1-0.2-0.1-0.2c0,0-0.1,0.1-0.1,0.1c0,0.1,0,0.2,0,0.3c0.1,0.8,0,1.5-0.3,2.3c-0.2,0.3-0.4,0.7-0.7,0.9
		c-0.4,0.3-1.1,0.2-1.5-0.1c-0.2-0.2-0.3-0.3-0.4-0.5c-0.2-0.3-0.4-0.6-0.4-1c-0.1-0.8-0.1-1.7,0-2.5
		C-164,450.7-163.8,450-163.1,449.5C-163.1,449.6-163.8,450-163.1,449.5z M-162.3,454.6c0.7-0.8,1.1-1.8,1-2.8
		c-0.1-0.6-0.2-1.3-0.6-2c-0.2,0.2-0.3,0.3-0.4,0.4c-0.3,0.7-0.5,1.3-0.5,2.1c0,0.4,0,0.8,0,1.2C-162.9,454-162.7,454.4-162.3,454.6
		C-161.7,453.8-162.7,454.4-162.3,454.6z"/>
	<path class="st0" d="M-215.7,461.2c0.2,0.1,0.3,0.2,0.4,0.3c-0.3,0.2-0.6,0.5-0.8,0.7c-0.3,0.3-0.6,0.4-1,0.3
		c-1.3-0.4,0.5-2.2,0.7-2.8c-0.1,0-0.1,0-0.2,0c-0.5,0.1-1,0.3-1.5,0.4c-0.6,0.1-1.1,0-1.7-0.2c-0.8-0.4-0.9-1.5-0.5-2.1
		c0.3-0.4,0.7-0.8,1.2-1c0.6-0.2,1.3-0.3,2-0.5c0.8-0.2,1.4,0.1,2.1,0.3c0.2,0.1,0.3,1.1,0.3,1.2c0.1,0.2,0.2,0.4,0.4,0.5
		c0.2,0.1,0.2,0.3,0.1,0.4C-214.7,459.6-215.1,460.4-215.7,461.2C-215.5,461.3-215.5,461-215.7,461.2z M-214.9,458
		c-0.2-0.1-0.4-0.2-0.6-0.2c-1,0-2,0.1-2.9,0.4c-0.3,0.1-0.5,0.2-0.7,0.4c-0.3,0.4-0.3,0.5,0.1,0.6c0.1,0,0.1,0.1,0.2,0.1
		c1.3,0.4,2.6,0.3,3.5-0.8C-215.1,458.3-215,458.2-214.9,458C-215.1,457.9-215,458.2-214.9,458z"/>
	<path class="st0" d="M-170.2,387.6c0.1,0.1,0.2,0.1,0.4,0.2c-0.4,0.4-0.8,0.8-1.3,1.1c-0.3,0.2-0.4,0.2-0.7,0
		c-0.3-0.2-0.3-0.4-0.2-0.8c0.3-0.6,0.6-1.2,1-1.7c0-0.1,0.1-0.2,0.1-0.2c-0.5,0-0.9,0.2-1.4,0.4c-0.7,0.2-1.4,0.2-2-0.1
		c-0.8-0.3-1.1-1.3-0.7-2c0.3-0.5,0.8-1,1.4-1.1c1.9-0.5,2.1-0.6,3.6-0.2c-0.1,0,1.3,1.4,1.3,1.7c-0.1,0.3-0.1,0.5-0.3,0.8
		C-169.4,386.3-169.8,386.9-170.2,387.6C-170,387.7-170.1,387.4-170.2,387.6z M-169.4,384.4c-1.2-0.5-3.6-0.3-4.6,0.7
		c0.2,1.1,1.1,1.3,2.7,0.6C-170.6,385.6-169.8,384.8-169.4,384.4C-169.6,384.4-169.6,384.6-169.4,384.4z"/>
	<path class="st0" d="M-208.5,462.8c-0.1,0.5-0.3,0.8-0.7,1.1c-0.8,0.5-1.7,0.6-2.6,0.3c-0.5-0.2-1.1-0.3-1.5-0.8
		c-0.4-0.5-0.7-1-0.4-1.7c0.1-0.3,0.1-0.6,0.3-0.9c0.6-1.4,2-1.9,3.4-1.5c0.2,0,0.3,0.1,0.5,0.1c0,0.1,0,0.2,0.1,0.3
		c0.7-0.1,0.7-0.1,1,0.6c0.2,0.4,0.3,0.9,0.3,1.4c0,0.3-0.2,0.5-0.5,0.6c-0.1,0-0.2-0.2-0.3-0.3c-0.1-0.2-0.1-0.5-0.2-0.7
		c0-0.3-0.2-0.4-0.4-0.4c-1-0.1-2,0-2.9,0.5c-1.4,0.9,2.1,1.3,1.7,1.3C-210.1,462.8-209.3,462.8-208.5,462.8
		C-208.6,463.2-209.3,462.8-208.5,462.8z"/>
	<path class="st0" d="M-201,383.6c-1.2,0.4-2,0.1-2.5-1c-0.2-0.9-0.5-1.7-0.8-2.6c-0.2-0.3-0.4-0.3-0.5,0c-0.2,0-0.5-0.3-0.5-0.6
		c-0.1-1.1,1.2-0.7,1-1.7c-0.1-0.5-0.2-1.1-0.6-1.5c0,0,0-0.2,0.1-0.2c0.5-0.2,1.1,0,1.3,0.6c0.1,0.3,0.2,0.7,0.3,1.1
		c0.2,0.4,0.5,0.8,1,0.7c0.1,0,0.6-0.5,0.6-0.1c0.2,0.5,0,0.9-0.4,1.1c-0.6-0.1-0.8,0.1-0.6,0.8c0.1,0.2,0.1,0.4,0.2,0.6
		c0.1,0.7,0.5,1.1,1,1.5C-200.8,382.6-201.2,383-201,383.6C-201.6,383.8-201,383.4-201,383.6z"/>
	<path class="st0" d="M-165.8,389.9c0.3-0.2,0.7-0.4,1-0.7c0.1-0.1,0.3-0.2,0.3-0.4c0.1-0.2,0.1-0.4-0.2-0.5
		c-0.3-0.1-0.6-0.3-0.9-0.2c-0.3,0.1-0.4,0.2-0.5,0.5c0,0.1,0,0.2-0.1,0.3c-0.5,0.6-1.1,1.2-1.5,1.8c-0.1,0.2-0.2,0.2-0.4,0.1
		c-0.1-0.1-0.2-0.2-0.3-0.3c-0.1-0.2-0.3-0.4-0.4-0.6c0-0.1-0.1-0.2-0.1-0.3c0-0.4,0.1-0.7,0.4-1c0.4-0.4,0.9-0.8,1.2-1.3
		c0.5-0.7,0.7-1.5,1.2-2.2c0.2,0.3,0.5,0.6,0.6,0.9c0,0.4-0.1,0.9-0.2,1.3c0,0,0.1,0,0.1,0.1c0.3-0.1,0.6-0.2,0.9-0.4
		c0.3-0.1,0.5-0.2,0.7,0.1c0.1,0.2,0.3,0.3,0.5,0.5c0.5,0.7-1.9,2.1-2.3,2.2C-165.8,390-165.8,389.9-165.8,389.9
		C-165.5,389.7-165.8,389.9-165.8,389.9z"/>
	<path class="st0" d="M-199.6,377.1c0.5-0.1,0.9,0,1.1,0.5c0.1,0.3,0.2,0.5,0.4,0.8c0.5,0,0.7-0.4,0.7-1c0.1-0.4,1.5-0.5,1.5,0
		c-0.1,0.9-0.2,1.8-0.4,2.7c0,0-0.1,0-0.1,0c0.1-0.5,0.2-0.9,0.1-1.4c-0.8-0.5-1.3-0.2-1.4,0.8c0.1,1.2,0.2,2.3,0.4,3.5
		c-0.8,0.3-1.3,0.1-1.6-0.6C-198.7,380.5-199.4,378.9-199.6,377.1C-199.2,377.2-199.5,377.5-199.6,377.1z"/>
	<path class="st0" d="M-215,382.1c-0.5-0.7-1-0.8-1.7-0.3c-1.1,0.8-2,1.7-2.4,3c0,0.1-0.2,0.2-0.3,0.3c-0.7,0.3-0.4-1.8-0.6-1.5
		c0.3-0.9,0.9-1.5,1.6-2.1C-217.2,380.4-214.2,378.8-215,382.1C-215.5,381.4-214.8,381.6-215,382.1z"/>
	<path class="st0" d="M-184.5,427.4c-0.1,0.1-0.1,0.2-0.2,0.2c-1.3,1.1-2.6,2.3-4.1,3.1c-0.7,0.4-1.5,0.7-2.4,0.8
		c-1.5,0.1-2.6-0.6-3.6-1.6c-0.7-0.7-1.3-1.5-1.9-2.3c0.7,0.4,1.4,0.9,2,1.5c0.8,0.6,1.7,1.1,2.8,1.3c1.2,0.2,2.3,0,3.3-0.6
		C-187.2,429.1-185.8,428.1-184.5,427.4C-184.5,427.3-184.5,427.3-184.5,427.4C-184.5,427.4-184.5,427.3-184.5,427.4z"/>
	<path class="st0" d="M-190.8,390.6c0-0.8,0.3-1.3,0.8-1.8c1-0.9,2.2-1.2,3.5-1.1c0.9,0,1.7,0.3,2.4,0.9c0.1,0.1,0.1,0.3-0.1,0.4
		c-0.6,0.2-1.1,0.2-1.7,0.1c-0.4-0.1-0.9-0.2-1.3-0.3c-0.9-0.2-1.6,0.1-2.2,0.8c-0.2,0.2-0.5,0.5-0.7,0.6
		C-190.4,390.4-190.6,390.4-190.8,390.6C-190.8,389.8-190.6,390.4-190.8,390.6z"/>
	<path class="st0" d="M-181.2,409.6c-0.8,1.1-1.8,1.9-3.1,2.1c-1.6,0.2-3.1-0.3-4.2-1.5C-186.1,411-183.6,410.6-181.2,409.6
		C-182,410.7-183.6,410.6-181.2,409.6z"/>
	<path class="st0" d="M-193.8,410.2c-0.2,0.2-0.3,0.5-0.6,0.6c-0.9,0.6-1.8,1.2-2.9,1.3c-0.7,0.1-1.4,0-2-0.4
		c-0.8-0.5-1.3-1.2-1.8-1.9c2.4,1.6,4.8,1.8,7.2,0.3C-193.8,410.1-193.8,410.1-193.8,410.2C-193.9,410.4-193.8,410.1-193.8,410.2z"
		/>
	<path class="st0" d="M-193.2,407.9c-0.3-0.2-0.6-0.4-0.9-0.6c-1.2-0.9-2.5-1.4-4-1.4c-1,0-2,0.1-2.9,0.6c-0.4,0.2-0.8,0.4-1.2,0.5
		c0,0-0.1-0.1-0.1-0.1c0.1-0.1,0.3-0.2,0.4-0.3c2.1-1.6,5-1.8,7-0.6C-194.1,406.4-193.4,407.1-193.2,407.9
		C-193.1,407.9-193.1,407.9-193.2,407.9C-193.5,407.7-193.1,407.9-193.2,407.9z"/>
</g>
</svg>
