<?xml version="1.0" encoding="utf-8"?>
<!-- Generator: Adobe Illustrator 19.0.1, SVG Export Plug-In . SVG Version: 6.00 Build 0)  -->
<svg version="1.1" id="Слой_1" xmlns="http://www.w3.org/2000/svg" xmlns:xlink="http://www.w3.org/1999/xlink" x="0px" y="0px"
	 viewBox="0 0 298.6 66.5" style="enable-background:new 0 0 298.6 66.5;" xml:space="preserve">
<style type="text/css">
	.st0{fill:url(#SVGID_1_);}
	.st1{fill:url(#SVGID_2_);}
	.st2{fill:url(#SVGID_3_);}
	.st3{fill:url(#SVGID_4_);}
	.st4{fill:url(#SVGID_5_);}
	.st5{fill:url(#SVGID_6_);}
	.st6{fill:url(#SVGID_7_);}
	.st7{fill:url(#SVGID_8_);}
	.st8{fill:url(#SVGID_9_);}
	.st9{fill:url(#SVGID_10_);}
	.st10{fill:url(#SVGID_11_);}
	.st11{fill:url(#SVGID_12_);}
	.st12{fill:url(#SVGID_13_);}
	.st13{fill:url(#SVGID_14_);}
	.st14{fill:url(#SVGID_15_);}
	.st15{fill:url(#SVGID_16_);}
	.st16{fill:url(#SVGID_17_);}
	.st17{fill:url(#SVGID_18_);}
	.st18{fill:url(#SVGID_19_);}
	.st19{fill:url(#SVGID_20_);}
	.st20{fill:url(#SVGID_21_);}
	.st21{fill:none;}
	.st22{fill:url(#SVGID_22_);}
	.st23{fill:url(#SVGID_23_);}
	.st24{fill:url(#SVGID_24_);}
	.st25{fill:url(#SVGID_25_);}
	.st26{fill:url(#SVGID_26_);}
	.st27{fill:url(#SVGID_27_);}
	.st28{fill:url(#SVGID_28_);}
	.st29{fill:url(#SVGID_29_);}
	.st30{fill:url(#SVGID_30_);}
	.st31{fill:url(#SVGID_31_);}
</style>
<symbol  id="Новый_символ" viewBox="-40.9 -61.1 81.8 122.1">
	<linearGradient id="SVGID_1_" gradientUnits="userSpaceOnUse" x1="8.9268" y1="34.8576" x2="8.9268" y2="-7.5038">
		<stop  offset="7.389162e-002" style="stop-color:#2BA9E0"/>
		<stop  offset="1" style="stop-color:#1094C5"/>
	</linearGradient>
	<path class="st0" d="M16.4,10.7c0,0-4.7,8.1-4.7,8.1c0,0,0,0,0,0.1l-0.4,0.5c-0.5,0.5-1.2,1.1-2.2,0.7c-0.4-0.2-0.9-0.6-1.1-1.7
		L7,11.4C6.8,9.5,5,8,3.1,8H0.2c0-0.3,0-0.7,0-1c7.6,0,12.8,1.1,12.8,1.1c1.5,0.3,2.9,0.2,4.1-0.2c0,0.1,0.1,0.3,0.1,0.4
		c0.1,0.4,0.3,0.8,0.4,1.2C17.2,9.9,16.7,10.3,16.4,10.7z"/>
	<linearGradient id="SVGID_2_" gradientUnits="userSpaceOnUse" x1="-8.9081" y1="34.8576" x2="-8.9081" y2="-7.5038">
		<stop  offset="7.389162e-002" style="stop-color:#2BA9E0"/>
		<stop  offset="1" style="stop-color:#1094C5"/>
	</linearGradient>
	<path class="st1" d="M-13.1,8.2c0,0,5.3-1.1,12.9-1.2c0,0.3,0,0.7,0,1h-2.9C-5,8-6.8,9.5-7,11.4L-8,18.4c-0.2,1.1-0.6,1.5-1.1,1.7
		c-0.9,0.4-1.7-0.2-2.2-0.7l-0.4-0.5c0,0,0-0.1,0-0.1c0,0-4.7-8.1-4.7-8.1c-0.4-0.5-0.8-0.8-1.3-1.1c0.1-0.4,0.3-0.8,0.4-1.2
		c0-0.1,0.1-0.3,0.1-0.4C-15.9,8.4-14.5,8.5-13.1,8.2z"/>
	<linearGradient id="SVGID_3_" gradientUnits="userSpaceOnUse" x1="-6.8059" y1="34.8576" x2="-6.8059" y2="-7.5038">
		<stop  offset="7.389162e-002" style="stop-color:#2BA9E0"/>
		<stop  offset="1" style="stop-color:#1094C5"/>
	</linearGradient>
	<path class="st2" d="M-12.9-3c-0.2,0-0.4,0.1-0.6,0.1c1.6-4.5,3.2-9,4.7-13.4c1-2.8,2-5.6,3-8.5c1.7-0.2,3.6-0.3,5.5-0.4
		c0,6.8,0,13.9,0,21.1c-0.1,0-0.1,0-0.2,0C-5.9-4.1-12.9-3-12.9-3z"/>
	<linearGradient id="SVGID_4_" gradientUnits="userSpaceOnUse" x1="6.839" y1="34.8576" x2="6.839" y2="-7.5038">
		<stop  offset="7.389162e-002" style="stop-color:#2BA9E0"/>
		<stop  offset="1" style="stop-color:#1094C5"/>
	</linearGradient>
	<path class="st3" d="M5.7-24.7c1,2.8,2,5.7,3,8.5c1.6,4.4,3.2,8.9,4.7,13.4C13.3-3,13.1-3,12.9-3c0,0-4.2-1-12.6-1
		c0-7.1,0-14.2,0-21.1C2.1-25.1,4-24.9,5.7-24.7z"/>
	<linearGradient id="SVGID_5_" gradientUnits="userSpaceOnUse" x1="-25.967" y1="34.8576" x2="-25.967" y2="-7.5038">
		<stop  offset="7.389162e-002" style="stop-color:#2BA9E0"/>
		<stop  offset="1" style="stop-color:#1094C5"/>
	</linearGradient>
	<path class="st4" d="M-12.7-23.7c0.4-0.1,1-0.2,1.7-0.3c-7,9.5-11.8,17.2-15.7,24.9c-3.6,7.1-7.4,15.6-8.6,25
		c-0.9,7.3,0.3,14.6,3.7,21.7c-4.9-3.2-7.1-8.2-8.5-13.7c-2.2-8.7,0.4-16.7,4.2-24.4c6-12.2,14.3-22.7,22.8-33.2
		C-13-23.7-12.9-23.7-12.7-23.7z"/>
	<linearGradient id="SVGID_6_" gradientUnits="userSpaceOnUse" x1="25.9667" y1="34.8576" x2="25.9667" y2="-7.5038">
		<stop  offset="7.389162e-002" style="stop-color:#2BA9E0"/>
		<stop  offset="1" style="stop-color:#1094C5"/>
	</linearGradient>
	<path class="st5" d="M40.1,33.9c-1.4,5.5-3.6,10.4-8.5,13.7c3.4-7.1,4.6-14.4,3.7-21.7c-1.2-9.4-5-17.9-8.6-25
		C22.8-6.8,18-14.5,11-24c0.7,0.1,1.2,0.2,1.7,0.3c0.2,0,0.3,0.1,0.5,0.1c8.5,10.5,16.8,21,22.8,33.2C39.7,17.2,42.3,25.2,40.1,33.9
		z"/>
	<linearGradient id="SVGID_7_" gradientUnits="userSpaceOnUse" x1="-8.285022e-005" y1="34.8576" x2="-8.284832e-005" y2="-7.5038">
		<stop  offset="7.389162e-002" style="stop-color:#2BA9E0"/>
		<stop  offset="1" style="stop-color:#1094C5"/>
	</linearGradient>
	<path class="st6" d="M12.7-24.1C12.7-24.1,12.7-24.1,12.7-24.1c-2-0.4-7.2-1.3-12.7-1.4c-5.5,0.2-10.8,1.1-12.7,1.4c0,0,0,0,0,0
		c0.2-0.2,0.4-0.5,0.6-0.7c2.1-4.3,5.6-9.8,5.7-10c0,0,0,0,0.1,0c0,0,0-0.1,0-0.1c0.1-0.6,1.1-5,1.4-6.6c0-0.2,0.1-0.5,0-0.7
		c0-0.1,0-0.3-0.1-0.4c-0.5-2.4-0.9-4.9-1.4-7.3c0-0.1,0-0.2-0.1-0.3c-0.2-0.1-0.5,0-0.7-0.1c-0.3,0-0.5-0.2-0.5-0.5
		c0-0.3,0.1-0.6,0.5-0.6c0.2,0,0.4,0.1,0.5-0.1c0-0.2,0-0.4,0-0.5c0-1.2,0-2.4,0-3.6c0-0.9,0-1.8,0.1-2.7c0.1-1.4,0.9-2.2,2.1-2.4
		C-3.8-61-3.3-61-2.7-61c1.6,0,3.2,0,4.8,0c0.8,0,1.6,0.1,2.4,0.2c1,0.1,1.6,0.7,1.9,1.6c0,0.1,0.1,0.3,0.1,0.4
		c0.1,0.5,0.1,1,0.1,1.6c0,1.8,0,3.6,0.1,5.4c0,0.1,0,0.2,0,0.3c0.1,0,0.2,0,0.3,0c0.1,0,0.2,0,0.3,0.1c0.2,0.1,0.3,0.2,0.3,0.5
		c0,0.3-0.2,0.5-0.5,0.6c-0.2,0-0.3,0-0.5,0.1c0,0.2-0.1,0.3-0.1,0.4c-0.5,2.6-1,5.2-1.5,7.8c0,0.1,0,0.2,0,0.3
		c0.1,0.4,0.2,0.8,0.3,1.2c0.4,1.8,0.8,3.7,1.2,5.5c0,0.1,0,0.2,0.1,0.2l-0.1,0c0.5,0.7,3.7,5.9,5.7,9.9
		C12.4-24.6,12.5-24.4,12.7-24.1z M4.3-35.3c0-0.1,0.1-0.1,0.1-0.2c0-1.8,0-3.7,0-5.5c0-0.1,0-0.1,0-0.2c-0.2,0.5-1,4.3-1.3,5.7
		C3.5-35.5,3.9-35.4,4.3-35.3z M-2.5-35.6c0.9,0,1.8-0.1,2.6-0.1c0.8,0,1.7,0.1,2.6,0.1C3.1-37.7,3.6-39.8,4-42
		C3.8-42.1,3.6-42,3.4-42c-0.2,0-0.4,0-0.6,0c0,0.1-0.1,0.2-0.1,0.3c0,0.3,0,0.5,0,0.8c0,0.6-0.5,1.1-1.1,1.1
		c-0.8,0-1.2-0.4-1.2-1.2c0-0.3,0-0.5,0-0.8c0,0,0-0.1-0.1-0.1c-0.2-0.1-0.5,0-0.8,0c0,0.1,0,0.3,0,0.4c0,0.2,0,0.5,0,0.7
		c0,0.5-0.4,1.1-1.1,1c-0.1,0-0.2,0-0.3,0c-0.5,0-0.9-0.4-0.9-0.9c0-0.2,0-0.4,0-0.7c0-0.2,0-0.4,0-0.6c-0.4-0.1-0.7,0-1.1,0
		c0,0.1,0,0.2,0,0.3c0.4,2,0.9,4,1.3,6C-2.6-35.7-2.6-35.7-2.5-35.6z M-4.2-35.3c0.4-0.1,0.8-0.1,1.2-0.2c0,0,0,0,0,0
		c0-0.1,0-0.2,0-0.3c-0.4-1.8-0.8-3.6-1.2-5.4C-4.3-40.8-4.3-35.7-4.2-35.3z M-6-35C-6-35-6-35-6-35c0.2,0,0.4,0,0.6,0
		c0.2-0.1,0.5-0.1,0.7-0.2c0.1-0.4,0.1-2.5,0.1-6c0,0-0.1,0-0.1,0.1C-5.1-39.1-5.6-37-6-35z M5.6-50.3c-0.1,0-0.2,0-0.3,0
		c-3.6,0-7.1,0-10.6,0c-0.2,0.1-0.1,0.2-0.1,0.3c0.3,1.4,0.5,2.8,0.8,4.2c0.2,0.9,0.4,1.8,0.5,2.8c0.5,0,0.9,0,1.3,0
		c0.1-0.3,0.2-0.6,0.5-0.8c0.2-0.1,0.4-0.2,0.6-0.2c0.6,0,0.9,0.2,1.2,1c0.1,0,0.1,0,0.2,0c0.2,0,0.4,0,0.5,0
		c0.2-0.1,0.2-0.2,0.2-0.3C0.8-43.8,1.1-44,1.6-44c0.5,0,0.9,0.2,1.1,0.7c0,0.1,0.1,0.2,0.1,0.3c0.5,0.1,0.9,0,1.4,0
		C4.3-43.5,5.5-49.7,5.6-50.3z M4.9-41c0-0.1-0.1-0.2-0.1-0.3c0,2,0,4,0,6c0.2,0.1,0.5,0.1,0.7,0.2c0.2,0.1,0.4,0.1,0.7,0.2
		C5.8-37,5.3-39,4.9-41z"/>
	<linearGradient id="SVGID_8_" gradientUnits="userSpaceOnUse" x1="10.8885" y1="34.8576" x2="10.8885" y2="-7.5038">
		<stop  offset="7.389162e-002" style="stop-color:#2BA9E0"/>
		<stop  offset="1" style="stop-color:#1094C5"/>
	</linearGradient>
	<path class="st7" d="M21.5,35.7c-0.2,5.5-0.9,9.8-2.2,13.4c-1.4,3.9-2.5,5.5-3.7,7.1c0,0,0,0.1-0.1,0.1l0,0l0,0
		c-0.3,0.4-0.7,0.9-1,1.4l0,0l-0.3,0.4c-0.6,0.4-1.2,0.8-1.8,1.2c-4,2.5-8.5,2.4-12.2-0.3v0l0,0l0-13.6c3.1-0.1,5.6-2.7,5.6-5.8
		c0-3.1-2.5-5.7-5.6-5.8c0-0.4,0-0.7,0-1.1c0.6,0,1.3,0,2.2-0.1c2.8-0.3,8.7-1.4,10.6-5.1l6.5-11C21.1,23.3,21.8,29.7,21.5,35.7z"/>
	<linearGradient id="SVGID_9_" gradientUnits="userSpaceOnUse" x1="-10.8747" y1="34.8576" x2="-10.8747" y2="-7.5038">
		<stop  offset="7.389162e-002" style="stop-color:#2BA9E0"/>
		<stop  offset="1" style="stop-color:#1094C5"/>
	</linearGradient>
	<path class="st8" d="M-12.4,59.3c-0.6-0.4-1.1-0.7-1.7-1.1l-0.5-0.6h0c-0.3-0.5-0.6-0.9-1-1.3c-1.2-1.6-2.4-3.1-3.7-7.1
		c-1.3-3.7-2-7.9-2.2-13.4c-0.3-6,0.4-12.3,2-19.2l6.5,11c1.9,3.6,7.8,4.8,10.6,5.1c0.9,0.1,1.6,0.1,2.2,0.1c0,0.4,0,0.7,0,1.1
		c-3.1,0.1-5.6,2.7-5.6,5.8c0,3.2,2.5,5.7,5.6,5.8l0,13.3v0.3C-3.8,61.6-8.3,61.8-12.4,59.3z"/>
	<linearGradient id="SVGID_10_" gradientUnits="userSpaceOnUse" x1="-20.6796" y1="34.8576" x2="-20.6796" y2="-7.5038">
		<stop  offset="7.389162e-002" style="stop-color:#2BA9E0"/>
		<stop  offset="1" style="stop-color:#1094C5"/>
	</linearGradient>
	<path class="st9" d="M-9.1-16.4c-1.6,4.5-3.2,9-4.8,13.6c-3.8,1-6.6,2.9-6.6,6.2c0,2.1,1.2,3.7,3,4.5c0,0.1-0.1,0.3-0.1,0.4
		c-0.1,0.4-0.2,0.8-0.4,1.2c-0.9-0.4-1.9-0.3-2.7,0.2c-1.2,0.9-1.3,2.9-0.1,4.5l1,1.8c-1.7,7.1-2.4,13.6-2.1,19.7
		c0.2,5.6,1,9.9,2.3,13.6c1.4,4,2.6,5.6,3.8,7.2c0.3,0.4,0.6,0.9,1,1.3c-6.9-0.3-12-3.6-15.8-9.1l-0.4-0.9l0,0
		c-3.5-7.1-4.7-14.4-3.8-21.8c1.2-9.4,5-17.8,8.6-24.9c3.9-7.8,8.9-15.5,15.9-25.2c1.2-0.2,2.7-0.4,4.3-0.6
		C-7.1-21.9-8.1-19.1-9.1-16.4z"/>
	<linearGradient id="SVGID_11_" gradientUnits="userSpaceOnUse" x1="20.6794" y1="34.8576" x2="20.6794" y2="-7.5038">
		<stop  offset="7.389162e-002" style="stop-color:#2BA9E0"/>
		<stop  offset="1" style="stop-color:#1094C5"/>
	</linearGradient>
	<path class="st10" d="M31.1,47.7L31.1,47.7l-0.5,1.1c-3.8,5.3-8.9,8.6-15.7,8.9c0.3-0.5,0.7-0.9,1-1.3c1.2-1.6,2.4-3.2,3.8-7.2
		c1.3-3.7,2-8,2.3-13.6c0.3-6.2-0.4-12.7-2.1-19.8l1-1.8c1.2-1.5,1.1-3.5-0.1-4.5C20,9.1,18.9,9.1,18,9.5c-0.1-0.4-0.2-0.8-0.4-1.2
		c0-0.1-0.1-0.3-0.1-0.4c1.8-0.8,3-2.4,3-4.5c0-3.2-3-5.1-6.6-6.1c-1.6-4.6-3.2-9.2-4.8-13.6c-1-2.7-2-5.5-3-8.3
		c1.6,0.2,3.1,0.4,4.3,0.6c7.1,9.7,12,17.5,15.9,25.2C30,8.1,33.8,16.6,35,26C35.9,33.3,34.6,40.6,31.1,47.7z"/>
</symbol>
<use xlink:href="#Новый_символ"  width="81.8" height="122.1" x="-40.9" y="-61.1" transform="matrix(1 0 0 -1 145.6467 51.1945)" style="display:none;overflow:visible;"/>
<g>
	<linearGradient id="SVGID_12_" gradientUnits="userSpaceOnUse" x1="103.3642" y1="3.8744" x2="103.3642" y2="58.8844">
		<stop  offset="7.389162e-002" style="stop-color:#2BA9E0"/>
		<stop  offset="1" style="stop-color:#1094C5"/>
	</linearGradient>
	<path class="st11" d="M101,47.8V37.7l-7.7-14.1h5.1l2.9,6.2c0.8,1.8,1.4,3.2,2.1,4.8h0.1c0.6-1.5,1.3-3.1,2.1-4.8l2.9-6.2h5
		l-8.1,14v10.2H101z"/>
	<linearGradient id="SVGID_13_" gradientUnits="userSpaceOnUse" x1="124.7461" y1="3.8744" x2="124.7461" y2="58.8844">
		<stop  offset="7.389162e-002" style="stop-color:#2BA9E0"/>
		<stop  offset="1" style="stop-color:#1094C5"/>
	</linearGradient>
	<path class="st12" d="M136.1,35.4c0,8.1-4.9,12.8-11.6,12.8c-6.9,0-11.2-5.3-11.2-12.3c0-7.5,4.7-12.7,11.5-12.7
		C132,23.1,136.1,28.5,136.1,35.4z M118,35.7c0,5,2.5,8.9,6.7,8.9c4.3,0,6.7-4,6.7-9.1c0-4.6-2.3-8.9-6.7-8.9
		C120.4,26.7,118,30.7,118,35.7z"/>
	<linearGradient id="SVGID_14_" gradientUnits="userSpaceOnUse" x1="149.0224" y1="3.8744" x2="149.0224" y2="58.8844">
		<stop  offset="7.389162e-002" style="stop-color:#2BA9E0"/>
		<stop  offset="1" style="stop-color:#1094C5"/>
	</linearGradient>
	<path class="st13" d="M159.4,46.7c-1.5,0.6-4.6,1.4-7.8,1.4c-4.1,0-7.2-1-9.5-3.2c-2.2-2.1-3.4-5.3-3.4-8.9
		c0-7.7,5.5-12.6,13.5-12.6c3,0,5.3,0.6,6.4,1.2l-1,3.6c-1.3-0.6-2.9-1-5.5-1c-5.2,0-8.8,3.1-8.8,8.7c0,5.5,3.4,8.8,8.4,8.8
		c1.6,0,2.8-0.2,3.3-0.5v-6.1h-4.3v-3.5h8.6V46.7z"/>
	<linearGradient id="SVGID_15_" gradientUnits="userSpaceOnUse" x1="172.741" y1="3.8744" x2="172.741" y2="58.8844">
		<stop  offset="7.389162e-002" style="stop-color:#2BA9E0"/>
		<stop  offset="1" style="stop-color:#1094C5"/>
	</linearGradient>
	<path class="st14" d="M168.7,40.9l-2.1,6.9h-4.6l7.8-24.2h5.6l7.9,24.2h-4.8l-2.2-6.9H168.7z M175.7,37.6l-1.9-6
		c-0.5-1.5-0.9-3.1-1.2-4.5h-0.1c-0.4,1.4-0.8,3.1-1.2,4.5l-1.9,6H175.7z"/>
	<linearGradient id="SVGID_16_" gradientUnits="userSpaceOnUse" x1="193.4026" y1="3.8744" x2="193.4026" y2="58.8844">
		<stop  offset="7.389162e-002" style="stop-color:#2BA9E0"/>
		<stop  offset="1" style="stop-color:#1094C5"/>
	</linearGradient>
	<path class="st15" d="M192.5,25h-9v-1.5h19.8V25h-9v22.8h-1.8V25z"/>
	<linearGradient id="SVGID_17_" gradientUnits="userSpaceOnUse" x1="213.4892" y1="3.8744" x2="213.4892" y2="58.8844">
		<stop  offset="7.389162e-002" style="stop-color:#2BA9E0"/>
		<stop  offset="1" style="stop-color:#1094C5"/>
	</linearGradient>
	<path class="st16" d="M205.7,23.9c1.7-0.3,4-0.5,5.9-0.5c3.5,0,5.6,0.7,7.1,2.2c1,1,1.7,2.6,1.7,4.2c0,3.2-2.1,5.4-5,6.3v0.1
		c2,0.7,3.3,2.5,3.8,4.9c0.9,3.8,1.4,5.7,2,6.8h-1.9c-0.4-0.7-0.9-2.8-1.6-5.8c-0.8-3.5-2.4-5.1-5.7-5.3h-4.6v11.1h-1.8V23.9z
		 M207.5,35.2h4.7c4,0,6.5-2.1,6.5-5.2c0-3.9-3.2-5.3-7.1-5.3c-2,0-3.4,0.2-4.1,0.4V35.2z"/>
	<linearGradient id="SVGID_18_" gradientUnits="userSpaceOnUse" x1="233.9895" y1="3.8744" x2="233.9895" y2="58.8844">
		<stop  offset="7.389162e-002" style="stop-color:#2BA9E0"/>
		<stop  offset="1" style="stop-color:#1094C5"/>
	</linearGradient>
	<path class="st17" d="M228.6,39.2l-3.3,8.5h-1.8l9.8-24.2h1.7l9.7,24.2h-1.8l-3.4-8.5H228.6z M238.8,37.8l-3.4-8.5
		c-0.6-1.6-1-2.7-1.3-3.8H234c-0.4,1.2-0.8,2.3-1.3,3.7l-3.5,8.6H238.8z"/>
	<linearGradient id="SVGID_19_" gradientUnits="userSpaceOnUse" x1="253.7345" y1="3.8744" x2="253.7345" y2="58.8844">
		<stop  offset="7.389162e-002" style="stop-color:#2BA9E0"/>
		<stop  offset="1" style="stop-color:#1094C5"/>
	</linearGradient>
	<path class="st18" d="M252.3,47.8l-8.8-24.2h1.9l4.8,13.3c1.3,3.7,2.4,6.6,3.1,9.1h0.1c0.8-2.6,2-5.5,3.5-9.1l5.4-13.4h1.9
		L254,47.8H252.3z"/>
	<linearGradient id="SVGID_20_" gradientUnits="userSpaceOnUse" x1="273.3537" y1="3.8744" x2="273.3537" y2="58.8844">
		<stop  offset="7.389162e-002" style="stop-color:#2BA9E0"/>
		<stop  offset="1" style="stop-color:#1094C5"/>
	</linearGradient>
	<path class="st19" d="M279,35.7h-10.8v10.6h12v1.5h-13.8V23.5h13.2V25h-11.4v9.2H279V35.7z"/>
	<linearGradient id="SVGID_21_" gradientUnits="userSpaceOnUse" x1="291.7316" y1="3.8744" x2="291.7316" y2="58.8844">
		<stop  offset="7.389162e-002" style="stop-color:#2BA9E0"/>
		<stop  offset="1" style="stop-color:#1094C5"/>
	</linearGradient>
	<path class="st20" d="M284.8,23.5h1.8v22.8h12v1.5h-13.8V23.5z"/>
</g>
<g>
	<path class="st21" d="M0,23.7v42.8h21.1C15.1,58.7,9.4,50.6,5,41.7C2.2,35.9,0,30,0,23.7z"/>
	<path class="st21" d="M27.9,43c-1.5-0.3-2.9-0.2-4.1,0.2c0-0.1-0.1-0.3-0.1-0.4c-0.1-0.4-0.3-0.8-0.4-1.2c0.5-0.3,0.9-0.6,1.3-1.1
		c0,0,4.7-8.1,4.7-8.1c0,0,0,0,0-0.1l0.4-0.5c0.5-0.5,1.2-1.1,2.2-0.7c0.4,0.2,0.9,0.6,1.1,1.7l0.9,6.9c0.3,1.9,2,3.4,3.9,3.4h2.9
		c0,0.3,0,0.7,0,1C33.1,44.2,27.9,43,27.9,43z M54,43c0,0-5.2,1.1-12.8,1.1c0-0.3,0-0.7,0-1H44c1.9,0,3.7-1.5,3.9-3.4l0.9-6.9
		c0.2-1.1,0.6-1.5,1.1-1.7c0.9-0.4,1.7,0.2,2.2,0.7l0.4,0.5c0,0,0,0.1,0,0.1c0,0,4.7,8.1,4.7,8.1c0.4,0.5,0.8,0.8,1.3,1.1
		c-0.1,0.4-0.3,0.8-0.4,1.2c0,0.1-0.1,0.3-0.1,0.4C56.9,42.8,55.5,42.7,54,43z"/>
	<linearGradient id="SVGID_22_" gradientUnits="userSpaceOnUse" x1="49.8438" y1="16.337" x2="49.8438" y2="58.6984">
		<stop  offset="7.389162e-002" style="stop-color:#2BA9E0"/>
		<stop  offset="1" style="stop-color:#1094C5"/>
	</linearGradient>
	<path class="st22" d="M58,43.2c0-0.1,0.1-0.3,0.1-0.4c0.1-0.4,0.3-0.8,0.4-1.2c-0.5-0.3-0.9-0.6-1.3-1.1c0,0-4.7-8.1-4.7-8.1
		c0,0,0,0,0-0.1l-0.4-0.5c-0.5-0.5-1.2-1.1-2.2-0.7c-0.4,0.2-0.9,0.6-1.1,1.7l-0.9,6.9c-0.3,1.9-2,3.4-3.9,3.4h-2.9c0,0.3,0,0.7,0,1
		C48.8,44.2,54,43,54,43C55.5,42.7,56.9,42.8,58,43.2z"/>
	<linearGradient id="SVGID_23_" gradientUnits="userSpaceOnUse" x1="32.0088" y1="16.337" x2="32.0088" y2="58.6984">
		<stop  offset="7.389162e-002" style="stop-color:#2BA9E0"/>
		<stop  offset="1" style="stop-color:#1094C5"/>
	</linearGradient>
	<path class="st23" d="M37.8,43.2c-1.9,0-3.7-1.5-3.9-3.4l-0.9-6.9c-0.2-1.1-0.6-1.5-1.1-1.7c-0.9-0.4-1.7,0.2-2.2,0.7l-0.4,0.5
		c0,0,0,0.1,0,0.1c0,0-4.7,8.1-4.7,8.1c-0.4,0.5-0.8,0.8-1.3,1.1c0.1,0.4,0.3,0.8,0.4,1.2c0,0.1,0.1,0.3,0.1,0.4
		c1.2-0.4,2.6-0.5,4.1-0.2c0,0,5.3,1.1,12.9,1.2c0-0.3,0-0.7,0-1H37.8z"/>
	<linearGradient id="SVGID_24_" gradientUnits="userSpaceOnUse" x1="34.107" y1="16.337" x2="34.107" y2="58.6984">
		<stop  offset="7.389162e-002" style="stop-color:#2BA9E0"/>
		<stop  offset="1" style="stop-color:#1094C5"/>
	</linearGradient>
	<path class="st24" d="M40.6,55.3c-5.6,0-12.5-1-12.5-1c-0.2,0-0.4-0.1-0.6-0.1c1.4,4.2,2.9,8.3,4.4,12.3h8.9c0-3.7,0-7.5,0-11.2
		C40.7,55.3,40.6,55.3,40.6,55.3z"/>
	<linearGradient id="SVGID_25_" gradientUnits="userSpaceOnUse" x1="47.7559" y1="16.337" x2="47.7559" y2="58.6984">
		<stop  offset="7.389162e-002" style="stop-color:#2BA9E0"/>
		<stop  offset="1" style="stop-color:#1094C5"/>
	</linearGradient>
	<path class="st25" d="M53.8,54.2c0,0-4.2,1-12.6,1c0,3.7,0,7.5,0,11.2H50c1.5-4.1,2.9-8.2,4.4-12.4C54.2,54.1,54,54.2,53.8,54.2z"
		/>
	<linearGradient id="SVGID_26_" gradientUnits="userSpaceOnUse" x1="11.8874" y1="16.337" x2="11.8874" y2="58.6984">
		<stop  offset="7.389162e-002" style="stop-color:#2BA9E0"/>
		<stop  offset="1" style="stop-color:#1094C5"/>
	</linearGradient>
	<path class="st26" d="M5.6,25.3C4.6,18,5.9,10.7,9.3,3.6c-4.9,3.2-7.1,8.2-8.5,13.7C0.2,19.4,0,21.6,0,23.7c0,6.3,2.2,12.2,5,18
		c4.4,8.9,10.1,17,16.1,24.8h2.7c-3.9-5.8-7-11-9.6-16.2C10.6,43.2,6.8,34.7,5.6,25.3z"/>
	<linearGradient id="SVGID_27_" gradientUnits="userSpaceOnUse" x1="69.9454" y1="16.337" x2="69.9454" y2="58.6984">
		<stop  offset="7.389162e-002" style="stop-color:#2BA9E0"/>
		<stop  offset="1" style="stop-color:#1094C5"/>
	</linearGradient>
	<path class="st27" d="M81,17.2c-1.4-5.5-3.6-10.4-8.5-13.7c3.4,7.1,4.6,14.4,3.7,21.7c-1.2,9.4-5,17.9-8.6,25
		c-2.6,5.2-5.7,10.4-9.6,16.2h2.7c6.1-7.8,11.7-15.9,16.1-24.8C80.6,34,83.2,26,81,17.2z"/>
	<linearGradient id="SVGID_28_" gradientUnits="userSpaceOnUse" x1="51.8054" y1="16.337" x2="51.8054" y2="58.6984">
		<stop  offset="7.389162e-002" style="stop-color:#2BA9E0"/>
		<stop  offset="1" style="stop-color:#1094C5"/>
	</linearGradient>
	<path class="st28" d="M46.7,11.7c0,3.1-2.5,5.7-5.6,5.8c0,0.4,0,0.7,0,1.1c0.6,0,1.3,0,2.2,0.1c2.8,0.3,8.7,1.4,10.6,5.1l6.5,11
		c1.6-6.9,2.3-13.2,2-19.2c-0.2-5.5-0.9-9.8-2.2-13.4c-0.3-0.8-0.5-1.5-0.8-2.1H41.1l0,5.9C44.3,6,46.7,8.5,46.7,11.7z"/>
	<linearGradient id="SVGID_29_" gradientUnits="userSpaceOnUse" x1="30.0385" y1="16.337" x2="30.0385" y2="58.6984">
		<stop  offset="7.389162e-002" style="stop-color:#2BA9E0"/>
		<stop  offset="1" style="stop-color:#1094C5"/>
	</linearGradient>
	<path class="st29" d="M19.4,15.5c-0.3,6,0.4,12.3,2,19.2l6.5-11c1.9-3.6,7.8-4.8,10.6-5.1c0.9-0.1,1.6-0.1,2.2-0.1
		c0-0.4,0-0.7,0-1.1c-3.1-0.1-5.6-2.7-5.6-5.8c0-3.2,2.5-5.7,5.6-5.8l0-5.9H22.4c-0.3,0.6-0.5,1.3-0.8,2.1
		C20.3,5.7,19.6,10,19.4,15.5z"/>
	<linearGradient id="SVGID_30_" gradientUnits="userSpaceOnUse" x1="18.5499" y1="16.337" x2="18.5499" y2="58.6984">
		<stop  offset="7.389162e-002" style="stop-color:#2BA9E0"/>
		<stop  offset="1" style="stop-color:#1094C5"/>
	</linearGradient>
	<path class="st30" d="M20.4,47.8c0-2.1,1.2-3.7,3-4.5c0-0.1-0.1-0.3-0.1-0.4c-0.1-0.4-0.2-0.8-0.4-1.2c-0.9,0.4-1.9,0.3-2.7-0.2
		c-1.2-0.9-1.3-2.9-0.1-4.5l1-1.8c-1.7-7.1-2.4-13.6-2.1-19.7c0.2-5.6,1-9.9,2.3-13.6C21.5,1.2,21.8,0.6,22,0h-9.8
		c-0.7,0.8-1.4,1.6-2,2.5L9.8,3.5l0,0C6.3,10.6,5,17.9,6,25.2c1.2,9.4,5,17.8,8.6,24.9c2.7,5.3,5.8,10.5,9.7,16.4h7.2
		c-1.5-4.1-3-8.3-4.4-12.5C23.2,53,20.4,51.1,20.4,47.8z"/>
	<linearGradient id="SVGID_31_" gradientUnits="userSpaceOnUse" x1="63.2836" y1="16.337" x2="63.2836" y2="58.6984">
		<stop  offset="7.389162e-002" style="stop-color:#2BA9E0"/>
		<stop  offset="1" style="stop-color:#1094C5"/>
	</linearGradient>
	<path class="st31" d="M75.9,25.2c0.9-7.3-0.4-14.7-3.8-21.8l0,0l-0.5-1.1c-0.6-0.8-1.2-1.6-1.9-2.3h-9.8c0.2,0.6,0.5,1.2,0.8,1.9
		c1.3,3.7,2,8,2.3,13.6c0.3,6.2-0.4,12.7-2.1,19.8l1,1.8c1.2,1.5,1.1,3.5-0.1,4.5c-0.7,0.6-1.8,0.6-2.7,0.2
		c-0.1,0.4-0.2,0.8-0.4,1.2c0,0.1-0.1,0.3-0.1,0.4c1.8,0.8,3,2.4,3,4.5c0,3.2-3,5.1-6.6,6.1c-1.5,4.2-3,8.4-4.4,12.5h7.2
		c3.9-5.9,7.1-11.1,9.7-16.4C70.9,43.1,74.7,34.6,75.9,25.2z"/>
</g>
</svg>
