<?xml version="1.0" encoding="utf-8"?>
<!-- Generator: Adobe Illustrator 19.0.1, SVG Export Plug-In . SVG Version: 6.00 Build 0)  -->
<svg version="1.1" id="Layer_1" xmlns="http://www.w3.org/2000/svg" xmlns:xlink="http://www.w3.org/1999/xlink" x="0px" y="0px"
	 viewBox="0 0 175 56" style="enable-background:new 0 0 175 56;" xml:space="preserve">
<style type="text/css">
	.st0{fill:#727270;}
</style>
<g id="Новый_символ">
	<path class="st0" d="M135.2,51.7c-1.4,0-2.1-1-1.5-2.3l20.1-46c0.6-1.3-0.1-2.4-1.5-2.4l-0.4,0c-1.4,0-3,1-3.6,2.3l-16.6,38
		c-0.6,1.3-1.5,3.4-2.1,4.6l-0.6,1.3c-0.6,1.3-1.5,1.3-2.1,0l-20-45.8c-0.6-1.3-1.5-1.3-2,0L87.9,40.7c-0.6,1.3-1.5,1.3-2,0
		l-17.2-39c-0.6-1.3-1.5-1.3-2,0L46,49.4c-0.6,1.3-2.2,2.3-3.5,2.3h-21c-1.4,0-1.9-1-1.2-2.2L48.9,3.2C49.6,2,49.1,1,47.7,1H2.5
		C1.1,1,0,1.9,0,2.9s1.1,1.9,2.5,1.9H39c1.4,0,1.9,1,1.2,2.2L11.4,53.4c-0.7,1.2-0.2,2.2,1.2,2.2h27.9c1.4,0,2.8,0,3.2,0
		c0.4,0,1.6,0,2.7,0s2.5-0.9,2.9-1.9s1.3-3,1.8-4.3l3.9-9.2c0.5-1.3,2.1-2.3,3.5-2.3h18c1.4,0,3,1.1,3.5,2.3l2.9,6.9
		c0.5,1.3,1,2.3,1,2.3s0.5,1,1,2.3l0.7,1.6c0.6,1.3,1,2.3,1,2.3s0.5-1,1-2.3l0.7-1.6c0.6-1.3,1.5-3.4,2-4.7l2.9-6.8
		c0.5-1.3,2.1-2.3,3.5-2.3h18c1.4,0,3,1,3.5,2.3l5.6,13.1c0.9,1.8,2.2,2.3,3.6,2.3c0,0,2.8,0,2.8,0s0,0,0.1,0s1.2,0,2.6,0h39.1
		c1.4,0,2.5-0.9,2.5-1.9s-1.1-1.9-2.5-1.9H135.2z M60.6,32.7c-1.4,0-2.1-1-1.5-2.3l7.7-17.9c0.5-1.3,1.4-1.3,2,0l7.7,17.9
		c0.5,1.3-0.1,2.3-1.5,2.3H60.6z M98.9,32.7c-1.4,0-2.1-1-1.5-2.3l7.7-17.9c0.5-1.3,1.4-1.3,2,0l7.7,17.9c0.5,1.3-0.1,2.3-1.5,2.3
		H98.9z"/>
</g>
</svg>
