<?xml version="1.0" encoding="utf-8"?>
<!-- Generator: Adobe Illustrator 19.0.1, SVG Export Plug-In . SVG Version: 6.00 Build 0)  -->
<svg version="1.1" id="Слой_1" xmlns="http://www.w3.org/2000/svg" xmlns:xlink="http://www.w3.org/1999/xlink" x="0px" y="0px"
	 viewBox="0 0 47 60" style="enable-background:new 0 0 47 60;" xml:space="preserve">
<style type="text/css">
	.st0{fill:url(#SVGID_1_);}
	.st1{fill:#FFFFFF;}
	.st2{fill:url(#SVGID_2_);}
</style>
<g>
	<linearGradient id="SVGID_1_" gradientUnits="userSpaceOnUse" x1="23.5" y1="0.6305" x2="23.5" y2="78.9669">
		<stop  offset="7.389162e-002" style="stop-color:#29A8DF"/>
		<stop  offset="1" style="stop-color:#0B92C4"/>
	</linearGradient>
	<path class="st0" d="M14.8,60h17c3.9-7.4,7.1-13.7,11.3-22.4c6.2-11.2,5-23-3.9-30.7C28.7-3.6,8.7,0,2.5,13.6
		c-5.5,9.9-0.7,21.2,4.2,30C10.2,50.5,12.5,55.1,14.8,60z"/>
	<path class="st1" d="M23.5,38.3c-7.7,0-13.9-6.2-13.9-13.9s6.2-13.9,13.9-13.9s13.9,6.2,13.9,13.9S31.2,38.3,23.5,38.3z"/>
	<g>
		<path class="st1" d="M13.2,21c0.7-0.7,1.4-1.5,2.2-2.2c2.6,1.9,5.3,3.8,7.8,5.6c2.2-2.5,4.2-5,6.4-7.4c3.1-3.5,6.7-6.5,10.3-9.4
			c1.5-1.2,3.1-1,4.9-1c-8.9,8.5-15.2,18.8-21.4,29.1C20,30.8,16.6,25.9,13.2,21z"/>
	</g>
	<g>
		<linearGradient id="SVGID_2_" gradientUnits="userSpaceOnUse" x1="28.1835" y1="-0.9974" x2="28.1835" y2="33.6346">
			<stop  offset="7.389162e-002" style="stop-color:#29A8DF"/>
			<stop  offset="1" style="stop-color:#0B92C4"/>
		</linearGradient>
		<path class="st2" d="M12.4,19.6c0.7-0.7,1.4-1.5,2.2-2.2c2.6,1.9,5.3,3.8,7.8,5.6c2.2-2.5,4.2-5,6.4-7.4c3.1-3.5,6.7-6.5,10.3-9.4
			c1.5-1.2,3.1-1,4.9-1C35.1,13.7,28.8,24,22.6,34.3C19.2,29.4,15.8,24.5,12.4,19.6z"/>
	</g>
</g>
</svg>
