<?xml version="1.0" encoding="utf-8"?>
<!-- Generator: Adobe Illustrator 19.0.1, SVG Export Plug-In . SVG Version: 6.00 Build 0)  -->
<svg version="1.1" id="Слой_1" xmlns="http://www.w3.org/2000/svg" xmlns:xlink="http://www.w3.org/1999/xlink" x="0px" y="0px"
	 viewBox="0 0 21 15" style="enable-background:new 0 0 21 15;" xml:space="preserve">
<style type="text/css">
	.st0{fill:#FFFFFF;}
</style>
<g>
	<path class="st0" d="M10,8.8C10.1,8.9,10.3,9,10.6,9c0.2,0,0.4-0.1,0.6-0.2l8.6-8.6C19.5,0.1,19.3,0,19,0H2C1.8,0,1.5,0.1,1.3,0.1
		L10,8.8z"/>
	<path class="st0" d="M20.9,13.6C21,13.4,21,13.2,21,13V2c0-0.2,0-0.4-0.1-0.6l-6.1,6L20.9,13.6z"/>
	<path class="st0" d="M13.6,8.7L12.4,10c-0.5,0.5-1.1,0.7-1.8,0.7c0,0,0,0,0,0c-0.7,0-1.3-0.3-1.8-0.7L7.5,8.7l-6.1,6.2
		C1.5,15,1.8,15,2,15H19c0.3,0,0.5-0.1,0.7-0.1L13.6,8.7z"/>
	<path class="st0" d="M0.1,1.4C0,1.6,0,1.8,0,2v11c0,0.2,0,0.5,0.1,0.7l6.1-6.2L0.1,1.4z"/>
</g>
</svg>
