<?xml version="1.0" encoding="utf-8"?>
<!-- Generator: Adobe Illustrator 19.0.1, SVG Export Plug-In . SVG Version: 6.00 Build 0)  -->
<svg version="1.1" id="Слой_1" xmlns="http://www.w3.org/2000/svg" xmlns:xlink="http://www.w3.org/1999/xlink" x="0px" y="0px"
	 viewBox="0 0 52.9 42.1" style="enable-background:new 0 0 52.9 42.1;" xml:space="preserve">
<style type="text/css">
	.st0{fill:#FFFFFF;}
</style>
<path class="st0" d="M29.3,13.7c-5.3,0-9.7,4.3-9.7,9.7c0,5.3,4.3,9.7,9.7,9.7c5.3,0,9.7-4.3,9.7-9.7C38.9,18.1,34.6,13.7,29.3,13.7
	z"/>
<path class="st0" d="M52.9,13.1c0-0.3-0.1-3.2-0.3-3.5c-0.8-1.5-2.4-2.4-4.1-2.4h-6.9l-3.4-5.9C37.7,0.5,36.8,0,35.9,0H23.7
	c-0.9,0-1.8,0.5-2.3,1.3l-3.5,6h-4.6c0-2.5-1.6-2.6-1.6-2.6s-3.8,0-6.1,0c-2.3,0-2.3,2.6-2.3,2.6C2.8,7.3,2.3,7.4,1.8,7.7
	C0.6,8.6,0,10.1,0,11.6V38c0,1.7,1,2.8,1.9,3.3c0.9,0.5,1.8,0.7,2.8,0.7h44.2c0.7,0,1.3-0.2,1.8-0.4c1.3-0.7,2.1-2.1,2.1-3.6
	C52.9,32.7,53,14.4,52.9,13.1z M6.1,13.4c-0.9,0-1.7-0.8-1.7-1.7s0.8-1.7,1.7-1.7s1.7,0.8,1.7,1.7S7,13.4,6.1,13.4z M29.3,37.6
	c-7.8,0-14.2-6.4-14.2-14.2c0-7.8,6.4-14.2,14.2-14.2c7.8,0,14.2,6.4,14.2,14.2C43.5,31.2,37.1,37.6,29.3,37.6z"/>
</svg>
