<?xml version="1.0" encoding="utf-8"?>
<!-- Generator: Adobe Illustrator 19.0.1, SVG Export Plug-In . SVG Version: 6.00 Build 0)  -->
<svg version="1.1" id="Слой_1" xmlns="http://www.w3.org/2000/svg" xmlns:xlink="http://www.w3.org/1999/xlink" x="0px" y="0px"
	 viewBox="-470 272 18 18" style="enable-background:new -470 272 18 18;" xml:space="preserve">
<style type="text/css">
	.st0{fill:#E9C501;}
</style>
<path class="st0" d="M-455.4,283.6c-1.1,0-2.1,0.5-2.7,1.3l-5.7-2.8c0.1-0.3,0.2-0.7,0.2-1.1c0-0.3,0-0.6-0.1-0.9l5.7-2.9
	c0.6,0.8,1.5,1.2,2.6,1.2c1.8,0.2,3.3-1.3,3.3-3.1s-1.5-3.2-3.3-3.2c-1.8,0-3.3,1.4-3.3,3.2c0,0.3,0,0.6,0.1,0.9l-5.7,2.8
	c-0.6-0.7-1.5-1.2-2.5-1.2c-1.8,0-3.3,1.5-3.3,3.2c0,1.8,1.5,3.2,3.3,3.2c0.9,0,1.8-0.4,2.4-1l5.9,2.9c-0.1,0.2-0.1,0.5-0.1,0.7
	c0,1.8,1.5,3.2,3.3,3.2s3.3-1.4,3.3-3.2S-453.6,283.6-455.4,283.6z"/>
</svg>
