<?xml version="1.0" encoding="utf-8"?>
<!-- Generator: Adobe Illustrator 19.0.1, SVG Export Plug-In . SVG Version: 6.00 Build 0)  -->
<svg version="1.1" id="Слой_1" xmlns="http://www.w3.org/2000/svg" xmlns:xlink="http://www.w3.org/1999/xlink" x="0px" y="0px"
	 viewBox="0 0 329.2 351.9" style="enable-background:new 0 0 329.2 351.9;" xml:space="preserve">
<style type="text/css">
	.st0{fill:#E2E2E1;}
	.st1{fill:#FFFFFF;}
	.st2{fill:#0B94C4;}
	.st3{fill:url(#SVGID_1_);}
	.st4{fill:url(#SVGID_2_);}
	.st5{fill:url(#SVGID_3_);}
	.st6{fill:url(#SVGID_4_);}
	.st7{fill:url(#SVGID_5_);}
	.st8{fill:url(#SVGID_6_);}
	.st9{fill:url(#SVGID_7_);}
	.st10{fill:url(#SVGID_8_);}
	.st11{fill:url(#SVGID_9_);}
	.st12{fill:url(#SVGID_10_);}
	.st13{fill:url(#SVGID_11_);}
	.st14{fill:url(#SVGID_12_);}
	.st15{fill:url(#SVGID_13_);}
	.st16{fill:url(#SVGID_14_);}
	.st17{fill:url(#SVGID_15_);}
	.st18{fill:url(#SVGID_16_);}
	.st19{fill:url(#SVGID_17_);}
	.st20{fill:url(#SVGID_18_);}
	.st21{fill:url(#SVGID_19_);}
	.st22{fill:url(#SVGID_20_);}
	.st23{fill:url(#SVGID_21_);}
	.st24{fill:url(#SVGID_22_);}
	.st25{fill:url(#SVGID_23_);}
	.st26{fill:url(#SVGID_24_);}
	.st27{fill:url(#SVGID_25_);}
	.st28{fill:url(#SVGID_26_);}
	.st29{fill:url(#SVGID_27_);}
	.st30{fill:url(#SVGID_28_);}
	.st31{fill:url(#SVGID_29_);}
	.st32{fill:url(#SVGID_30_);}
	.st33{fill:url(#SVGID_31_);}
	.st34{fill:url(#SVGID_32_);}
	.st35{fill:url(#SVGID_33_);}
	.st36{fill:url(#SVGID_34_);}
	.st37{fill:url(#SVGID_35_);}
	.st38{fill:url(#SVGID_36_);}
	.st39{fill:url(#SVGID_37_);}
</style>
<g>
	<g>
		<path class="st0" d="M212.3,227.1L147.6,241c-6.5-1-7.4-5.9-7.4-5.9l-0.1-0.3c-0.5-2.5-1-5.1-1.5-7.6c0.9-1.5,1.2-3.3,0.7-5.2
			c-0.5-2.2-1.9-3.9-3.8-4.8c-1.5-3.5-2.6-6.3-4.1-9.7c-0.7-1.7-0.7-3.4-0.7-3.4V204c0-6.2,0.9-12.1,2.7-18.1l0.3-1
			c0.8-2.5,2-6.2,2.8-9c0.8-2.5,1.7-4.8,2.9-7.1c12.3-24.5,23-47,29.1-71.7c2.5-10.1,3.7-18.3,3.6-26c0-9.8-2-18.5-6.1-26.7
			c-3.1-6.3-6.3-11.2-10-15.2c-4.3-4.7-9.1-8.1-14.8-10.3C130,8.1,117,3.6,102.7,5.7c-1.2-0.5-2.3-0.9-3.6-1.4
			C93.9,2.5,88.6,2,83.6,3.1C79.3,4,75.4,6,72,8.9l0,0c-4.3-1.3-8.7-1.5-13-0.6c-5,1.1-9.7,3.7-13.7,7.5c-0.9,0.9-1.8,1.8-2.7,2.7
			c-13.9,4-23.9,13.4-29.9,28C8.6,51,5.6,56.1,3.6,62.1c-1.7,5.1-2.6,11-2.8,18c-0.3,9.2,1.5,18,5.5,26.9c3.1,7,7.6,14,14,22.2
			C36,149,55,165.2,76.3,182.4c2,1.6,3.9,3.4,5.6,5.3c1.9,2.2,4.5,5.1,6.3,7l0.7,0.8c4.1,4.7,7.3,9.7,9.9,15.4l0,0.1
			c0,0,0.8,1.6,0.8,3.4c0.1,3.8,0.2,6.8,0.3,10.6c-1.3,1.6-1.9,3.7-1.5,5.9c0.4,1.8,1.4,3.4,2.8,4.4c0.6,2.5,1.1,5,1.7,7.5l0.1,0.4
			c0,0,1.1,4.9-4.3,8.4l-63.3,13.6c-4.8,1-7.9,5.5-6.9,10.3l12.2,56.8c1,4.8,5.8,7.9,10.6,6.8l177-38.1c4.8-1,8.4-5.9,7.3-10.7
			l-12.2-56.8C222.3,228.7,217.1,226,212.3,227.1z"/>
		<path class="st1" d="M211.6,224.5l-64.7,13.9c-6.5-1-7.4-5.9-7.4-5.9l-0.1-0.3c-0.5-2.5-1-5.1-1.5-7.6c0.9-1.5,1.2-3.3,0.7-5.2
			c-0.5-2.2-1.9-3.9-3.8-4.8c-1.5-3.5-2.6-6.3-4.1-9.7c-0.7-1.7-0.7-3.4-0.7-3.4v-0.1c0-6.2,0.9-12.1,2.7-18.1l0.3-1
			c0.8-2.5,2-6.2,2.8-9c0.8-2.5,1.7-4.8,2.9-7.1c12.3-24.5,23-47,29.1-71.7c2.5-10.1,3.7-18.3,3.6-26c0-9.8-2-18.5-6.1-26.7
			c-3.1-6.3-6.3-11.2-10-15.2c-4.3-4.7-9.1-8.1-14.8-10.3C129.3,5.6,116.3,1.1,102,3.2c-1.2-0.5-2.3-0.9-3.6-1.4
			c-5.2-1.9-10.6-2.3-15.5-1.2c-4.3,0.9-8.2,2.9-11.6,5.8l0,0c-4.3-1.3-8.7-1.5-13-0.6c-5,1.1-9.7,3.7-13.7,7.5
			c-0.9,0.9-1.8,1.8-2.7,2.7c-13.9,4-23.9,13.4-29.9,28c-4.2,4.4-7.2,9.5-9.2,15.5c-1.7,5.1-2.6,11-2.8,18c-0.3,9.2,1.5,18,5.5,26.9
			c3.1,7,7.6,14,14,22.2c15.8,19.9,34.7,36.1,56.1,53.4c2,1.6,3.9,3.4,5.6,5.3c1.9,2.2,4.5,5.1,6.3,7l0.7,0.8
			c4.1,4.7,7.3,9.7,9.9,15.4l0,0.1c0,0,0.8,1.6,0.8,3.4c0.1,3.8,0.2,6.8,0.3,10.6c-1.3,1.6-1.9,3.7-1.5,5.9c0.4,1.8,1.4,3.4,2.8,4.4
			c0.6,2.5,1.1,5,1.7,7.5l0.1,0.4c0,0,1.1,4.9-4.3,8.4l-63.3,13.6c-4.8,1-7.9,5.5-6.9,10.3L40,329.7c1,4.8,5.8,7.9,10.6,6.8
			l177-38.1c4.8-1,8.4-5.9,7.3-10.7l-12.2-56.8C221.6,226.1,216.4,223.5,211.6,224.5z"/>
		<g>
			<path class="st2" d="M53.9,276.7c-0.2-1.1-0.5-2.1-0.7-3l1.5-0.3l0.5,1.9l0.1,0c0.2-1.4,1-2.4,2.2-2.7c0.2,0,0.3-0.1,0.5,0
				l0.4,1.6c-0.2,0-0.4,0-0.6,0.1c-1.2,0.3-1.9,1.4-1.8,2.7c0,0.2,0,0.5,0.1,0.8l1.1,5.1l-1.7,0.4L53.9,276.7z"/>
			<path class="st2" d="M61.6,277.3c0.5,2.3,2.3,3,4,2.6c1.2-0.3,1.9-0.6,2.5-1.1l0.6,1.2c-0.6,0.4-1.5,0.9-3,1.3
				c-2.9,0.6-5.1-0.9-5.7-3.8c-0.6-2.9,0.6-5.5,3.4-6.1c3.1-0.7,4.5,1.9,4.9,3.6c0.1,0.4,0.1,0.6,0.1,0.8L61.6,277.3z M66.4,274.9
				c-0.2-1.1-1.1-2.7-3-2.3c-1.8,0.4-2.2,2.2-2.1,3.4L66.4,274.9z"/>
			<path class="st2" d="M78.2,278c-0.4,0.3-1.3,0.9-2.6,1.1c-2.9,0.6-5.2-0.9-5.8-3.8c-0.6-2.9,0.9-5.5,4-6.2c1-0.2,2-0.2,2.5,0
				l-0.1,1.4c-0.5-0.1-1.2-0.2-2.1,0c-2.2,0.5-3,2.3-2.6,4.3c0.5,2.2,2.2,3.3,4.1,2.9c1-0.2,1.6-0.6,2-0.9L78.2,278z"/>
			<path class="st2" d="M87.8,271.2c0.8,3.5-1.4,5.6-3.7,6.1c-2.6,0.6-5-0.9-5.6-3.9c-0.7-3.2,1-5.5,3.6-6.1
				C84.9,266.7,87.1,268.3,87.8,271.2z M80.2,272.9c0.5,2.1,2,3.4,3.7,3c1.7-0.4,2.6-2.2,2.1-4.3c-0.3-1.6-1.6-3.5-3.7-3.1
				C80.3,269,79.8,271.1,80.2,272.9z"/>
			<path class="st2" d="M89.5,268.6c-0.2-1-0.4-1.8-0.6-2.6l1.5-0.3l0.4,1.5l0.1,0c0.3-1,1-2.1,2.6-2.4c1.3-0.3,2.5,0.3,3.1,1.3l0,0
				c0.2-0.6,0.5-1.1,0.8-1.5c0.5-0.6,1.1-0.9,2-1.1c1.3-0.3,3.3,0.2,4,3.5l1.2,5.6l-1.7,0.4l-1.2-5.4c-0.4-1.8-1.3-2.8-2.7-2.5
				c-1,0.2-1.6,1.1-1.7,2c0,0.3,0,0.6,0,0.9l1.3,5.9l-1.7,0.4l-1.2-5.7c-0.3-1.5-1.2-2.5-2.6-2.2c-1.1,0.2-1.7,1.3-1.8,2.2
				c0,0.3,0,0.6,0,0.9l1.2,5.8l-1.7,0.4L89.5,268.6z"/>
			<path class="st2" d="M106,265.1c-0.2-1-0.4-1.8-0.6-2.6l1.5-0.3l0.4,1.5l0.1,0c0.3-1,1-2.1,2.6-2.4c1.3-0.3,2.5,0.3,3.1,1.3l0,0
				c0.2-0.6,0.5-1.1,0.8-1.5c0.5-0.6,1.1-0.9,2-1.1c1.3-0.3,3.3,0.2,4,3.5l1.2,5.6l-1.7,0.4l-1.2-5.4c-0.4-1.8-1.3-2.8-2.7-2.5
				c-1,0.2-1.6,1.1-1.7,2c0,0.3,0,0.6,0,0.9l1.3,5.9l-1.7,0.4l-1.2-5.7c-0.3-1.5-1.2-2.5-2.6-2.2c-1.1,0.2-1.7,1.3-1.8,2.2
				c0,0.3,0,0.6,0,0.9l1.2,5.8l-1.7,0.4L106,265.1z"/>
			<path class="st2" d="M123.9,263.8c0.5,2.3,2.3,3,4,2.6c1.2-0.3,1.9-0.6,2.5-1.1l0.6,1.2c-0.6,0.4-1.5,0.9-3,1.3
				c-2.9,0.6-5.1-0.9-5.7-3.8c-0.6-2.9,0.6-5.5,3.4-6.1c3.1-0.7,4.5,1.9,4.9,3.6c0.1,0.4,0.1,0.6,0.1,0.8L123.9,263.8z M128.7,261.5
				c-0.2-1.1-1.1-2.7-3-2.3c-1.8,0.4-2.2,2.2-2.1,3.4L128.7,261.5z"/>
			<path class="st2" d="M132.3,259.4c-0.2-1-0.4-1.8-0.6-2.6l1.5-0.3l0.4,1.6l0,0c0.3-1,1.2-2.1,2.8-2.5c1.3-0.3,3.5,0.1,4.2,3.3
				l1.2,5.7l-1.7,0.4l-1.2-5.5c-0.3-1.5-1.2-2.7-2.8-2.3c-1.1,0.2-1.9,1.2-1.9,2.3c0,0.2,0,0.5,0.1,0.8l1.2,5.7l-1.7,0.4
				L132.3,259.4z"/>
			<path class="st2" d="M150,248.2l2.5,11.5c0.2,0.8,0.4,1.8,0.6,2.4l-1.6,0.3l-0.4-1.6l0,0c-0.3,1.2-1.3,2.2-2.9,2.6
				c-2.3,0.5-4.5-1.1-5.1-4c-0.7-3.2,0.8-5.6,3.2-6.1c1.5-0.3,2.6,0.2,3.2,0.8l0,0l-1.2-5.7L150,248.2z M150,256.9
				c0-0.2-0.1-0.5-0.2-0.7c-0.5-1-1.6-1.8-2.9-1.5c-1.8,0.4-2.5,2.2-2.1,4.3c0.4,1.9,1.7,3.3,3.6,2.9c1.2-0.3,2.1-1.2,2.1-2.6
				c0-0.2,0-0.5-0.1-0.8L150,256.9z"/>
			<path class="st2" d="M155.9,256.9c0.5,2.3,2.3,3,4,2.6c1.2-0.3,1.9-0.6,2.5-1.1l0.6,1.2c-0.6,0.4-1.5,0.9-3,1.3
				c-2.9,0.6-5.1-0.9-5.7-3.8c-0.6-2.9,0.6-5.5,3.4-6.1c3.1-0.7,4.5,1.9,4.9,3.6c0.1,0.4,0.1,0.6,0.1,0.8L155.9,256.9z M160.7,254.6
				c-0.2-1.1-1.1-2.7-3-2.3c-1.8,0.4-2.2,2.2-2.1,3.4L160.7,254.6z"/>
			<path class="st2" d="M171,243.7l2.5,11.5c0.2,0.8,0.4,1.8,0.6,2.4l-1.6,0.3l-0.4-1.6l0,0c-0.3,1.2-1.3,2.2-2.9,2.6
				c-2.3,0.5-4.5-1.1-5.1-4c-0.7-3.2,0.8-5.6,3.2-6.1c1.5-0.3,2.6,0.2,3.2,0.8l0,0l-1.2-5.7L171,243.7z M171,252.4
				c0-0.2-0.1-0.5-0.2-0.7c-0.5-1-1.6-1.8-2.9-1.5c-1.8,0.4-2.5,2.2-2.1,4.3c0.4,1.9,1.7,3.3,3.6,2.9c1.2-0.3,2.1-1.2,2.1-2.6
				c0-0.2,0-0.5-0.1-0.8L171,252.4z"/>
			<path class="st2" d="M188.7,249.5c0.8,3.5-1.4,5.6-3.7,6.1c-2.6,0.6-5-0.9-5.6-3.9c-0.7-3.2,1-5.5,3.6-6.1
				C185.8,245,188,246.5,188.7,249.5z M181.1,251.2c0.5,2.1,2,3.4,3.7,3c1.7-0.4,2.6-2.2,2.1-4.3c-0.3-1.6-1.6-3.5-3.7-3.1
				C181.2,247.3,180.7,249.4,181.1,251.2z"/>
			<path class="st2" d="M190.4,246.9c-0.2-1-0.4-1.8-0.6-2.6l1.5-0.3l0.4,1.6l0,0c0.3-1,1.2-2.1,2.8-2.5c1.3-0.3,3.5,0.1,4.2,3.3
				l1.2,5.7l-1.7,0.4l-1.2-5.5c-0.3-1.5-1.2-2.7-2.8-2.3c-1.1,0.2-1.9,1.2-1.9,2.3c0,0.2,0,0.5,0.1,0.8l1.2,5.7l-1.7,0.4
				L190.4,246.9z"/>
		</g>
		<g>
			<g>
				
					<linearGradient id="SVGID_1_" gradientUnits="userSpaceOnUse" x1="130.7327" y1="273.3295" x2="130.7327" y2="304.3445" gradientTransform="matrix(0.9776 -0.2106 0.2106 0.9776 -54.9439 38.6559)">
					<stop  offset="7.389162e-002" style="stop-color:#13A9E0"/>
					<stop  offset="1" style="stop-color:#0995C3"/>
				</linearGradient>
				<path class="st3" d="M225,293.7c3-0.6,4.9-3.6,4.2-6.6l-5.1-23.7c-0.6-3-3.6-4.9-6.6-4.2L43.1,296.7c-3,0.6-4.9,3.6-4.2,6.6
					l5.1,23.7c0.6,3,3.6,4.9,6.6,4.2L225,293.7z"/>
				<path class="st1" d="M68.7,327.4L65.9,314l4.5-1l-0.5-5.4l-5.2,1.1l-0.7-3.3c-0.3-1.5-0.1-2.6,2-3.1l2.8-0.6l-1-4.7
					c-0.5,0-2.2,0.3-4.1,0.7c-4,0.9-6.2,3.9-5.2,8.3l0.8,3.8l-4.5,1l1.1,5.2l4.5-1l2.9,13.4L68.7,327.4z"/>
			</g>
			<g>
				<g>
					<path class="st1" d="M93.9,311.6l-1.3-6.1l-6.4-7.4l2.1-0.5l2.9,3.6c0.8,1,1.4,1.8,2.1,2.7l0,0c0.2-1,0.5-2.1,0.8-3.3l1.2-4.4
						l2.1-0.5l-3.1,9.4l1.3,6.2L93.9,311.6z"/>
					<path class="st1" d="M108.8,302.9c0.8,3.8-1.5,6.1-4,6.6c-2.8,0.6-5.4-1-6.1-4.3c-0.7-3.5,1.1-6,4-6.6
						C105.7,297.9,108.2,299.7,108.8,302.9z M100.6,304.7c0.5,2.3,2.2,3.7,4,3.3c1.8-0.4,2.8-2.4,2.3-4.7c-0.4-1.8-1.7-3.8-4-3.3
						C100.7,300.5,100.2,302.8,100.6,304.7z"/>
					<path class="st1" d="M119.1,295.3c0.1,0.8,0.3,1.6,0.5,2.9l1.3,6c0.5,2.4,0.4,3.9-0.5,5.1c-0.8,1.2-2.2,1.8-3.5,2.1
						c-1.2,0.3-2.7,0.3-3.6-0.1l0.2-1.5c0.8,0.3,1.9,0.4,3.2,0.2c1.9-0.4,3.1-1.7,2.6-4.4l-0.2-1.2l0,0c-0.4,1.1-1.3,2.1-2.9,2.5
						c-2.6,0.6-4.9-1.2-5.5-4.1c-0.8-3.5,1.1-6,3.5-6.5c1.8-0.4,3,0.3,3.6,1.1l0,0l-0.3-1.6L119.1,295.3z M118,299.8
						c-0.1-0.3-0.2-0.6-0.3-0.8c-0.6-1-1.7-1.7-3.1-1.4c-1.8,0.4-2.8,2.2-2.2,4.6c0.4,2,1.8,3.5,3.9,3.1c1.2-0.2,2.1-1.2,2.2-2.5
						c0-0.3,0-0.7-0.1-1L118,299.8z"/>
					<path class="st1" d="M130.1,303.8l-0.4-1.3l-0.1,0c-0.4,0.9-1.4,1.9-2.8,2.2c-2.1,0.5-3.5-0.8-3.8-2.3
						c-0.5-2.5,1.4-4.4,5.4-5.2l0-0.2c-0.2-0.9-0.8-2.4-2.9-1.9c-1,0.2-1.9,0.7-2.5,1.4l-0.7-1.2c0.7-0.7,1.9-1.4,3.2-1.7
						c3.2-0.7,4.4,1.3,4.9,3.4l0.8,3.9c0.2,0.9,0.4,1.8,0.7,2.5L130.1,303.8z M128.7,298.6c-2.1,0.4-4.3,1.3-3.9,3.3
						c0.3,1.2,1.2,1.6,2.2,1.4c1.4-0.3,2-1.3,2.1-2.3c0-0.2,0-0.4,0-0.6L128.7,298.6z"/>
					<path class="st1" d="M133.8,289.5l-4.4,0.9l-0.3-1.6l10.7-2.3l0.3,1.6l-4.4,1l2.8,12.9l-1.9,0.4L133.8,289.5z"/>
					<path class="st1" d="M141.9,293.8c-0.3-1.2-0.5-2.3-0.8-3.2l1.7-0.4l0.5,2l0.1,0c0.2-1.5,1.1-2.6,2.4-2.9
						c0.2,0,0.4-0.1,0.6-0.1l0.4,1.8c-0.2,0-0.4,0-0.7,0.1c-1.3,0.3-2.1,1.5-2,3c0,0.3,0,0.6,0.1,0.9l1.2,5.5l-1.9,0.4L141.9,293.8z
						"/>
					<path class="st1" d="M156.1,298.2l-0.4-1.3l-0.1,0c-0.4,0.9-1.4,1.9-2.8,2.2c-2.1,0.5-3.5-0.8-3.8-2.3
						c-0.5-2.5,1.4-4.4,5.4-5.2l0-0.2c-0.2-0.9-0.8-2.4-2.9-1.9c-1,0.2-1.9,0.7-2.5,1.4l-0.7-1.2c0.7-0.7,1.9-1.4,3.2-1.7
						c3.2-0.7,4.4,1.3,4.9,3.4l0.8,3.9c0.2,0.9,0.4,1.8,0.7,2.5L156.1,298.2z M154.7,293c-2.1,0.4-4.3,1.3-3.9,3.3
						c0.3,1.2,1.2,1.6,2.2,1.4c1.4-0.3,2-1.3,2.1-2.3c0-0.2,0-0.4,0-0.6L154.7,293z"/>
					<path class="st1" d="M159,286.7l3.3,5.4c0.5,0.9,1,1.7,1.4,2.5l0.1,0c0.1-0.9,0.2-1.8,0.3-2.9l0.8-6.3l2-0.4l-1.8,11.3
						l-1.8,0.4l-6.2-9.6L159,286.7z"/>
					<path class="st1" d="M170.7,290c0.6,2.5,2.5,3.2,4.3,2.8c1.4-0.3,2.1-0.7,2.8-1.2l0.6,1.3c-0.6,0.4-1.7,1-3.3,1.4
						c-3.2,0.7-5.6-1-6.2-4.1s0.6-6,3.7-6.7c3.4-0.7,4.9,2.1,5.4,4c0.1,0.4,0.1,0.7,0.1,0.9L170.7,290z M175.9,287.4
						c-0.2-1.2-1.2-3-3.3-2.5c-1.9,0.4-2.4,2.4-2.2,3.7L175.9,287.4z"/>
					<path class="st1" d="M178.1,277.5l1.9-0.4l3.3,15.3l-1.9,0.4L178.1,277.5z"/>
					<path class="st1" d="M185.6,290.7c-0.2-0.8,0.2-1.5,1-1.6s1.4,0.3,1.6,1.1c0.2,0.8-0.2,1.5-1,1.6
						C186.4,291.9,185.8,291.5,185.6,290.7z"/>
					<path class="st1" d="M192.2,285.7l-0.5,4.9l-1.9,0.4l1.8-15.5l2.3-0.5l8.1,13.4l-2,0.4l-2.5-4.2L192.2,285.7z M196.6,283.2
						l-2.3-3.9c-0.5-0.9-0.9-1.7-1.3-2.5l0,0c0,0.9-0.1,1.8-0.2,2.8l-0.5,4.5L196.6,283.2z"/>
					<path class="st1" d="M200.5,272.7l1.9-0.4l3.3,15.3l-1.9,0.4L200.5,272.7z"/>
					<path class="st1" d="M205.6,271.6l1.9-0.4l3.3,15.3l-1.9,0.4L205.6,271.6z"/>
				</g>
				
					<rect x="77.1" y="289.7" transform="matrix(0.9776 -0.2106 0.2106 0.9776 -62.9841 23.2319)" class="st1" width="1.1" height="35.4"/>
			</g>
		</g>
		<g>
			
				<linearGradient id="SVGID_2_" gradientUnits="userSpaceOnUse" x1="147.7468" y1="47.7664" x2="147.7468" y2="159.1739" gradientTransform="matrix(0.9776 -0.2106 0.2106 0.9776 -54.9439 38.6559)">
				<stop  offset="7.389162e-002" style="stop-color:#13A9E0"/>
				<stop  offset="1" style="stop-color:#0995C3"/>
			</linearGradient>
			<path class="st4" d="M124.1,98.9c0,0-12.4-13.6-12.4-13.5c0,0,0,0-0.1-0.1l-1-0.8c-1.1-0.8-2.8-1.5-4.4-0.4
				c-0.8,0.6-1.4,1.6-1.4,3.7l1.1,13.7c0.3,3.7-2.5,7.4-6.1,8.2l-5.5,1.2c0.1,0.6,0.3,1.3,0.4,1.9c14.7-3.2,24.2-7.5,24.2-7.5
				c2.7-1.2,5.4-1.7,7.8-1.4c0-0.3,0.1-0.6,0.1-0.9c0.1-0.8,0.2-1.7,0.2-2.5C126,100.1,125,99.6,124.1,98.9z"/>
			
				<linearGradient id="SVGID_3_" gradientUnits="userSpaceOnUse" x1="112.723" y1="47.7664" x2="112.723" y2="159.1739" gradientTransform="matrix(0.9776 -0.2106 0.2106 0.9776 -54.9439 38.6559)">
				<stop  offset="7.389162e-002" style="stop-color:#13A9E0"/>
				<stop  offset="1" style="stop-color:#0995C3"/>
			</linearGradient>
			<path class="st5" d="M68.7,116c0,0,10.6,0,25.2-3.1c-0.1-0.6-0.3-1.3-0.4-1.9l-5.6,1.2c-3.7,0.8-7.7-1.4-8.9-5l-4.7-12.9
				c-0.8-1.9-1.8-2.6-2.8-2.8c-2-0.4-3.2,1-3.9,2.1L67,94.8C67,94.9,67,95,67,95c0,0-5.7,17.4-5.7,17.4c-0.5,1.1-1.2,1.9-2,2.6
				c0.4,0.7,0.8,1.5,1.3,2.2c0.1,0.2,0.3,0.5,0.4,0.7C63,116.7,65.7,116,68.7,116z"/>
			
				<linearGradient id="SVGID_4_" gradientUnits="userSpaceOnUse" x1="116.8512" y1="47.7664" x2="116.8512" y2="159.1739" gradientTransform="matrix(0.9776 -0.2106 0.2106 0.9776 -54.9439 38.6559)">
				<stop  offset="7.389162e-002" style="stop-color:#13A9E0"/>
				<stop  offset="1" style="stop-color:#0995C3"/>
			</linearGradient>
			<path class="st6" d="M73.7,137.4c-0.4,0-0.8,0-1.2,0c4.9,8,9.8,15.9,14.6,23.7c3.1,4.9,6.2,10,9.3,15c3.4-0.4,7-0.8,10.7-1.5
				c-2.8-13.1-5.8-26.8-8.7-40.4c-0.1,0-0.2,0-0.3,0.1C87.5,136.5,73.7,137.4,73.7,137.4z"/>
			
				<linearGradient id="SVGID_5_" gradientUnits="userSpaceOnUse" x1="143.6468" y1="47.7664" x2="143.6468" y2="159.1739" gradientTransform="matrix(0.9776 -0.2106 0.2106 0.9776 -54.9439 38.6559)">
				<stop  offset="7.389162e-002" style="stop-color:#13A9E0"/>
				<stop  offset="1" style="stop-color:#0995C3"/>
			</linearGradient>
			<path class="st7" d="M118.2,171.4c0.8-5.8,1.6-11.8,2.3-17.5c1.2-9.1,2.4-18.3,3.6-27.6c-0.4,0.2-0.7,0.3-1.1,0.5
				c0,0-7.7,3.6-23.8,7.2c2.9,13.7,5.9,27.4,8.7,40.4C111.6,173.5,115.1,172.4,118.2,171.4z"/>
			
				<linearGradient id="SVGID_6_" gradientUnits="userSpaceOnUse" x1="79.2232" y1="47.7664" x2="79.2232" y2="159.1739" gradientTransform="matrix(0.9776 -0.2106 0.2106 0.9776 -54.9439 38.6559)">
				<stop  offset="7.389162e-002" style="stop-color:#13A9E0"/>
				<stop  offset="1" style="stop-color:#0995C3"/>
			</linearGradient>
			<path class="st8" d="M82.6,177c0.8,0,1.9-0.1,3.3-0.1c-17.3-15.4-29.8-28.2-40.5-41.3c-9.8-12.1-20.7-26.8-26.9-44.4
				c-4.8-13.6-5.4-28.2-1.8-43.2C8.6,56.2,6.4,66.6,6,77.7c-0.5,17.7,7.8,31.9,18.2,45.1c16.5,20.9,36.9,37.7,57.4,54.3
				C81.9,177,82.2,177,82.6,177z"/>
			
				<linearGradient id="SVGID_7_" gradientUnits="userSpaceOnUse" x1="181.2093" y1="47.7664" x2="181.2093" y2="159.1739" gradientTransform="matrix(0.9776 -0.2106 0.2106 0.9776 -54.9439 38.6559)">
				<stop  offset="7.389162e-002" style="stop-color:#13A9E0"/>
				<stop  offset="1" style="stop-color:#0995C3"/>
			</linearGradient>
			<path class="st9" d="M160.1,44.5c-4.9-9.9-11.2-18.5-22-22.7c9.4,12.2,14.9,25.7,16.1,40.1c1.6,18.6-2.2,36.5-6.2,51.6
				c-4.3,16.3-10.5,33.1-19.9,54.3c1.3-0.5,2.3-0.9,3.1-1.2c0.4-0.1,0.6-0.3,0.9-0.3c11.9-23.6,23.6-47.3,30-73.1
				C166.2,76.7,167.9,60.4,160.1,44.5z"/>
			
				<linearGradient id="SVGID_8_" gradientUnits="userSpaceOnUse" x1="130.2164" y1="47.7664" x2="130.2164" y2="159.1739" gradientTransform="matrix(0.9776 -0.2106 0.2106 0.9776 -54.9439 38.6559)">
				<stop  offset="7.389162e-002" style="stop-color:#13A9E0"/>
				<stop  offset="1" style="stop-color:#0995C3"/>
			</linearGradient>
			<path class="st10" d="M131.6,167.3C131.6,167.3,131.6,167.3,131.6,167.3c-3.7,1.5-13.3,5.4-23.9,8c-10.7,2-21.1,2.4-25.1,2.5
				c0,0,0,0,0,0c0.5,0.4,0.9,0.8,1.4,1.2c5.8,7.4,14.7,16.6,15,16.9c0,0,0,0,0.1,0c0,0.1,0.1,0.2,0.1,0.2c0.5,1.1,4.1,9.2,5.5,12.1
				c0.2,0.4,0.4,0.8,0.3,1.3c0,0.2,0,0.5,0,0.7c0.1,4.9,0.3,9.7,0.4,14.6c0,0.2,0,0.4,0,0.6c-0.4,0.3-0.9,0.3-1.3,0.4
				c-0.5,0.2-0.8,0.6-0.7,1.1c0.1,0.6,0.5,1,1.2,1c0.3,0,0.7-0.3,1.1-0.1c0.1,0.3,0.2,0.7,0.3,1c0.5,2.3,0.9,4.7,1.5,7
				c0.4,1.7,0.8,3.5,1.3,5.2c0.7,2.6,2.6,3.9,5.1,3.8c1.1,0,2.2-0.1,3.3-0.4c3.1-0.6,6.1-1.3,9.2-2c1.6-0.4,3.1-0.9,4.6-1.4
				c1.8-0.6,2.8-1.9,3-3.9c0-0.3,0-0.6,0-0.9c0-1-0.2-2-0.4-3.1c-0.7-3.5-1.4-7-2.1-10.4c0-0.2,0-0.4,0-0.6c0.2-0.1,0.4-0.1,0.6-0.2
				c0.2-0.1,0.3-0.1,0.5-0.2c0.4-0.2,0.5-0.6,0.4-1c-0.1-0.6-0.6-0.9-1.3-0.9c-0.3,0-0.6,0-0.9,0.1c-0.1-0.3-0.3-0.5-0.3-0.7
				c-2-4.8-4-9.6-6-14.3c-0.1-0.2-0.1-0.4-0.1-0.6c0-0.8,0-1.6,0-2.5c0-3.7,0-7.4,0-11.1c0-0.2,0-0.4,0.1-0.5l-0.3,0.1
				c0.6-1.6,4.6-12.8,6.8-21.4C131,168.4,131.3,167.8,131.6,167.3z M120,192.3c0.1,0.2,0.2,0.3,0.2,0.4c0.8,3.5,1.5,7.1,2.3,10.6
				c0,0.1,0,0.2,0,0.3c-0.6-0.9-3.8-7.9-4.8-10.4C118.5,192.9,119.2,192.6,120,192.3z M107,195.6c1.7-0.3,3.4-0.5,5.1-0.9
				c1.6-0.3,3.2-0.8,4.9-1.2c1.8,3.9,3.5,7.7,5.2,11.6c-0.3,0.3-0.8,0.3-1.1,0.4c-0.4,0.1-0.8,0.2-1.2,0.3c-0.1-0.2-0.2-0.4-0.3-0.6
				c-0.1-0.5-0.2-1-0.3-1.5c-0.2-1.3-1.5-1.8-2.5-1.6c-1.5,0.3-2.2,1.3-1.9,2.8c0.1,0.5,0.2,1,0.3,1.6c0,0.1,0,0.1,0,0.3
				c-0.4,0.2-1,0.3-1.5,0.3c-0.1-0.3-0.2-0.5-0.2-0.7c-0.1-0.4-0.2-0.9-0.3-1.4c-0.2-1-1.3-1.9-2.5-1.6c-0.2,0-0.3,0.1-0.5,0.1
				c-0.9,0.3-1.5,1.2-1.4,2.1c0,0.4,0.2,0.8,0.2,1.3c0.1,0.3,0.1,0.7,0.2,1.1c-0.7,0.3-1.4,0.4-2.1,0.5c-0.1-0.2-0.1-0.4-0.1-0.5
				c0-4,0-8.1,0-12.1C106.9,195.8,107,195.7,107,195.6z M103.7,195.8c0.8,0,1.6-0.1,2.4-0.1c0,0,0,0,0,0c0,0.2,0.1,0.4,0.1,0.6
				c0,3.6,0,7.2,0,10.8C105.8,206.4,103.7,196.6,103.7,195.8z M100,195.9C100,195.9,100,195.8,100,195.9c0.4-0.1,0.8-0.2,1.2-0.2
				c0.5,0,1,0,1.5,0.1c0.3,0.8,1.3,4.8,2.6,11.5c-0.1,0-0.1-0.1-0.2-0.1C103.4,203.4,101.7,199.6,100,195.9z M128.6,220.5
				c-0.2,0.1-0.3,0.1-0.5,0.2c-6.8,1.5-13.7,3-20.4,4.5c-0.3-0.2-0.3-0.4-0.3-0.6c-0.1-2.8-0.1-5.5-0.2-8.3c0-1.8-0.1-3.7-0.1-5.6
				c0.9-0.2,1.7-0.4,2.5-0.5c0.3,0.5,0.7,1.1,1.3,1.3c0.4,0.1,0.8,0.2,1.3,0.1c1.1-0.2,1.6-0.7,2-2.3c0.1,0,0.3-0.1,0.4-0.1
				c0.3-0.1,0.7-0.2,1-0.2c0.3,0.1,0.4,0.4,0.5,0.6c0.6,0.8,1.4,1,2.4,0.8c1-0.2,1.6-0.8,1.8-1.8c0-0.2,0-0.3,0.1-0.6
				c0.9-0.3,1.8-0.5,2.7-0.6C123.5,208,128.3,219.3,128.6,220.5z M123.4,202.9c0,0.2-0.1,0.5-0.1,0.7c-0.8-3.9-1.7-7.7-2.5-11.6
				c0.4-0.3,0.9-0.5,1.3-0.7c0.4-0.2,0.8-0.4,1.3-0.6C123.5,194.8,123.4,198.9,123.4,202.9z"/>
			
				<linearGradient id="SVGID_9_" gradientUnits="userSpaceOnUse" x1="151.5991" y1="47.7664" x2="151.5991" y2="159.1739" gradientTransform="matrix(0.9776 -0.2106 0.2106 0.9776 -54.9439 38.6559)">
				<stop  offset="7.389162e-002" style="stop-color:#13A9E0"/>
				<stop  offset="1" style="stop-color:#0995C3"/>
			</linearGradient>
			<path class="st11" d="M123.7,48.8c-2.7-10.5-5.9-18.4-9.9-24.9c-4.3-7-7.1-9.4-10.1-12c-0.1,0-0.1-0.1-0.2-0.1l0,0l0,0
				c-0.8-0.7-1.6-1.4-2.5-2.3l0,0l-0.8-0.7c-1.3-0.5-2.6-1-3.9-1.5c-8.8-3.1-17.3-1.1-23.2,5.5l0,0l0,0l5.6,26.2
				c6-1.1,11.9,2.8,13.2,8.9c1.3,6-2.4,12-8.4,13.5c0.2,0.7,0.3,1.4,0.5,2.2c1.2-0.2,2.6-0.5,4.2-0.7c5.5-0.6,17.3-0.9,22.5,5.3
				l17,18.4C128,72.7,126.7,60.3,123.7,48.8z"/>
			
				<linearGradient id="SVGID_10_" gradientUnits="userSpaceOnUse" x1="108.861" y1="47.7664" x2="108.861" y2="159.1739" gradientTransform="matrix(0.9776 -0.2106 0.2106 0.9776 -54.9439 38.6559)">
				<stop  offset="7.389162e-002" style="stop-color:#13A9E0"/>
				<stop  offset="1" style="stop-color:#0995C3"/>
			</linearGradient>
			<path class="st12" d="M48.9,17.6c-1,0.9-1.9,1.9-2.8,2.9l-0.7,1.4l0,0c-0.4,1-0.9,2-1.3,2.9c-1.7,3.6-3.2,7-4.3,15.1
				c-1,7.6-0.6,16.1,1.3,26.7c2,11.6,5.9,23.5,11.9,36.1L60.8,79c2.2-7.8,13.1-12.4,18.3-14.1c1.6-0.5,3-0.8,4.1-1.1
				c-0.2-0.7-0.3-1.4-0.5-2.2c-6,1.1-11.9-2.8-13.2-8.8c-1.3-6.1,2.4-12,8.4-13.5l-5.5-25.6l-0.1-0.5C64.2,9.5,55.6,11.1,48.9,17.6z
				"/>
			
				<linearGradient id="SVGID_11_" gradientUnits="userSpaceOnUse" x1="89.6064" y1="47.7664" x2="89.6064" y2="159.1739" gradientTransform="matrix(0.9776 -0.2106 0.2106 0.9776 -54.9439 38.6559)">
				<stop  offset="7.389162e-002" style="stop-color:#13A9E0"/>
				<stop  offset="1" style="stop-color:#0995C3"/>
			</linearGradient>
			<path class="st13" d="M86.5,161.5c-4.9-7.9-9.9-16-14.9-24.1c-7.8-0.3-13.9-2.9-15.2-9.1c-0.9-4,0.7-7.6,3.9-9.9
				c-0.1-0.3-0.3-0.5-0.4-0.8c-0.4-0.7-0.8-1.4-1.2-2.1c-1.6,1.1-3.6,1.4-5.3,0.6c-2.8-1.3-3.7-5.1-2.1-8.5l1.3-3.8
				c-6.2-12.9-10.2-25.1-12.3-37C38.4,56,38,47.5,39,39.8c1.1-8.3,2.7-11.9,4.3-15.4c0.4-0.9,0.9-1.9,1.3-3
				c-13.1,3.5-21.5,12-26.7,24l-0.4,2l0,0c-3.7,15.1-3.1,29.7,1.7,43.4c6.2,17.5,17,32.2,26.7,44.2c10.8,13.3,23.4,26.2,41,41.8
				c2.4-0.1,5.3-0.3,8.6-0.6C92.6,171.3,89.5,166.3,86.5,161.5z"/>
			
				<linearGradient id="SVGID_12_" gradientUnits="userSpaceOnUse" x1="170.8262" y1="47.7664" x2="170.8262" y2="159.1739" gradientTransform="matrix(0.9776 -0.2106 0.2106 0.9776 -54.9439 38.6559)">
				<stop  offset="7.389162e-002" style="stop-color:#13A9E0"/>
				<stop  offset="1" style="stop-color:#0995C3"/>
			</linearGradient>
			<path class="st14" d="M137.1,21.7L137.1,21.7l-1.5-1.9C126.1,11.1,115,7,101.8,9.2c0.8,0.8,1.6,1.5,2.4,2.2
				c2.9,2.5,5.9,5.1,10.3,12.2c4,6.6,7.2,14.5,10,25.1c3,11.7,4.4,24.5,4.1,38.8l2.7,3c2.8,2.4,3.6,6.3,1.6,8.6
				c-1.2,1.4-3.1,1.9-5.1,1.6c-0.1,0.8-0.1,1.6-0.2,2.4c0,0.3-0.1,0.6-0.1,0.9c3.8,0.7,6.8,3.3,7.6,7.4c1.3,6.2-3.7,11.1-10.1,14.5
				c-1.2,9.5-2.4,18.9-3.7,28.2c-0.8,5.6-1.5,11.4-2.3,17.1c3.1-1,5.8-2.1,8.1-2.9c9.6-21.5,15.8-38.5,20.2-55
				c4-15,7.8-32.8,6.2-51.3C152.2,47.5,146.7,33.9,137.1,21.7z"/>
		</g>
	</g>
	<g>
		<path class="st0" d="M320.3,276.3h-65.1c-6.1-2.3-6-7.3-6-7.3l0-0.3c0-2.6,0.1-5.2,0.1-7.7c1.2-1.3,1.9-3,1.8-4.9
			c0-2.2-1.1-4.2-2.7-5.5c-0.7-3.7-1.2-6.7-1.9-10.4c-0.4-1.8,0.1-3.5,0.1-3.5l0-0.1c1.3-6.1,3.5-11.7,6.5-17.1l0.5-0.9
			c1.3-2.2,3.2-5.6,4.6-8.2c1.3-2.2,2.7-4.4,4.3-6.4c17.2-21.4,32.4-41.2,43.6-64c4.6-9.3,7.4-17.1,9-24.6c2-9.6,1.9-18.5-0.3-27.4
			c-1.7-6.8-3.8-12.3-6.6-17c-3.2-5.5-7.2-9.8-12.3-13.2c-8.9-13-20.7-20.1-35.1-21.1c-1-0.7-2.1-1.4-3.2-2.1
			c-4.7-2.9-9.9-4.5-14.9-4.5c-4.4,0-8.6,1.1-12.5,3.3h0c-3.9-2.1-8.2-3.3-12.5-3.3c-5.1,0-10.2,1.5-14.9,4.5
			c-1.1,0.7-2.2,1.4-3.2,2.1c-14.4,1-26.2,8.1-35.1,21.1c-5,3.4-9.1,7.7-12.3,13.2c-2.7,4.7-4.9,10.2-6.6,17
			c-2.2,8.9-2.3,17.9-0.3,27.4c1.6,7.5,4.4,15.3,9,24.6c11.2,22.8,26.4,42.6,43.6,64c1.6,2,3.1,4.1,4.3,6.4c1.4,2.5,3.3,5.9,4.6,8.2
			l0.5,0.9c3,5.5,5.1,11,6.5,17.1l0,0.1c0,0,0.4,1.7,0.1,3.5c-0.7,3.7-1.3,6.7-1.9,10.4c-1.6,1.3-2.7,3.3-2.7,5.5
			c0,1.9,0.6,3.6,1.8,4.9c0,2.6,0.1,5.1,0.1,7.7l0,0.4c0,0,0.1,5-6,7.3h-65.8c-4.9,0-9.4,3.7-9.4,8.6V343c0,4.9,4.5,8.9,9.4,8.9h181
			c4.9,0,8.9-4,8.9-8.9v-58.1C329.2,280,325.2,276.3,320.3,276.3z"/>
		<path class="st1" d="M319.4,273.8h-65.1c-6.1-2.3-6-7.3-6-7.3l0-0.3c0-2.6,0.1-5.2,0.1-7.7c1.2-1.3,1.9-3,1.8-4.9
			c0-2.2-1.1-4.2-2.7-5.5c-0.7-3.7-1.2-6.7-1.9-10.4c-0.4-1.8,0.1-3.5,0.1-3.5l0-0.1c1.3-6.1,3.5-11.7,6.5-17.1l0.5-0.9
			c1.3-2.2,3.2-5.6,4.6-8.2c1.3-2.2,2.7-4.4,4.3-6.4c17.2-21.4,32.4-41.2,43.6-64c4.6-9.3,7.4-17.1,9-24.6c2-9.6,1.9-18.5-0.3-27.4
			c-1.7-6.8-3.8-12.3-6.6-17c-3.2-5.5-7.2-9.8-12.3-13.2c-8.9-13-20.7-20.1-35.1-21.1c-1-0.7-2.1-1.4-3.2-2.1
			c-4.7-2.9-9.9-4.5-14.9-4.5c-4.4,0-8.6,1.1-12.5,3.3h0c-3.9-2.1-8.2-3.3-12.5-3.3c-5.1,0-10.2,1.5-14.9,4.5
			c-1.1,0.7-2.2,1.4-3.2,2.1c-14.4,1-26.2,8.1-35.1,21.1c-5,3.4-9.1,7.7-12.3,13.2c-2.7,4.7-4.9,10.2-6.6,17
			c-2.2,8.9-2.3,17.9-0.3,27.4c1.6,7.5,4.4,15.3,9,24.6c11.2,22.8,26.4,42.6,43.6,64c1.6,2,3.1,4.1,4.3,6.4c1.4,2.5,3.3,5.9,4.6,8.2
			l0.5,0.9c3,5.5,5.1,11,6.5,17.1l0,0.1c0,0,0.4,1.7,0.1,3.5c-0.7,3.7-1.3,6.7-1.9,10.4c-1.6,1.3-2.7,3.3-2.7,5.5
			c0,1.9,0.6,3.6,1.8,4.9c0,2.6,0.1,5.1,0.1,7.7l0,0.4c0,0,0.1,5-6,7.3h-65.8c-4.9,0-9.4,3.7-9.4,8.6v58.1c0,4.9,4.5,8.9,9.4,8.9
			h181c4.9,0,8.9-4,8.9-8.9v-58.1C328.3,277.5,324.3,273.8,319.4,273.8z"/>
		<g>
			<linearGradient id="SVGID_13_" gradientUnits="userSpaceOnUse" x1="155.2585" y1="293.3359" x2="160.163" y2="293.3359">
				<stop  offset="0" style="stop-color:#95C90C"/>
				<stop  offset="0.9947" style="stop-color:#93C70A"/>
			</linearGradient>
			<path class="st15" d="M155.3,291.6c0-1.2,0-2.1-0.1-3h1.6l0.1,1.9h0.1c0.4-1.3,1.5-2.1,2.7-2.1c0.2,0,0.3,0,0.5,0.1v1.7
				c-0.2,0-0.4-0.1-0.6-0.1c-1.3,0-2.1,0.9-2.4,2.3c0,0.2-0.1,0.5-0.1,0.8v5.2h-1.8V291.6z"/>
			<linearGradient id="SVGID_14_" gradientUnits="userSpaceOnUse" x1="161.0307" y1="293.4368" x2="169.649" y2="293.4368">
				<stop  offset="0" style="stop-color:#95C90C"/>
				<stop  offset="0.9947" style="stop-color:#93C70A"/>
			</linearGradient>
			<path class="st16" d="M162.7,293.8c0,2.4,1.6,3.4,3.4,3.4c1.3,0,2-0.2,2.7-0.5l0.3,1.3c-0.6,0.3-1.7,0.6-3.2,0.6
				c-3,0-4.8-2-4.8-4.9c0-2.9,1.7-5.3,4.6-5.3c3.2,0,4,2.8,4,4.6c0,0.4,0,0.6-0.1,0.8H162.7z M167.9,292.5c0-1.1-0.5-2.9-2.5-2.9
				c-1.8,0-2.6,1.7-2.7,2.9H167.9z"/>
			<linearGradient id="SVGID_15_" gradientUnits="userSpaceOnUse" x1="171.1421" y1="293.447" x2="178.8521" y2="293.447">
				<stop  offset="0" style="stop-color:#95C90C"/>
				<stop  offset="0.9947" style="stop-color:#93C70A"/>
			</linearGradient>
			<path class="st17" d="M178.8,298c-0.5,0.2-1.5,0.6-2.8,0.6c-2.9,0-4.9-2-4.9-5c0-3,2.1-5.2,5.2-5.2c1,0,2,0.3,2.5,0.5l-0.4,1.4
				c-0.4-0.2-1.1-0.5-2.1-0.5c-2.2,0-3.5,1.7-3.5,3.7c0,2.3,1.5,3.7,3.4,3.7c1,0,1.7-0.3,2.2-0.5L178.8,298z"/>
			<linearGradient id="SVGID_16_" gradientUnits="userSpaceOnUse" x1="180.063" y1="293.4469" x2="189.6097" y2="293.4469">
				<stop  offset="0" style="stop-color:#95C90C"/>
				<stop  offset="0.9947" style="stop-color:#93C70A"/>
			</linearGradient>
			<path class="st18" d="M189.6,293.4c0,3.6-2.5,5.2-4.9,5.2c-2.6,0-4.7-1.9-4.7-5c0-3.3,2.1-5.2,4.8-5.2
				C187.7,288.3,189.6,290.4,189.6,293.4z M181.9,293.5c0,2.1,1.2,3.8,3,3.8c1.7,0,3-1.6,3-3.8c0-1.7-0.8-3.8-2.9-3.8
				C182.8,289.7,181.9,291.6,181.9,293.5z"/>
			<linearGradient id="SVGID_17_" gradientUnits="userSpaceOnUse" x1="191.7689" y1="293.3359" x2="205.7963" y2="293.3359">
				<stop  offset="0" style="stop-color:#95C90C"/>
				<stop  offset="0.9947" style="stop-color:#93C70A"/>
			</linearGradient>
			<path class="st19" d="M191.8,291.2c0-1,0-1.8-0.1-2.6h1.6l0.1,1.6h0.1c0.5-0.9,1.5-1.8,3.1-1.8c1.3,0,2.3,0.8,2.8,2h0
				c0.3-0.5,0.7-1,1.1-1.3c0.6-0.4,1.2-0.7,2.2-0.7c1.3,0,3.2,0.8,3.2,4.2v5.8h-1.7v-5.5c0-1.9-0.7-3-2.1-3c-1,0-1.8,0.7-2.1,1.6
				c-0.1,0.2-0.1,0.6-0.1,0.9v6H198v-5.9c0-1.6-0.7-2.7-2-2.7c-1.1,0-1.9,0.9-2.2,1.8c-0.1,0.3-0.1,0.6-0.1,0.9v5.9h-1.7V291.2z"/>
			<linearGradient id="SVGID_18_" gradientUnits="userSpaceOnUse" x1="208.6013" y1="293.3359" x2="222.6287" y2="293.3359">
				<stop  offset="0" style="stop-color:#95C90C"/>
				<stop  offset="0.9947" style="stop-color:#93C70A"/>
			</linearGradient>
			<path class="st20" d="M208.7,291.2c0-1,0-1.8-0.1-2.6h1.6l0.1,1.6h0.1c0.5-0.9,1.5-1.8,3.1-1.8c1.3,0,2.3,0.8,2.8,2h0
				c0.3-0.5,0.7-1,1.1-1.3c0.6-0.4,1.2-0.7,2.2-0.7c1.3,0,3.2,0.8,3.2,4.2v5.8h-1.7v-5.5c0-1.9-0.7-3-2.1-3c-1,0-1.8,0.7-2.1,1.6
				c-0.1,0.2-0.1,0.6-0.1,0.9v6h-1.7v-5.9c0-1.6-0.7-2.7-2-2.7c-1.1,0-1.9,0.9-2.2,1.8c-0.1,0.3-0.1,0.6-0.1,0.9v5.9h-1.7V291.2z"/>
			<linearGradient id="SVGID_19_" gradientUnits="userSpaceOnUse" x1="224.808" y1="293.4368" x2="233.4263" y2="293.4368">
				<stop  offset="0" style="stop-color:#95C90C"/>
				<stop  offset="0.9947" style="stop-color:#93C70A"/>
			</linearGradient>
			<path class="st21" d="M226.5,293.8c0,2.4,1.6,3.4,3.4,3.4c1.3,0,2-0.2,2.7-0.5l0.3,1.3c-0.6,0.3-1.7,0.6-3.2,0.6
				c-3,0-4.8-2-4.8-4.9c0-2.9,1.7-5.3,4.6-5.3c3.2,0,4,2.8,4,4.6c0,0.4,0,0.6-0.1,0.8H226.5z M231.7,292.5c0-1.1-0.5-2.9-2.5-2.9
				c-1.8,0-2.6,1.7-2.7,2.9H231.7z"/>
			<linearGradient id="SVGID_20_" gradientUnits="userSpaceOnUse" x1="235.5451" y1="293.3359" x2="243.9414" y2="293.3359">
				<stop  offset="0" style="stop-color:#95C90C"/>
				<stop  offset="0.9947" style="stop-color:#93C70A"/>
			</linearGradient>
			<path class="st22" d="M235.6,291.2c0-1,0-1.8-0.1-2.6h1.6l0.1,1.6h0c0.5-0.9,1.6-1.8,3.2-1.8c1.4,0,3.5,0.8,3.5,4.2v5.8h-1.8
				v-5.6c0-1.6-0.6-2.9-2.3-2.9c-1.2,0-2.1,0.8-2.4,1.8c-0.1,0.2-0.1,0.5-0.1,0.8v5.9h-1.8V291.2z"/>
			<linearGradient id="SVGID_21_" gradientUnits="userSpaceOnUse" x1="246.1206" y1="291.2772" x2="255.3445" y2="291.2772">
				<stop  offset="0" style="stop-color:#95C90C"/>
				<stop  offset="0.9947" style="stop-color:#93C70A"/>
			</linearGradient>
			<path class="st23" d="M255.3,284v11.8c0,0.9,0,1.9,0.1,2.5h-1.6l-0.1-1.7h0c-0.5,1.1-1.7,1.9-3.3,1.9c-2.4,0-4.2-2-4.2-5
				c0-3.2,2-5.2,4.4-5.2c1.5,0,2.5,0.7,2.9,1.5h0V284H255.3z M253.5,292.5c0-0.2,0-0.5-0.1-0.7c-0.3-1.1-1.2-2.1-2.6-2.1
				c-1.8,0-2.9,1.6-2.9,3.8c0,2,1,3.6,2.9,3.6c1.2,0,2.3-0.8,2.6-2.1c0.1-0.2,0.1-0.5,0.1-0.8V292.5z"/>
			<linearGradient id="SVGID_22_" gradientUnits="userSpaceOnUse" x1="257.5037" y1="293.4368" x2="266.1219" y2="293.4368">
				<stop  offset="0" style="stop-color:#95C90C"/>
				<stop  offset="0.9947" style="stop-color:#93C70A"/>
			</linearGradient>
			<path class="st24" d="M259.2,293.8c0,2.4,1.6,3.4,3.4,3.4c1.3,0,2-0.2,2.7-0.5l0.3,1.3c-0.6,0.3-1.7,0.6-3.2,0.6
				c-3,0-4.8-2-4.8-4.9c0-2.9,1.7-5.3,4.6-5.3c3.2,0,4,2.8,4,4.6c0,0.4,0,0.6-0.1,0.8H259.2z M264.4,292.5c0-1.1-0.5-2.9-2.5-2.9
				c-1.8,0-2.6,1.7-2.7,2.9H264.4z"/>
			<linearGradient id="SVGID_23_" gradientUnits="userSpaceOnUse" x1="267.6149" y1="291.2772" x2="276.8389" y2="291.2772">
				<stop  offset="0" style="stop-color:#95C90C"/>
				<stop  offset="0.9947" style="stop-color:#93C70A"/>
			</linearGradient>
			<path class="st25" d="M276.8,284v11.8c0,0.9,0,1.9,0.1,2.5h-1.6l-0.1-1.7h0c-0.5,1.1-1.7,1.9-3.3,1.9c-2.4,0-4.2-2-4.2-5
				c0-3.2,2-5.2,4.4-5.2c1.5,0,2.5,0.7,2.9,1.5h0V284H276.8z M275,292.5c0-0.2,0-0.5-0.1-0.7c-0.3-1.1-1.2-2.1-2.6-2.1
				c-1.8,0-2.9,1.6-2.9,3.8c0,2,1,3.6,2.9,3.6c1.2,0,2.3-0.8,2.6-2.1c0.1-0.2,0.1-0.5,0.1-0.8V292.5z"/>
			<linearGradient id="SVGID_24_" gradientUnits="userSpaceOnUse" x1="283.2766" y1="293.4469" x2="292.8233" y2="293.4469">
				<stop  offset="0" style="stop-color:#95C90C"/>
				<stop  offset="0.9947" style="stop-color:#93C70A"/>
			</linearGradient>
			<path class="st26" d="M292.8,293.4c0,3.6-2.5,5.2-4.9,5.2c-2.6,0-4.7-1.9-4.7-5c0-3.3,2.1-5.2,4.8-5.2
				C290.9,288.3,292.8,290.4,292.8,293.4z M285.1,293.5c0,2.1,1.2,3.8,3,3.8c1.7,0,3-1.6,3-3.8c0-1.7-0.8-3.8-2.9-3.8
				C286,289.7,285.1,291.6,285.1,293.5z"/>
			<linearGradient id="SVGID_25_" gradientUnits="userSpaceOnUse" x1="294.9826" y1="293.3359" x2="303.3788" y2="293.3359">
				<stop  offset="0" style="stop-color:#95C90C"/>
				<stop  offset="0.9947" style="stop-color:#93C70A"/>
			</linearGradient>
			<path class="st27" d="M295.1,291.2c0-1,0-1.8-0.1-2.6h1.6l0.1,1.6h0c0.5-0.9,1.6-1.8,3.2-1.8c1.4,0,3.5,0.8,3.5,4.2v5.8h-1.8
				v-5.6c0-1.6-0.6-2.9-2.3-2.9c-1.2,0-2.1,0.8-2.4,1.8c-0.1,0.2-0.1,0.5-0.1,0.8v5.9h-1.8V291.2z"/>
		</g>
		<g>
			<g>
				<linearGradient id="SVGID_26_" gradientUnits="userSpaceOnUse" x1="228.6997" y1="293.5123" x2="228.6997" y2="339.4621">
					<stop  offset="1.063830e-002" style="stop-color:#A7DB21"/>
					<stop  offset="0.9947" style="stop-color:#93C70A"/>
				</linearGradient>
				<path class="st28" d="M317.9,344.3c3.1,0,5.5-2.5,5.5-5.5v-24.3c0-3.1-2.5-5.5-5.5-5.5H139.5c-3.1,0-5.5,2.5-5.5,5.5v24.3
					c0,3.1,2.5,5.5,5.5,5.5H317.9z"/>
				<path class="st1" d="M158.4,344.3v-13.7h4.6l0.7-5.3h-5.3v-3.4c0-1.5,0.4-2.6,2.6-2.6l2.8,0v-4.8c-0.5-0.1-2.2-0.2-4.1-0.2
					c-4.1,0-6.9,2.5-6.9,7.1v3.9h-4.6v5.3h4.6v13.7H158.4z"/>
			</g>
			<g>
				<g>
					<path class="st1" d="M186.2,334.2v-6.3l-4.7-8.5h2.2l2.1,4.1c0.6,1.1,1,2,1.5,3.1h0c0.4-1,0.9-1.9,1.5-3.1l2.1-4.1h2.2l-5,8.5
						v6.3H186.2z"/>
					<path class="st1" d="M202.7,328.8c0,3.9-2.7,5.6-5.3,5.6c-2.9,0-5.1-2.1-5.1-5.5c0-3.6,2.3-5.7,5.3-5.7
						C200.7,323.3,202.7,325.5,202.7,328.8z M194.3,328.9c0,2.3,1.3,4.1,3.2,4.1c1.8,0,3.2-1.7,3.2-4.1c0-1.8-0.9-4.1-3.2-4.1
						C195.3,324.7,194.3,326.8,194.3,328.9z"/>
					<path class="st1" d="M214.3,323.5c0,0.8-0.1,1.6-0.1,2.9v6.2c0,2.4-0.5,3.9-1.5,4.9c-1,1-2.5,1.3-3.9,1.3
						c-1.3,0-2.7-0.3-3.5-0.9l0.5-1.5c0.7,0.4,1.8,0.8,3.1,0.8c2,0,3.4-1,3.4-3.7v-1.2h0c-0.6,1-1.7,1.8-3.4,1.8
						c-2.6,0-4.5-2.2-4.5-5.2c0-3.6,2.4-5.7,4.8-5.7c1.8,0,2.9,1,3.3,1.8h0l0.1-1.6H214.3z M212.3,327.7c0-0.3,0-0.6-0.1-0.9
						c-0.4-1.1-1.3-2-2.7-2c-1.8,0-3.2,1.6-3.2,4c0,2.1,1.1,3.8,3.1,3.8c1.2,0,2.3-0.7,2.7-2c0.1-0.3,0.2-0.7,0.2-1V327.7z"/>
					<path class="st1" d="M223.4,334.2l-0.2-1.3h-0.1c-0.6,0.8-1.7,1.6-3.3,1.6c-2.2,0-3.3-1.5-3.3-3.1c0-2.6,2.3-4,6.4-4v-0.2
						c0-0.9-0.2-2.5-2.4-2.5c-1,0-2,0.3-2.8,0.8l-0.4-1.3c0.9-0.6,2.2-0.9,3.5-0.9c3.3,0,4,2.2,4,4.4v4c0,0.9,0,1.8,0.2,2.6H223.4z
						 M223.1,328.7c-2.1,0-4.5,0.3-4.5,2.4c0,1.3,0.8,1.8,1.8,1.8c1.4,0,2.3-0.9,2.6-1.8c0.1-0.2,0.1-0.4,0.1-0.6V328.7z"/>
					<path class="st1" d="M229.9,321h-4.5v-1.6h11v1.6h-4.5v13.2h-1.9V321z"/>
					<path class="st1" d="M237,326.8c0-1.3,0-2.3-0.1-3.3h1.7l0.1,2.1h0.1c0.5-1.4,1.6-2.3,2.9-2.3c0.2,0,0.4,0,0.5,0.1v1.8
						c-0.2,0-0.4-0.1-0.7-0.1c-1.4,0-2.3,1-2.6,2.5c0,0.3-0.1,0.6-0.1,0.9v5.7H237V326.8z"/>
					<path class="st1" d="M249.9,334.2l-0.2-1.3h-0.1c-0.6,0.8-1.7,1.6-3.3,1.6c-2.2,0-3.3-1.5-3.3-3.1c0-2.6,2.3-4,6.4-4v-0.2
						c0-0.9-0.2-2.5-2.4-2.5c-1,0-2,0.3-2.8,0.8l-0.4-1.3c0.9-0.6,2.2-0.9,3.5-0.9c3.3,0,4,2.2,4,4.4v4c0,0.9,0,1.8,0.2,2.6H249.9z
						 M249.6,328.7c-2.1,0-4.5,0.3-4.5,2.4c0,1.3,0.8,1.8,1.8,1.8c1.4,0,2.3-0.9,2.6-1.8c0.1-0.2,0.1-0.4,0.1-0.6V328.7z"/>
					<path class="st1" d="M255.2,323.5l2.1,6c0.4,1,0.6,1.8,0.9,2.7h0.1c0.2-0.9,0.5-1.8,0.9-2.7l2.1-6h2l-4.2,10.6h-1.8l-4-10.6
						H255.2z"/>
					<path class="st1" d="M265.9,329.2c0,2.6,1.7,3.7,3.6,3.7c1.4,0,2.2-0.2,2.9-0.5l0.3,1.4c-0.7,0.3-1.8,0.7-3.5,0.7
						c-3.3,0-5.2-2.2-5.2-5.4s1.9-5.7,5-5.7c3.5,0,4.4,3.1,4.4,5c0,0.4,0,0.7-0.1,0.9H265.9z M271.6,327.8c0-1.2-0.5-3.1-2.7-3.1
						c-2,0-2.8,1.8-3,3.1H271.6z"/>
					<path class="st1" d="M275.8,318.6h1.9v15.6h-1.9V318.6z"/>
					<path class="st1" d="M280.3,333c0-0.8,0.5-1.4,1.3-1.4s1.3,0.6,1.3,1.4c0,0.8-0.5,1.4-1.3,1.4
						C280.9,334.4,280.3,333.8,280.3,333z"/>
					<path class="st1" d="M287.8,329.5l-1.5,4.7h-2l5-14.8h2.3l5.1,14.8h-2l-1.6-4.7H287.8z M292.7,328l-1.5-4.3
						c-0.3-1-0.5-1.8-0.8-2.7h0c-0.2,0.9-0.5,1.8-0.7,2.7l-1.5,4.3H292.7z"/>
					<path class="st1" d="M298.7,318.6h1.9v15.6h-1.9V318.6z"/>
					<path class="st1" d="M303.9,318.6h1.9v15.6h-1.9V318.6z"/>
				</g>
				<rect x="170.7" y="308.9" class="st1" width="1.1" height="35.4"/>
			</g>
		</g>
		<g>
			<linearGradient id="SVGID_27_" gradientUnits="userSpaceOnUse" x1="246.8103" y1="85.1614" x2="246.8103" y2="168.3497">
				<stop  offset="1.063830e-002" style="stop-color:#A7DB21"/>
				<stop  offset="0.9947" style="stop-color:#93C70A"/>
			</linearGradient>
			<path class="st29" d="M261.4,132.5c0,0-9.2-15.9-9.2-15.8c0,0,0-0.1-0.1-0.1l-0.8-1c-0.9-1-2.4-2.1-4.2-1.3
				c-0.9,0.4-1.7,1.2-2.1,3.3l-1.8,13.6c-0.5,3.7-4,6.7-7.7,6.7h-5.7c0,0.7,0,1.3,0,2c15,0,25.2-2.3,25.2-2.3c2.9-0.6,5.7-0.5,8,0.3
				c0.1-0.3,0.2-0.5,0.3-0.8c0.3-0.8,0.5-1.6,0.8-2.4C263,134.2,262.1,133.5,261.4,132.5z"/>
			<linearGradient id="SVGID_28_" gradientUnits="userSpaceOnUse" x1="211.7865" y1="85.1614" x2="211.7865" y2="168.3497">
				<stop  offset="1.063830e-002" style="stop-color:#A7DB21"/>
				<stop  offset="0.9947" style="stop-color:#93C70A"/>
			</linearGradient>
			<path class="st30" d="M203.6,137.6c0,0,10.3,2.2,25.3,2.3c0-0.7,0-1.3,0-2h-5.7c-3.7,0-7.2-3-7.7-6.7l-1.8-13.6
				c-0.4-2.1-1.2-2.9-2.1-3.3c-1.8-0.8-3.3,0.3-4.2,1.3l-0.8,1c-0.1,0.1-0.1,0.1-0.1,0.1c0,0-9.2,15.8-9.2,15.8
				c-0.7,0.9-1.6,1.7-2.5,2.2c0.2,0.8,0.5,1.6,0.8,2.4c0.1,0.3,0.2,0.5,0.3,0.8C198,137.1,200.7,137,203.6,137.6z"/>
			<linearGradient id="SVGID_29_" gradientUnits="userSpaceOnUse" x1="215.9147" y1="85.1614" x2="215.9147" y2="168.3497">
				<stop  offset="1.063830e-002" style="stop-color:#A7DB21"/>
				<stop  offset="0.9947" style="stop-color:#93C70A"/>
			</linearGradient>
			<path class="st31" d="M204,159.6c-0.4-0.1-0.8-0.2-1.1-0.2c3.1,8.8,6.2,17.6,9.3,26.2c2,5.4,4,11.1,6,16.6
				c3.4,0.4,7,0.7,10.8,0.8c0-13.4,0-27.4,0-41.4c-0.1,0-0.2,0-0.3,0C217.7,161.6,204,159.6,204,159.6z"/>
			<linearGradient id="SVGID_30_" gradientUnits="userSpaceOnUse" x1="242.7103" y1="85.1614" x2="242.7103" y2="168.3497">
				<stop  offset="1.063830e-002" style="stop-color:#A7DB21"/>
				<stop  offset="0.9947" style="stop-color:#93C70A"/>
			</linearGradient>
			<path class="st32" d="M240.4,202.2c2-5.6,4-11.2,6-16.6c3.1-8.6,6.3-17.4,9.3-26.2c-0.4,0.1-0.8,0.2-1.2,0.3c0,0-8.3,1.9-24.8,2
				c0,14,0,28,0,41.4C233.5,202.9,237.1,202.6,240.4,202.2z"/>
			<linearGradient id="SVGID_31_" gradientUnits="userSpaceOnUse" x1="178.2867" y1="85.1614" x2="178.2867" y2="168.3497">
				<stop  offset="1.063830e-002" style="stop-color:#A7DB21"/>
				<stop  offset="0.9947" style="stop-color:#93C70A"/>
			</linearGradient>
			<path class="st33" d="M204.4,200.2c0.8,0.1,1.9,0.3,3.2,0.6c-13.7-18.7-23.2-33.8-30.9-48.9c-7-13.9-14.6-30.5-16.9-49.1
				c-1.8-14.3,0.6-28.7,7.3-42.6c-9.6,6.4-14,16.1-16.7,26.8c-4.3,17.2,0.9,32.8,8.3,47.9c11.7,23.9,28.1,44.6,44.7,65.1
				C203.7,200.1,204,200.1,204.4,200.2z"/>
			<linearGradient id="SVGID_32_" gradientUnits="userSpaceOnUse" x1="280.2727" y1="85.1614" x2="280.2727" y2="168.3497">
				<stop  offset="1.063830e-002" style="stop-color:#A7DB21"/>
				<stop  offset="0.9947" style="stop-color:#93C70A"/>
			</linearGradient>
			<path class="st34" d="M308.1,87c-2.7-10.8-7.1-20.5-16.7-26.8c6.7,13.9,9.1,28.3,7.3,42.6c-2.3,18.5-9.9,35.2-16.9,49.1
				c-7.7,15.1-17.2,30.2-30.9,48.9c1.3-0.2,2.4-0.4,3.2-0.6c0.4-0.1,0.7-0.1,0.9-0.2c16.6-20.5,33-41.3,44.7-65.1
				C307.2,119.8,312.3,104.1,308.1,87z"/>
			<linearGradient id="SVGID_33_" gradientUnits="userSpaceOnUse" x1="229.2798" y1="85.1614" x2="229.2798" y2="168.3497">
				<stop  offset="1.063830e-002" style="stop-color:#A7DB21"/>
				<stop  offset="0.9947" style="stop-color:#93C70A"/>
			</linearGradient>
			<path class="st35" d="M254.3,201C254.3,201,254.3,201,254.3,201c-3.9,0.7-14.2,2.5-25,2.8c-10.9-0.3-21.2-2.1-25-2.8c0,0,0,0,0,0
				c0.4,0.5,0.8,1,1.1,1.4c4.1,8.4,10.9,19.3,11.1,19.7c0,0,0,0,0.1,0c0,0.1,0.1,0.2,0.1,0.3c0.3,1.2,2.1,9.9,2.8,13
				c0.1,0.5,0.2,0.9,0,1.4c-0.1,0.2-0.1,0.5-0.1,0.7c-0.9,4.8-1.8,9.6-2.7,14.3c0,0.2-0.1,0.4-0.1,0.6c-0.5,0.2-0.9,0.1-1.3,0.1
				c-0.5,0-0.9,0.4-1,1c-0.1,0.6,0.3,1.1,0.9,1.2c0.3,0.1,0.7-0.1,1.1,0.1c0,0.3,0,0.7,0,1c0,2.4-0.1,4.8,0,7.1c0,1.8,0,3.6,0.2,5.3
				c0.2,2.7,1.7,4.3,4.2,4.8c1.1,0.2,2.2,0.3,3.3,0.3c3.1,0,6.3,0.1,9.4,0c1.6,0,3.2-0.2,4.8-0.4c1.9-0.2,3.2-1.3,3.8-3.2
				c0.1-0.3,0.1-0.5,0.2-0.8c0.2-1,0.2-2,0.2-3.1c0-3.6,0.1-7.1,0.1-10.7c0-0.2,0.1-0.4,0.1-0.6c0.2,0,0.4,0,0.6-0.1
				c0.2,0,0.4-0.1,0.5-0.1c0.4-0.2,0.6-0.5,0.6-0.9c0-0.6-0.4-1-1-1.2c-0.3-0.1-0.6-0.1-0.9-0.1c-0.1-0.3-0.1-0.5-0.2-0.8
				c-1-5.1-1.9-10.2-2.9-15.3c0-0.2,0-0.4,0-0.6c0.2-0.8,0.3-1.6,0.5-2.4c0.8-3.6,1.6-7.2,2.4-10.8c0-0.2,0.1-0.4,0.2-0.5l-0.3,0
				c0.9-1.4,7.2-11.6,11.1-19.5C253.5,201.9,253.9,201.5,254.3,201z M237.7,223c0,0.2,0.1,0.3,0.1,0.4c0,3.6,0,7.2,0,10.9
				c0,0.1,0,0.2,0,0.3c-0.4-1-2-8.5-2.5-11.2C236.1,223.3,236.9,223.2,237.7,223z M224.3,223.5c1.8,0.1,3.5,0.2,5.2,0.2
				c1.7,0,3.3-0.1,5-0.2c0.9,4.2,1.8,8.3,2.7,12.4c-0.4,0.2-0.8,0.1-1.2,0.2c-0.4,0-0.8,0-1.2,0c-0.1-0.2-0.1-0.4-0.1-0.6
				c0-0.5,0-1,0-1.5c0.1-1.3-1.1-2.1-2.1-2.1c-1.5,0-2.4,0.8-2.4,2.3c0,0.5,0,1.1,0,1.6c0,0.1-0.1,0.1-0.1,0.2c-0.5,0.1-1,0.1-1.6,0
				c0-0.3-0.1-0.5-0.1-0.8c0-0.5,0-0.9,0-1.4c0-1.1-0.9-2.1-2.1-2.1c-0.2,0-0.4,0-0.5,0c-1,0.1-1.7,0.8-1.8,1.8c0,0.4,0,0.9,0,1.3
				c0,0.3,0,0.7,0,1.1c-0.7,0.2-1.4,0.1-2.2,0.1c0-0.2-0.1-0.4,0-0.5c0.8-4,1.7-7.9,2.6-11.9C224.2,223.7,224.3,223.6,224.3,223.5z
				 M221.1,223c0.8,0.1,1.6,0.3,2.4,0.4c0,0,0,0,0,0c0,0.2,0,0.4-0.1,0.6c-0.7,3.5-1.5,7-2.3,10.6
				C220.9,233.8,220.9,223.8,221.1,223z M217.4,222.3C217.5,222.3,217.5,222.3,217.4,222.3c0.4,0,0.8,0,1.2,0.1
				c0.5,0.1,1,0.3,1.4,0.4c0.2,0.8,0.2,5,0.1,11.8c0,0-0.1-0.1-0.1-0.1C219.2,230.4,218.3,226.3,217.4,222.3z M240.3,252.4
				c-0.2,0-0.3,0.1-0.5,0.1c-7,0-14,0.1-20.9,0.1c-0.3-0.2-0.2-0.5-0.2-0.7c0.5-2.7,1-5.4,1.6-8.2c0.3-1.8,0.7-3.6,1.1-5.5
				c0.9,0,1.7,0,2.6,0c0.2,0.6,0.4,1.2,1,1.5c0.4,0.2,0.8,0.3,1.2,0.3c1.2,0,1.7-0.4,2.4-1.9c0.1,0,0.3,0,0.4,0c0.4,0,0.7,0,1,0
				c0.3,0.2,0.3,0.4,0.4,0.7c0.4,0.9,1.1,1.3,2.1,1.3c1,0,1.7-0.4,2.1-1.4c0.1-0.2,0.1-0.3,0.2-0.5c0.9-0.1,1.8-0.1,2.7,0
				C237.8,239.1,240.2,251.2,240.3,252.4z M238.8,234.1c0,0.2-0.2,0.4-0.3,0.7c0-4,0-7.9,0-11.8c0.5-0.2,1-0.3,1.4-0.4
				c0.4-0.1,0.9-0.3,1.4-0.3C240.6,226.2,239.7,230.1,238.8,234.1z"/>
			<linearGradient id="SVGID_34_" gradientUnits="userSpaceOnUse" x1="250.6625" y1="85.1614" x2="250.6625" y2="168.3497">
				<stop  offset="1.063830e-002" style="stop-color:#A7DB21"/>
				<stop  offset="0.9947" style="stop-color:#93C70A"/>
			</linearGradient>
			<path class="st36" d="M271.5,83.6c-0.5-10.8-1.9-19.2-4.4-26.4c-2.7-7.8-5-10.7-7.4-13.9c0-0.1-0.1-0.1-0.1-0.2l0,0l0,0
				c-0.6-0.9-1.3-1.7-2-2.7l0,0l-0.6-0.8c-1.2-0.8-2.3-1.5-3.5-2.3c-7.9-4.9-16.7-4.7-23.9,0.5v0l0,0l0,26.8c6.1,0.2,11,5.3,11,11.4
				c0,6.2-4.9,11.2-11,11.4c0,0.7,0,1.5,0,2.2c1.2,0,2.6,0,4.3,0.2c5.5,0.6,17.1,2.8,20.9,9.9l12.7,21.5
				C270.7,107.8,272,95.4,271.5,83.6z"/>
			<linearGradient id="SVGID_35_" gradientUnits="userSpaceOnUse" x1="207.9245" y1="85.1614" x2="207.9245" y2="168.3497">
				<stop  offset="1.063830e-002" style="stop-color:#A7DB21"/>
				<stop  offset="0.9947" style="stop-color:#93C70A"/>
			</linearGradient>
			<path class="st37" d="M205,37.3c-1.1,0.7-2.3,1.5-3.4,2.2l-0.9,1.2h0c-0.6,0.9-1.3,1.8-1.9,2.6c-2.4,3.2-4.6,6.1-7.4,13.9
				c-2.5,7.2-3.9,15.6-4.4,26.4c-0.5,11.8,0.8,24.2,4,37.8l12.7-21.5c3.8-7.1,15.4-9.4,20.9-9.9c1.7-0.2,3.1-0.2,4.3-0.2
				c0-0.7,0-1.5,0-2.2c-6.1-0.2-11-5.2-11-11.4c0-6.2,4.9-11.2,11.1-11.4l0-26.2v-0.5C221.7,32.6,212.9,32.3,205,37.3z"/>
			<linearGradient id="SVGID_36_" gradientUnits="userSpaceOnUse" x1="188.6699" y1="85.1614" x2="188.6699" y2="168.3497">
				<stop  offset="1.063830e-002" style="stop-color:#A7DB21"/>
				<stop  offset="0.9947" style="stop-color:#93C70A"/>
			</linearGradient>
			<path class="st38" d="M211.4,185.8c-3.2-8.8-6.4-17.7-9.5-26.7c-7.6-1.9-12.9-5.8-12.9-12.1c0-4.1,2.3-7.3,5.9-8.8
				c-0.1-0.3-0.2-0.6-0.3-0.8c-0.2-0.8-0.5-1.5-0.7-2.3c-1.8,0.8-3.8,0.6-5.3-0.5c-2.4-1.9-2.5-5.8-0.3-8.8l2.1-3.5
				c-3.3-13.9-4.7-26.7-4.2-38.8c0.5-10.9,1.9-19.4,4.4-26.6c2.8-7.9,5.2-11,7.5-14.1c0.6-0.8,1.3-1.7,1.9-2.6
				c-13.5,0.6-23.6,7.2-31.1,17.8l-0.8,1.9l0,0c-6.8,14-9.3,28.4-7.5,42.8c2.3,18.4,9.8,35,16.8,48.8c7.7,15.2,17.4,30.5,31.3,49.5
				c2.3,0.4,5.3,0.8,8.5,1.2C215.3,196.7,213.4,191.2,211.4,185.8z"/>
			<linearGradient id="SVGID_37_" gradientUnits="userSpaceOnUse" x1="269.8896" y1="85.1614" x2="269.8896" y2="168.3497">
				<stop  offset="1.063830e-002" style="stop-color:#A7DB21"/>
				<stop  offset="0.9947" style="stop-color:#93C70A"/>
			</linearGradient>
			<path class="st39" d="M290.4,59.9L290.4,59.9l-1-2.2c-7.5-10.5-17.5-16.8-30.9-17.5c0.6,0.9,1.3,1.8,1.9,2.6
				c2.3,3.1,4.7,6.2,7.5,14.1c2.6,7.3,4,15.7,4.4,26.6c0.5,12.1-0.9,24.9-4.2,38.8l2.1,3.5c2.3,3,2.2,6.9-0.3,8.8
				c-1.5,1.1-3.4,1.2-5.3,0.5c-0.2,0.8-0.5,1.5-0.7,2.3c-0.1,0.3-0.2,0.6-0.3,0.9c3.6,1.5,5.9,4.7,5.9,8.8c0,6.3-5.9,10.1-12.9,12.1
				c-3.1,9-6.3,18-9.5,26.8c-1.9,5.3-3.9,10.8-5.8,16.3c3.2-0.4,6.2-0.8,8.5-1.2c13.9-19,23.6-34.3,31.3-49.5
				c7-13.8,14.5-30.4,16.8-48.8C299.7,88.2,297.2,73.8,290.4,59.9z"/>
		</g>
	</g>
</g>
</svg>
