<?xml version="1.0" encoding="utf-8"?>
<!-- Generator: Adobe Illustrator 19.0.1, SVG Export Plug-In . SVG Version: 6.00 Build 0)  -->
<svg version="1.1" id="Слой_1" xmlns="http://www.w3.org/2000/svg" xmlns:xlink="http://www.w3.org/1999/xlink" x="0px" y="0px"
	 viewBox="0 0 37 30" style="enable-background:new 0 0 37 30;" xml:space="preserve">
<style type="text/css">
	.st0{fill:#18A4D9;}
	.st1{fill:#FFFFFF;}
	.st2{fill:#8BC612;}
</style>
<g>
	<g>
		<path class="st0" d="M14.1,2.2c-3.8-3.8-10.8-2.4-13,2.4c-2,3.5-0.2,7.5,1.5,10.7c1.7,3.2,2.6,5.1,3.8,7.6c0.7,1.4,1.4,2.6,2.1,4
			c3.2-5.8,4.6-8.7,7.1-13.7C17.7,9.1,17.2,4.9,14.1,2.2z"/>
	</g>
	<g>
		<path class="st1" d="M8.5,5.6c0.7,0,1.3-0.6,1.3-1.3S9.2,3,8.5,3S7.2,3.6,7.2,4.3C7.2,5,7.8,5.6,8.5,5.6"/>
		<path class="st1" d="M11.3,11.3c0,0-1.1,0.2-2.8,0.2s-2.8-0.2-2.8-0.2c-0.9-0.2-1.6,0.1-1.6,0.9s0.7,1.2,1.6,1.4
			c0,0,1.5,0.2,2.7,0.2c1.9,0,2.8-0.2,2.8-0.2c0.9-0.2,1.6-0.6,1.6-1.4C12.9,11.5,12.2,11.1,11.3,11.3"/>
		<path class="st1" d="M12.9,9.8L11.3,7c-0.4-0.8-1.7-1-2.3-1.1c0,0,0,0,0,0c-0.3,0-0.7,0-1,0c0,0,0,0,0,0C7.4,5.9,6.1,6.2,5.7,7
			L4.1,9.8c-0.2,0.3-0.2,0.7,0,1c0.3,0.2,0.7,0.1,0.9-0.2l1-1.7c0,0,0,0,0,0l0.1-0.1c0.1-0.1,0.3-0.2,0.5-0.1c0.1,0,0.2,0.1,0.2,0.4
			L7,10.5c0.1,0.4,0.4,0.7,0.8,0.7h0.7h0.7c0.4,0,0.8-0.3,0.8-0.7l0.2-1.6c0-0.2,0.1-0.3,0.2-0.4c0.2-0.1,0.4,0,0.5,0.1L11,8.8
			c0,0,0,0,0,0l1,1.7c0.2,0.3,0.7,0.4,0.9,0.2C13.2,10.5,13.2,10.1,12.9,9.8"/>
	</g>
	<rect x="2.1" y="26.8" class="st0" width="12.8" height="3.2"/>
</g>
<g>
	<g>
		<path class="st2" d="M34.2,2.2c-3.8-3.8-10.8-2.4-13,2.4c-2,3.5-0.2,7.5,1.5,10.7c1.7,3.2,2.6,5.1,3.8,7.6c0.7,1.4,1.4,2.6,2.1,4
			c3.2-5.8,4.6-8.7,7.1-13.7C37.8,9.1,37.3,4.9,34.2,2.2z"/>
	</g>
	<g>
		<path class="st1" d="M28.6,5.6c0.7,0,1.3-0.6,1.3-1.3S29.3,3,28.6,3s-1.3,0.6-1.3,1.3C27.3,5,27.9,5.6,28.6,5.6"/>
		<path class="st1" d="M31.4,11.3c0,0-1.1,0.2-2.8,0.2c-1.6,0-2.8-0.2-2.8-0.2c-0.9-0.2-1.6,0.1-1.6,0.9s0.7,1.2,1.6,1.4
			c0,0,1.5,0.2,2.7,0.2c1.9,0,2.8-0.2,2.8-0.2c0.9-0.2,1.6-0.6,1.6-1.4C33,11.5,32.3,11.1,31.4,11.3"/>
		<path class="st1" d="M33,9.8L31.4,7c-0.4-0.8-1.7-1-2.3-1.1c0,0,0,0,0,0c-0.3,0-0.7,0-1,0c0,0,0,0,0,0c-0.6,0.1-1.9,0.3-2.3,1.1
			l-1.7,2.8c-0.2,0.3-0.2,0.7,0,1c0.3,0.2,0.7,0.1,0.9-0.2l1-1.7c0,0,0,0,0,0l0.1-0.1c0.1-0.1,0.3-0.2,0.5-0.1
			c0.1,0,0.2,0.1,0.2,0.4l0.2,1.6c0.1,0.4,0.4,0.7,0.8,0.7h0.7h0.7c0.4,0,0.8-0.3,0.8-0.7l0.2-1.6c0-0.2,0.1-0.3,0.2-0.4
			c0.2-0.1,0.4,0,0.5,0.1l0.1,0.1c0,0,0,0,0,0l1,1.7c0.2,0.3,0.7,0.4,0.9,0.2C33.3,10.5,33.3,10.1,33,9.8"/>
	</g>
	<rect x="22.2" y="26.8" class="st2" width="12.8" height="3.2"/>
</g>
</svg>
