<?xml version="1.0" encoding="utf-8"?>
<!-- Generator: Adobe Illustrator 19.0.1, SVG Export Plug-In . SVG Version: 6.00 Build 0)  -->
<svg version="1.1" id="Layer_1" xmlns="http://www.w3.org/2000/svg" xmlns:xlink="http://www.w3.org/1999/xlink" x="0px" y="0px"
	 viewBox="0 0 40 40" style="enable-background:new 0 0 40 40;" xml:space="preserve">
<style type="text/css">
	.st0{fill:#ABD2E9;}
</style>
<g>
	<path class="st0" d="M22.6,22.1c-0.3-0.1-0.8-0.2-1.4-0.2c-0.6,0-1.4,0-2.3,0l-1,0l0,5.5h0.3c1.4,0,2.4,0,3,0
		c0.5,0,1.1-0.1,1.7-0.4c0.5-0.2,0.9-0.5,1.1-0.9c0.2-0.4,0.3-0.9,0.3-1.4c0-0.7-0.1-1.2-0.4-1.6C23.6,22.6,23.2,22.3,22.6,22.1z"/>
	<path class="st0" d="M20.6,18.1c0.4,0,0.8-0.1,1.2-0.3c0.4-0.2,0.7-0.5,0.9-0.8c0.2-0.4,0.3-0.8,0.3-1.3c0-0.4-0.1-0.7-0.3-1.1
		c-0.2-0.4-0.5-0.6-0.8-0.8c-0.4-0.2-0.8-0.2-1.3-0.3c-0.5,0-1.2,0-2.2,0l-0.4,0l0,4.6l0.7,0C19.5,18.2,20.2,18.1,20.6,18.1z"/>
	<path class="st0" d="M20,0C9,0,0,9,0,20c0,11,9,20,20,20c11,0,20-9,20-20C40,9,31.1,0,20,0z M29.3,27.5c-0.4,0.8-1,1.5-1.7,2
		c-0.8,0.6-1.7,1.1-2.7,1.4c-1,0.3-2.2,0.4-3.7,0.4l-8.7,0l0-21.8l7.7,0c1.6,0,2.8,0.1,3.6,0.2c0.8,0.1,1.6,0.4,2.3,0.8
		c0.8,0.4,1.4,1,1.7,1.7c0.4,0.7,0.6,1.5,0.6,2.4c0,1.1-0.3,2-0.8,2.8c-0.5,0.8-1.3,1.4-2.2,1.8v0.1c1.3,0.3,2.4,0.9,3.2,1.7
		c0.8,0.9,1.2,2.1,1.2,3.5C29.9,25.8,29.7,26.7,29.3,27.5z"/>
</g>
</svg>
