<?xml version="1.0" encoding="utf-8"?>
<!-- Generator: Adobe Illustrator 19.0.1, SVG Export Plug-In . SVG Version: 6.00 Build 0)  -->
<svg version="1.1" id="Слой_1" xmlns="http://www.w3.org/2000/svg" xmlns:xlink="http://www.w3.org/1999/xlink" x="0px" y="0px"
	 viewBox="0 0 50 22" style="enable-background:new 0 0 50 22;" xml:space="preserve">
<style type="text/css">
	.st0{fill:#89C50D;}
	.st1{fill:#FD8702;}
	.st2{fill:#E9C501;}
</style>
<g>
	<g>
		<g>
			<path class="st0" d="M40.9,5.5c1.5,0,2.6-1.2,2.6-2.7c0-1.5-1.2-2.7-2.6-2.7s-2.6,1.2-2.6,2.7C38.3,4.3,39.5,5.5,40.9,5.5"/>
			<path class="st0" d="M46.4,16.9c0,0-2.2,0.5-5.5,0.5c-3.2,0-5.5-0.5-5.5-0.5c-1.7-0.4-3.1,0.3-3.1,1.8c0,1.5,1.4,2.4,3.2,2.8
				c0,0,2.9,0.5,5.3,0.5c3.7,0,5.5-0.5,5.5-0.5c1.7-0.4,3.2-1.3,3.2-2.8C49.5,17.2,48.1,16.5,46.4,16.9"/>
			<path class="st0" d="M49.7,14l-3.3-5.8c-0.8-1.6-3.3-2.1-4.5-2.2c0,0,0,0,0,0c-0.7-0.1-1.3-0.1-2,0c0,0,0,0,0,0
				c-1.2,0.1-3.7,0.6-4.5,2.2L32.2,14c-0.5,0.7-0.5,1.5,0.1,2c0.5,0.4,1.3,0.2,1.8-0.5c0,0,2-3.5,2-3.5c0,0,0,0,0,0l0.2-0.2
				c0.2-0.2,0.5-0.5,0.9-0.3c0.2,0.1,0.4,0.3,0.5,0.7l0.4,3.3c0.1,0.8,0.8,1.5,1.6,1.5h1.3h1.3c0.8,0,1.5-0.7,1.6-1.5l0.4-3.3
				c0.1-0.5,0.3-0.7,0.5-0.7c0.4-0.2,0.7,0.1,0.9,0.3l0.2,0.2c0,0,0,0,0,0c0,0,2,3.5,2,3.5c0.5,0.7,1.3,0.9,1.8,0.5
				C50.1,15.5,50.1,14.7,49.7,14"/>
		</g>
	</g>
	<g>
		<g>
			<path class="st1" d="M25,5.5c1.5,0,2.6-1.2,2.6-2.7C27.6,1.2,26.4,0,25,0c-1.5,0-2.6,1.2-2.6,2.7C22.4,4.3,23.5,5.5,25,5.5"/>
			<path class="st1" d="M30.5,16.9c0,0-2.2,0.5-5.5,0.5c-3.2,0-5.5-0.5-5.5-0.5c-1.7-0.4-3.1,0.3-3.1,1.8c0,1.5,1.4,2.4,3.2,2.8
				c0,0,2.9,0.5,5.3,0.5c3.7,0,5.5-0.5,5.5-0.5c1.7-0.4,3.2-1.3,3.2-2.8C33.6,17.2,32.2,16.5,30.5,16.9"/>
			<path class="st1" d="M33.7,14l-3.3-5.8C29.6,6.6,27.2,6.1,26,6c0,0,0,0,0,0c-0.7-0.1-1.3-0.1-2,0c0,0,0,0,0,0
				c-1.2,0.1-3.7,0.6-4.5,2.2L16.2,14c-0.5,0.7-0.5,1.5,0.1,2c0.5,0.4,1.3,0.2,1.8-0.5c0,0,2-3.5,2-3.5c0,0,0,0,0,0l0.2-0.2
				c0.2-0.2,0.5-0.5,0.9-0.3c0.2,0.1,0.4,0.3,0.5,0.7l0.4,3.3c0.1,0.8,0.8,1.5,1.6,1.5H25h1.3c0.8,0,1.5-0.7,1.6-1.5l0.4-3.3
				c0.1-0.5,0.3-0.7,0.5-0.7c0.4-0.2,0.7,0.1,0.9,0.3l0.2,0.2c0,0,0,0,0,0c0,0,2,3.5,2,3.5c0.5,0.7,1.3,0.9,1.8,0.5
				C34.2,15.5,34.2,14.7,33.7,14"/>
		</g>
	</g>
	<g>
		<g>
			<path class="st2" d="M9.1,5.5c1.5,0,2.6-1.2,2.6-2.7c0-1.5-1.2-2.7-2.6-2.7C7.6,0,6.5,1.2,6.5,2.7C6.5,4.3,7.6,5.5,9.1,5.5"/>
			<path class="st2" d="M14.6,16.9c0,0-2.2,0.5-5.5,0.5c-3.2,0-5.5-0.5-5.5-0.5c-1.7-0.4-3.1,0.3-3.1,1.8c0,1.5,1.4,2.4,3.2,2.8
				c0,0,2.9,0.5,5.3,0.5c3.7,0,5.5-0.5,5.5-0.5c1.7-0.4,3.2-1.3,3.2-2.8C17.7,17.2,16.3,16.5,14.6,16.9"/>
			<path class="st2" d="M17.8,14l-3.3-5.8c-0.8-1.6-3.3-2.1-4.5-2.2c0,0,0,0,0,0c-0.7-0.1-1.3-0.1-2,0c0,0,0,0,0,0
				C6.9,6.1,4.4,6.6,3.6,8.2L0.3,14c-0.5,0.7-0.5,1.5,0.1,2c0.5,0.4,1.3,0.2,1.8-0.5c0,0,2-3.5,2-3.5c0,0,0,0,0,0l0.2-0.2
				c0.2-0.2,0.5-0.5,0.9-0.3c0.2,0.1,0.4,0.3,0.5,0.7l0.4,3.3C6.2,16.3,7,17,7.8,17h1.3h1.3c0.8,0,1.5-0.7,1.6-1.5l0.4-3.3
				c0.1-0.5,0.3-0.7,0.5-0.7c0.4-0.2,0.7,0.1,0.9,0.3l0.2,0.2c0,0,0,0,0,0c0,0,2,3.5,2,3.5c0.5,0.7,1.3,0.9,1.8,0.5
				C18.3,15.5,18.3,14.7,17.8,14"/>
		</g>
	</g>
</g>
</svg>
