<?xml version="1.0" encoding="utf-8"?>
<!-- Generator: Adobe Illustrator 19.0.1, SVG Export Plug-In . SVG Version: 6.00 Build 0)  -->
<svg version="1.1" id="Слой_1" xmlns="http://www.w3.org/2000/svg" xmlns:xlink="http://www.w3.org/1999/xlink" x="0px" y="0px"
	 viewBox="0 0 264 156" style="enable-background:new 0 0 264 156;" xml:space="preserve">
<style type="text/css">
	.st0{fill:url(#SVGID_1_);}
	.st1{fill:url(#SVGID_2_);}
	.st2{fill:url(#SVGID_3_);}
	.st3{fill:url(#SVGID_4_);}
	.st4{fill:url(#SVGID_5_);}
	.st5{fill:url(#SVGID_6_);}
	.st6{fill:url(#SVGID_7_);}
	.st7{fill:url(#SVGID_8_);}
	.st8{fill:url(#SVGID_9_);}
	.st9{opacity:0.15;fill:url(#SVGID_10_);}
	.st10{opacity:0.2;fill:url(#SVGID_11_);}
	.st11{opacity:0.33;fill:url(#SVGID_12_);}
	.st12{opacity:0.15;fill:url(#SVGID_13_);}
	.st13{opacity:0.2;fill:url(#SVGID_14_);}
	.st14{opacity:0.33;fill:url(#SVGID_15_);}
	.st15{opacity:0.33;fill:url(#SVGID_16_);}
	.st16{opacity:0.33;fill:url(#SVGID_17_);}
	.st17{opacity:0.33;fill:url(#SVGID_18_);}
	.st18{opacity:0.33;fill:url(#SVGID_19_);}
	.st19{opacity:0.33;fill:url(#SVGID_20_);}
	.st20{opacity:0.33;fill:url(#SVGID_21_);}
	.st21{opacity:0.33;fill:url(#SVGID_22_);}
	.st22{opacity:0.33;fill:url(#SVGID_23_);}
	.st23{opacity:0.33;fill:url(#SVGID_24_);}
	.st24{fill:#FFFFFF;}
	.st25{fill:none;stroke:#FFFFFF;stroke-width:1.3862;stroke-miterlimit:10;}
	.st26{filter:url(#Adobe_OpacityMaskFilter);}
	.st27{mask:url(#SVGID_25_);}
	.st28{fill:#FEA63B;}
</style>
<g>
	<g>
		<linearGradient id="SVGID_1_" gradientUnits="userSpaceOnUse" x1="205.2897" y1="54.1394" x2="205.2897" y2="155.6682">
			<stop  offset="1.063830e-002" style="stop-color:#87D21A"/>
			<stop  offset="0.984" style="stop-color:#7CC10B"/>
		</linearGradient>
		<path class="st0" d="M205.3,81.2c6.9,0,12.4-5.6,12.4-12.4c0-6.9-5.6-12.4-12.4-12.4c-6.9,0-12.4,5.6-12.4,12.4
			C192.9,75.6,198.4,81.2,205.3,81.2"/>
		<linearGradient id="SVGID_2_" gradientUnits="userSpaceOnUse" x1="205.2899" y1="54.1394" x2="205.2899" y2="155.6682">
			<stop  offset="1.063830e-002" style="stop-color:#87D21A"/>
			<stop  offset="0.984" style="stop-color:#7CC10B"/>
		</linearGradient>
		<path class="st1" d="M231.2,133c0,0-10.4,2.3-25.8,2.3c-15.3,0-26-2.3-26-2.3c-8.1-1.8-14.8,1.3-14.8,8.3c0,7,6.4,11,15.1,12.7
			c0,0,13.8,2,24.8,2c17.4,0,26.2-2,26.2-2c8-1.8,15.1-5.7,15.1-12.7C245.9,134.3,239.3,131.3,231.2,133"/>
		<linearGradient id="SVGID_3_" gradientUnits="userSpaceOnUse" x1="205.2899" y1="54.1394" x2="205.2899" y2="155.6682">
			<stop  offset="1.063830e-002" style="stop-color:#87D21A"/>
			<stop  offset="0.984" style="stop-color:#7CC10B"/>
		</linearGradient>
		<path class="st2" d="M246.6,119.8l-15.5-26.2c-3.8-7.2-15.5-9.5-21.1-10c0,0,0,0-0.1,0c-3.1-0.3-6.2-0.3-9.3,0c0,0,0,0-0.1,0
			c-5.5,0.6-17.3,2.8-21.1,10L164,119.8c-2.3,3-2.2,7,0.3,8.8c2.4,1.9,6.3,0.9,8.6-2c0,0,9.3-16,9.3-16c0,0,0-0.1,0.1-0.1l0.8-1.1
			c0.9-1,2.4-2.1,4.3-1.3c0.9,0.4,1.7,1.3,2.1,3.3l1.9,15c0.5,3.7,4,6.8,7.8,6.8h6.2h6.2c3.8,0,7.3-3.1,7.8-6.8l1.9-15
			c0.4-2.1,1.3-3,2.1-3.3c1.8-0.8,3.4,0.3,4.3,1.3l0.8,1.1c0.1,0.1,0.1,0.1,0.1,0.1c0,0,9.3,16,9.3,16c2.3,3,6.2,3.9,8.6,2
			C248.7,126.7,248.9,122.8,246.6,119.8"/>
	</g>
	<g>
		<linearGradient id="SVGID_4_" gradientUnits="userSpaceOnUse" x1="123.9974" y1="153.2505" x2="123.9974" y2="57.4467">
			<stop  offset="0" style="stop-color:#FD8701"/>
			<stop  offset="1" style="stop-color:#FFA12A"/>
		</linearGradient>
		<path class="st3" d="M124,81.2c6.9,0,12.4-5.6,12.4-12.4c0-6.9-5.6-12.4-12.4-12.4c-6.9,0-12.4,5.6-12.4,12.4
			C111.6,75.6,117.1,81.2,124,81.2"/>
		<linearGradient id="SVGID_5_" gradientUnits="userSpaceOnUse" x1="123.9975" y1="153.2505" x2="123.9975" y2="57.4467">
			<stop  offset="0" style="stop-color:#FD8701"/>
			<stop  offset="1" style="stop-color:#FFA12A"/>
		</linearGradient>
		<path class="st4" d="M149.9,133c0,0-10.4,2.3-25.8,2.3c-15.3,0-26-2.3-26-2.3c-8.1-1.8-14.8,1.3-14.8,8.3c0,7,6.4,11,15.1,12.7
			c0,0,13.8,2,24.8,2c17.4,0,26.2-2,26.2-2c8-1.8,15.1-5.7,15.1-12.7C164.6,134.3,158,131.3,149.9,133"/>
		<linearGradient id="SVGID_6_" gradientUnits="userSpaceOnUse" x1="123.9976" y1="153.2505" x2="123.9976" y2="57.4467">
			<stop  offset="0" style="stop-color:#FD8701"/>
			<stop  offset="1" style="stop-color:#FFA12A"/>
		</linearGradient>
		<path class="st5" d="M165.3,119.8l-15.5-26.2c-3.8-7.2-15.5-9.5-21.1-10c0,0,0,0-0.1,0c-3.1-0.3-6.2-0.3-9.3,0c0,0,0,0-0.1,0
			c-5.5,0.6-17.3,2.8-21.1,10l-15.5,26.2c-2.3,3-2.2,7,0.3,8.8c2.4,1.9,6.3,0.9,8.6-2c0,0,9.3-16,9.3-16c0,0,0-0.1,0.1-0.1l0.8-1.1
			c0.9-1,2.4-2.1,4.3-1.3c0.9,0.4,1.7,1.3,2.1,3.3l1.9,15c0.5,3.7,4,6.8,7.8,6.8h6.2h6.2c3.8,0,7.3-3.1,7.8-6.8l1.9-15
			c0.4-2.1,1.3-3,2.1-3.3c1.8-0.8,3.4,0.3,4.3,1.3l0.8,1.1c0.1,0.1,0.1,0.1,0.1,0.1c0,0,9.3,16,9.3,16c2.3,3,6.2,3.9,8.6,2
			C167.4,126.7,167.6,122.8,165.3,119.8"/>
	</g>
	<g>
		<linearGradient id="SVGID_7_" gradientUnits="userSpaceOnUse" x1="42.9176" y1="42.424" x2="42.9176" y2="157.3504">
			<stop  offset="7.450981e-002" style="stop-color:#F9D718"/>
			<stop  offset="1" style="stop-color:#E8C400"/>
		</linearGradient>
		<path class="st6" d="M42.9,81.2c6.9,0,12.4-5.6,12.4-12.4c0-6.9-5.6-12.4-12.4-12.4c-6.9,0-12.4,5.6-12.4,12.4
			C30.5,75.6,36.1,81.2,42.9,81.2"/>
		<linearGradient id="SVGID_8_" gradientUnits="userSpaceOnUse" x1="42.9178" y1="42.424" x2="42.9178" y2="157.3504">
			<stop  offset="7.450981e-002" style="stop-color:#F9D718"/>
			<stop  offset="1" style="stop-color:#E8C400"/>
		</linearGradient>
		<path class="st7" d="M68.8,133c0,0-10.4,2.3-25.8,2.3c-15.3,0-26-2.3-26-2.3c-8.1-1.8-14.8,1.3-14.8,8.3c0,7,6.4,11,15.1,12.7
			c0,0,13.8,2,24.8,2c17.4,0,26.2-2,26.2-2c8-1.8,15.1-5.7,15.1-12.7C83.5,134.3,76.9,131.3,68.8,133"/>
		<linearGradient id="SVGID_9_" gradientUnits="userSpaceOnUse" x1="42.9178" y1="42.424" x2="42.9178" y2="157.3504">
			<stop  offset="7.450981e-002" style="stop-color:#F9D718"/>
			<stop  offset="1" style="stop-color:#E8C400"/>
		</linearGradient>
		<path class="st8" d="M84.2,119.8L68.7,93.5c-3.8-7.2-15.5-9.5-21.1-10c0,0,0,0-0.1,0c-3.1-0.3-6.2-0.3-9.3,0c0,0,0,0-0.1,0
			c-5.5,0.6-17.3,2.8-21.1,10L1.6,119.8c-2.3,3-2.2,7,0.3,8.8c2.4,1.9,6.3,0.9,8.6-2c0,0,9.3-16,9.3-16c0,0,0-0.1,0.1-0.1l0.8-1.1
			c0.9-1,2.4-2.1,4.3-1.3c0.9,0.4,1.7,1.3,2.1,3.3l1.9,15c0.5,3.7,4,6.8,7.8,6.8h6.2h6.2c3.8,0,7.3-3.1,7.8-6.8l1.9-15
			c0.4-2.1,1.3-3,2.1-3.3c1.8-0.8,3.4,0.3,4.3,1.3l0.8,1.1c0.1,0.1,0.1,0.1,0.1,0.1c0,0,9.3,16,9.3,16c2.3,3,6.2,3.9,8.6,2
			C86.4,126.7,86.5,122.8,84.2,119.8"/>
	</g>
	<linearGradient id="SVGID_10_" gradientUnits="userSpaceOnUse" x1="229.9675" y1="76.2342" x2="229.9675" y2="-5.4075">
		<stop  offset="5.319149e-003" style="stop-color:#7CC10B"/>
		<stop  offset="0.9894" style="stop-color:#87D21A"/>
	</linearGradient>
	<path class="st9" d="M224.8,67.8l-0.1-1l0.5-0.1c6-1.1,8.1-7.7,8.8-12.8h-11.1c-14.9,0-27-12.1-27-27s12.1-27,27-27H237
		c14.9,0,27,12.1,27,27c0,13.1-9.7,24.5-22.5,26.6c-5.3,14.4-14.9,14.3-16,14.3L224.8,67.8z"/>
	<linearGradient id="SVGID_11_" gradientUnits="userSpaceOnUse" x1="229.9675" y1="75.8512" x2="229.9675" y2="-4.7746">
		<stop  offset="5.319149e-003" style="stop-color:#7CC10B"/>
		<stop  offset="0.9894" style="stop-color:#87D21A"/>
	</linearGradient>
	<path class="st10" d="M225.3,67.6l0-0.5c6.6-1.2,8.7-8.1,9.4-13.6h-11.8c-14.6,0-26.4-11.8-26.4-26.4s11.8-26.4,26.4-26.4H237
		c14.6,0,26.4,11.8,26.4,26.4c0,13-9.6,24.1-22.4,26.1c-5.1,14.3-14.6,14.5-15.6,14.5L225.3,67.6z"/>
	<linearGradient id="SVGID_12_" gradientUnits="userSpaceOnUse" x1="229.9674" y1="75.4538" x2="229.9674" y2="-4.1402">
		<stop  offset="5.319149e-003" style="stop-color:#7CC10B"/>
		<stop  offset="0.9894" style="stop-color:#87D21A"/>
	</linearGradient>
	<path class="st11" d="M237,1.1h-14.1c-14.3,0-25.8,11.6-25.8,25.8l0,0c0,14.3,11.6,25.8,25.8,25.8h12.4c-0.5,5.4-2.6,13.1-10,14.4
		c0,0,10,0.5,15.3-14.7c12.6-1.8,22.2-12.5,22.2-25.6l0,0C262.9,12.7,251.3,1.1,237,1.1z"/>
	<linearGradient id="SVGID_13_" gradientUnits="userSpaceOnUse" x1="64.2212" y1="1.9923" x2="64.2212" y2="53.4455">
		<stop  offset="7.450981e-002" style="stop-color:#F9D718"/>
		<stop  offset="1" style="stop-color:#E8C400"/>
	</linearGradient>
	<path class="st12" d="M56.9,67.8l-0.1-0.9l0.8-0.2c6.1-1.1,8.1-7.7,8.8-12.9c-0.8,0.1-1.5,0.1-2.2,0.1c-14.9,0-27-12.1-27-27
		s12.1-27,27-27c14.9,0,27,12.1,27,27c0,11-6.6,20.8-16.7,24.9c-5.1,16-15.3,15.9-16.5,15.9L56.9,67.8z"/>
	<linearGradient id="SVGID_14_" gradientUnits="userSpaceOnUse" x1="64.2212" y1="1.9853" x2="64.2212" y2="53.1832">
		<stop  offset="7.450981e-002" style="stop-color:#F9D718"/>
		<stop  offset="1" style="stop-color:#E8C400"/>
	</linearGradient>
	<path class="st13" d="M57.5,67.5l0-0.5l0.2,0c6.6-1.2,8.8-8.2,9.4-13.8c-1,0.1-2,0.2-2.9,0.2c-14.6,0-26.4-11.8-26.4-26.4
		S49.7,0.6,64.2,0.6S90.6,12.4,90.6,27c0,10.9-6.5,20.5-16.6,24.5c-5,15.9-15,16-16.1,16L57.5,67.5z"/>
	<linearGradient id="SVGID_15_" gradientUnits="userSpaceOnUse" x1="64.2214" y1="1.9923" x2="64.2214" y2="53.4455">
		<stop  offset="7.450981e-002" style="stop-color:#F9D718"/>
		<stop  offset="1" style="stop-color:#E8C400"/>
	</linearGradient>
	<path class="st14" d="M90.1,27c0-14.3-11.6-25.8-25.8-25.8S38.4,12.7,38.4,27S50,52.8,64.2,52.8c1.2,0,2.4-0.1,3.5-0.2
		c-0.5,5.4-2.5,13.3-10,14.7c0,0,10.7,0.5,15.8-16.2C83.2,47.3,90.1,37.9,90.1,27z"/>
	<linearGradient id="SVGID_16_" gradientUnits="userSpaceOnUse" x1="64.2212" y1="1.9923" x2="64.2212" y2="53.4455">
		<stop  offset="7.450981e-002" style="stop-color:#F9D718"/>
		<stop  offset="1" style="stop-color:#E8C400"/>
	</linearGradient>
	<path class="st15" d="M63.4,65c3.4-3.4,4.5-8.8,4.9-12.3l0.1-0.7L67.7,52c-1.2,0.2-2.3,0.2-3.5,0.2c-13.9,0-25.3-11.3-25.3-25.3
		S50.3,1.7,64.2,1.7S89.5,13,89.5,27c0,10.5-6.3,19.8-16.1,23.6l-0.3,0.1L73,50.9C70.5,59.1,66.6,63.1,63.4,65z"/>
	<linearGradient id="SVGID_17_" gradientUnits="userSpaceOnUse" x1="64.2212" y1="1.9923" x2="64.2212" y2="63.9361">
		<stop  offset="7.450981e-002" style="stop-color:#F9D718"/>
		<stop  offset="1" style="stop-color:#E8C400"/>
	</linearGradient>
	<path class="st16" d="M67.4,60.3c0.9-2.2,1.4-4.7,1.7-7.6l0.2-1.8l-1.8,0.2c-1.1,0.2-2.3,0.2-3.3,0.2c-13.5,0-24.4-11-24.4-24.4
		s11-24.4,24.4-24.4s24.4,11,24.4,24.4c0,10.2-6.1,19.1-15.6,22.8L72.4,50l-0.2,0.7C70.9,55,69.2,58.1,67.4,60.3z"/>
	<linearGradient id="SVGID_18_" gradientUnits="userSpaceOnUse" x1="142.2488" y1="-1.7314" x2="142.2488" y2="76.6138">
		<stop  offset="0" style="stop-color:#FFA12A"/>
		<stop  offset="1" style="stop-color:#FD8701"/>
	</linearGradient>
	<path class="st17" d="M142.8,67.8l-0.1-1l0.7-0.1c6-1.1,8.1-7.7,8.8-12.8h-23.1c-14.9,0-27-12.1-27-27s12.1-27,27-27h26.1
		c14.9,0,27,12.1,27,27c0,13.1-9.7,24.5-22.5,26.6c-5.3,14.4-14.9,14.3-16,14.3L142.8,67.8z"/>
	<linearGradient id="SVGID_19_" gradientUnits="userSpaceOnUse" x1="142.2488" y1="-1.1448" x2="142.2488" y2="76.2503">
		<stop  offset="0" style="stop-color:#FFA12A"/>
		<stop  offset="1" style="stop-color:#FD8701"/>
	</linearGradient>
	<path class="st18" d="M143.3,67.6l0-0.5l0.2,0c6.6-1.2,8.8-8.2,9.4-13.6h-23.7c-14.6,0-26.4-11.8-26.4-26.4s11.8-26.4,26.4-26.4
		h26.1c14.6,0,26.4,11.8,26.4,26.4c0,12.9-9.6,24.1-22.4,26.1c-5.1,14.3-14.6,14.5-15.6,14.5L143.3,67.6z"/>
	<linearGradient id="SVGID_20_" gradientUnits="userSpaceOnUse" x1="142.2487" y1="-0.5571" x2="142.2487" y2="75.8214">
		<stop  offset="0" style="stop-color:#FFA12A"/>
		<stop  offset="1" style="stop-color:#FD8701"/>
	</linearGradient>
	<path class="st19" d="M155.3,1.1h-26.1c-14.3,0-25.8,11.6-25.8,25.8l0,0c0,14.3,11.6,25.8,25.8,25.8h24.3
		c-0.5,5.4-2.6,13.1-10,14.4c0,0,10,0.5,15.3-14.7c12.6-1.8,22.2-12.5,22.2-25.6l0,0C181.1,12.7,169.6,1.1,155.3,1.1z"/>
	<linearGradient id="SVGID_21_" gradientUnits="userSpaceOnUse" x1="142.2488" y1="8.097155e-002" x2="142.2488" y2="73.1599">
		<stop  offset="0" style="stop-color:#FFA12A"/>
		<stop  offset="1" style="stop-color:#FD8701"/>
	</linearGradient>
	<path class="st20" d="M149.2,65c2.6-2.6,4.3-6.7,4.9-12.1l0.1-0.6h-25c-13.9,0-25.3-11.3-25.3-25.3s11.3-25.3,25.3-25.3h26.1
		c13.9,0,25.3,11.3,25.3,25.3c0,12.5-9.3,23.3-21.7,25l-0.3,0l-0.1,0.3C155.9,59.6,152.3,63.2,149.2,65z"/>
	<linearGradient id="SVGID_22_" gradientUnits="userSpaceOnUse" x1="142.2488" y1="1.0694" x2="142.2488" y2="67.7536">
		<stop  offset="0" style="stop-color:#FFA12A"/>
		<stop  offset="1" style="stop-color:#FD8701"/>
	</linearGradient>
	<path class="st21" d="M153.3,60.3c0.8-2.1,1.4-4.5,1.7-7.3l0.2-1.6h-25.9c-13.5,0-24.4-11-24.4-24.4s11-24.4,24.4-24.4h26.1
		c13.5,0,24.4,11,24.4,24.4c0,12.1-9,22.5-21,24.2l-0.9,0.1l-0.3,0.8C156.3,55.7,154.8,58.3,153.3,60.3z"/>
	<linearGradient id="SVGID_23_" gradientUnits="userSpaceOnUse" x1="229.9675" y1="72.8082" x2="229.9675" y2="-3.3473">
		<stop  offset="5.319149e-003" style="stop-color:#7CC10B"/>
		<stop  offset="0.9894" style="stop-color:#87D21A"/>
	</linearGradient>
	<path class="st22" d="M231,65c2.6-2.6,4.3-6.7,4.9-12.1l0.1-0.6h-13c-13.9,0-25.3-11.3-25.3-25.3S209,1.7,222.9,1.7H237
		C251,1.7,262.3,13,262.3,27c0,12.5-9.3,23.3-21.7,25l-0.3,0l-0.1,0.3C237.6,59.6,234,63.2,231,65z"/>
	<linearGradient id="SVGID_24_" gradientUnits="userSpaceOnUse" x1="229.9675" y1="67.4327" x2="229.9675" y2="-2.0589">
		<stop  offset="5.319149e-003" style="stop-color:#7CC10B"/>
		<stop  offset="0.9894" style="stop-color:#87D21A"/>
	</linearGradient>
	<path class="st23" d="M235,60.3c0.8-2.1,1.4-4.5,1.7-7.3l0.2-1.6h-14c-13.5,0-24.4-11-24.4-24.4s11-24.4,24.4-24.4H237
		c13.5,0,24.4,11,24.4,24.4c0,12.1-9,22.5-21,24.2l-0.9,0.1l-0.3,0.8C238.1,55.7,236.6,58.3,235,60.3z"/>
	<g>
		<path class="st24" d="M63.4,41L63.4,41c-6.2,0-11.2-5-11.2-11.2V27l22.4,0v2.8C74.7,36,69.6,41,63.4,41z"/>
		<path class="st25" d="M72.4,28.4c0,0,6.4-0.8,6.2,3.4c-0.2,3.4-6.3,2.6-6.3,2.6"/>
	</g>
	<path class="st24" d="M62.1,24.7c-0.3-1.5-0.3-3.1,0.3-4.6c0.5-1.2,1-2.4,1.7-3.5c1.8-2.9,1.9-5.7,0.2-8.8c0.2,0.1,0.3,0.1,0.4,0.2
		c3.2,2.3,3.7,5.9,1.4,9.1c-1.2,1.6-2.3,3.2-3,5C62.7,23.1,62.4,23.9,62.1,24.7z"/>
	<path class="st24" d="M61,18.6c-0.2-0.8-0.1-1.6,0.2-2.4c0.2-0.6,0.5-1.2,0.9-1.8c0.9-1.5,1-3,0.1-4.5c0.1,0,0.1,0.1,0.2,0.1
		c1.6,1.2,1.9,3,0.7,4.7c-0.6,0.8-1.2,1.6-1.6,2.6C61.2,17.7,61.1,18.2,61,18.6z"/>
	<g>
		<path class="st24" d="M239.2,30.2c-0.3-0.1-0.5-0.1-0.9-0.2c-0.6,2-1.1,4-1.7,6c-0.4,1.6-0.9,3.2-1.3,4.8
			c-0.4,1.3-1.2,1.8-2.2,1.5c-1-0.3-1.4-1.2-1.1-2.4c1-3.7,2.2-7.5,3.1-11.2c0.6-2.6,0.9-5.4,1.3-8.1c0-0.2-0.2-0.5-0.4-0.6
			c-2.8-1-4.7-2.9-5.8-5.9c-1.1,3.1-3.2,5-6.3,6c0.2,1.6,0.5,3.1,0.7,4.6c0.5,4.8,2.4,9.3,3.5,13.9c0.1,0.5,0.3,1,0.4,1.4
			c0.3,1.1-0.2,2-1.2,2.2c-1,0.3-1.8-0.3-2.1-1.3c-0.9-3.3-1.9-6.7-2.8-10c-0.1-0.3-0.2-0.6-0.3-0.9c-0.3,0.1-0.6,0.1-0.9,0.2
			c0,1.3,0,2.5,0,3.7c0,2.2,0,4.5,0,6.7c0,1.1-0.7,1.8-1.7,1.8c-1,0-1.7-0.7-1.7-1.7c0-3.4,0.1-6.8-0.1-10.2c-0.1-2.6-0.6-5.2-1-7.8
			c-0.1,0-0.2,0-0.3-0.1c-0.3,0.9-0.7,1.7-0.7,2.6c-0.1,1.9,0.1,3.7,0.2,5.6c0.1,0.9-0.1,1.4-0.8,1.5c-0.6,0.1-1.1-0.3-1.3-1.1
			c-0.5-2.7-0.7-5.4,0.2-8c0.3-0.8,0.7-1.6,1.2-2.4c0.7-1.1,1.6-1.7,3-1.9c1.5-0.2,3-0.4,4.5-0.7c3-0.7,5-2.5,5.7-5.6
			c0.3-1.1,0.5-1.3,1.7-1.1c0.1,0,0.2,0,0.2,0c1.5-0.1,1.5-0.1,1.8,1.3c0.9,3.4,3.3,4.9,6.5,5.5c1.3,0.2,2.6,0.4,3.8,0.6
			c1,0.1,1.7,0.6,2.3,1.2c1.6,1.8,2.2,4,2.2,6.4c0,1.6-0.2,3.1-0.4,4.7c-0.1,0.7-0.7,1.1-1.3,1c-0.6-0.1-0.9-0.7-0.8-1.4
			c0.4-2.1,0.6-4.3,0.1-6.4c-0.2-0.6-0.4-1.2-0.8-1.9c0,0.2-0.1,0.4-0.1,0.6c-1.2,5.7-1,11.4-1,17.2c0,1.2-0.5,1.8-1.5,1.9
			c-1.1,0.1-1.9-0.6-1.9-1.9c0-3,0-6.1,0-9.1C239.2,31,239.2,30.6,239.2,30.2z"/>
		<path class="st24" d="M216.8,14.8c0-1.7,1.4-3,3.1-3c1.7,0,3.1,1.4,3.1,3.1c0,1.7-1.4,3-3.1,3C218.2,17.9,216.8,16.5,216.8,14.8z"
			/>
		<path class="st24" d="M240.4,11.8c1.7,0,3.1,1.4,3.1,3.1c0,1.7-1.4,3.1-3,3.1c-1.7,0-3.1-1.3-3.1-3
			C237.3,13.2,238.7,11.8,240.4,11.8z"/>
	</g>
	<g>
		<defs>
			<filter id="Adobe_OpacityMaskFilter" filterUnits="userSpaceOnUse" x="116.4" y="15.4" width="52.7" height="23.4">
				
					<feColorMatrix  type="matrix" values="-1 0 0 0 1  0 -1 0 0 1  0 0 -1 0 1  0 0 0 1 0" color-interpolation-filters="sRGB" result="source"/>
				<feFlood  style="flood-color:white;flood-opacity:1" result="back"/>
				<feBlend  in="source" in2="back" mode="normal"/>
			</filter>
		</defs>
		<mask maskUnits="userSpaceOnUse" x="116.4" y="15.4" width="52.7" height="23.4" id="SVGID_25_">
			<g class="st26">
			</g>
		</mask>
		<g class="st27">
			<path class="st24" d="M120.3,37.3c0,0-0.8,0.1-0.9-1.3c-0.1-1.4-0.7-6.6-0.7-6.6s-2.5-0.8-2.3-2.9c0.1-1.3,1.1-1.8,1.9-2.1
				c0.6-0.2,1.2-0.2,1.8,0.1c1,0.4,2.6,1.3,2.7,3c0.1,2.6,0,9.8,0,9.8L120.3,37.3z"/>
			<g>
				<ellipse class="st24" cx="121.5" cy="38.3" rx="1.5" ry="0.5"/>
			</g>
			<path class="st24" d="M165.2,37.3c0,0,0.8,0.1,0.9-1.3s0.7-6.6,0.7-6.6s2.5-0.8,2.3-2.9c-0.1-1.3-1.1-1.8-1.9-2.1
				c-0.6-0.2-1.2-0.2-1.8,0.1c-1,0.4-2.6,1.3-2.7,3c-0.1,2.6,0,9.8,0,9.8L165.2,37.3z"/>
			<g>
				<ellipse class="st24" cx="164" cy="38.3" rx="1.5" ry="0.5"/>
			</g>
			<rect x="123.4" y="27.3" class="st24" width="38.9" height="4"/>
			<rect x="123.4" y="31.7" class="st24" width="38.9" height="6"/>
			<path class="st24" d="M161.8,18.3c0,0-0.1-2.9-4.3-2.9h-14.2v10.4c0,0,0,0,0,0c0.1,0.4,0.8,0.5,0.9,0.6h15.9c0,0,1.4-0.1,1.6-2
				C162.1,22.5,161.8,18.3,161.8,18.3z"/>
		</g>
		<path class="st24" d="M142.3,25.8C142.3,25.8,142.3,25.8,142.3,25.8l0-10.4h-14.5c-3.8-0.2-4.3,2.9-4.3,2.9c0,0,0,0.3,0,0.7
			c2.3,0.4,5.2,2,5.7,7.4h12.1C141.6,26.3,142.2,26.2,142.3,25.8z"/>
		<g>
			<path class="st24" d="M120.5,19.6c0,0,7.5-2,8.2,7C128.8,26.6,119.8,27.6,120.5,19.6z"/>
		</g>
		<g>
			<g>
				<path class="st28" d="M122.3,19.4c2.3,0,6,1,6.5,7.2c0,0-0.4,0-0.9,0c-2.3,0-7.9-0.6-7.3-7.1C120.5,19.6,121.2,19.4,122.3,19.4
					 M122.3,19.1L122.3,19.1c-1,0-1.8,0.2-1.8,0.2l-0.2,0.1l0,0.2c-0.2,2.2,0.3,3.9,1.4,5.2c1.8,1.9,4.6,2.2,6.2,2.2
					c0.6,0,0.9,0,0.9,0l0.3,0l0-0.3C128.5,20.1,124.6,19.1,122.3,19.1L122.3,19.1z"/>
			</g>
		</g>
	</g>
	<g>
		<circle class="st28" cx="119.3" cy="26.8" r="0.8"/>
	</g>
	<g>
		<circle class="st28" cx="166.3" cy="26.8" r="0.8"/>
	</g>
</g>
</svg>
