<?xml version="1.0" encoding="utf-8"?>
<!-- Generator: Adobe Illustrator 19.0.1, SVG Export Plug-In . SVG Version: 6.00 Build 0)  -->
<svg version="1.1" id="Слой_1" xmlns="http://www.w3.org/2000/svg" xmlns:xlink="http://www.w3.org/1999/xlink" x="0px" y="0px"
	 viewBox="126 -72 264 156" style="enable-background:new 126 -72 264 156;" xml:space="preserve">
<style type="text/css">
	.st0{fill:url(#SVGID_1_);}
	.st1{fill:url(#SVGID_2_);}
	.st2{fill:url(#SVGID_3_);}
	.st3{fill:url(#SVGID_4_);}
	.st4{fill:url(#SVGID_5_);}
	.st5{fill:url(#SVGID_6_);}
	.st6{fill:url(#SVGID_7_);}
	.st7{fill:url(#SVGID_8_);}
	.st8{fill:url(#SVGID_9_);}
	.st9{opacity:0.15;fill:url(#SVGID_10_);enable-background:new    ;}
	.st10{opacity:0.2;fill:url(#SVGID_11_);enable-background:new    ;}
	.st11{opacity:0.33;fill:url(#SVGID_12_);enable-background:new    ;}
	.st12{opacity:0.15;fill:url(#SVGID_13_);enable-background:new    ;}
	.st13{opacity:0.2;fill:url(#SVGID_14_);enable-background:new    ;}
	.st14{opacity:0.33;fill:url(#SVGID_15_);enable-background:new    ;}
	.st15{opacity:0.33;fill:url(#SVGID_16_);enable-background:new    ;}
	.st16{opacity:0.33;fill:url(#SVGID_17_);enable-background:new    ;}
	.st17{opacity:0.33;fill:url(#SVGID_18_);enable-background:new    ;}
	.st18{opacity:0.33;fill:url(#SVGID_19_);enable-background:new    ;}
	.st19{opacity:0.33;fill:url(#SVGID_20_);enable-background:new    ;}
	.st20{opacity:0.33;fill:url(#SVGID_21_);enable-background:new    ;}
	.st21{opacity:0.33;fill:url(#SVGID_22_);enable-background:new    ;}
	.st22{opacity:0.33;fill:url(#SVGID_23_);enable-background:new    ;}
	.st23{opacity:0.33;fill:url(#SVGID_24_);enable-background:new    ;}
	.st24{fill:#FFFFFF;}
	.st25{fill:none;stroke:#FFFFFF;stroke-width:1.3862;stroke-miterlimit:10;}
	.st26{fill:#FEA63B;}
</style>
<g>
	<g>
		<linearGradient id="SVGID_1_" gradientUnits="userSpaceOnUse" x1="331.3266" y1="-13.7352" x2="331.3266" y2="79.6884">
			<stop  offset="0" style="stop-color:#96D71F"/>
			<stop  offset="1" style="stop-color:#89C50D"/>
		</linearGradient>
		<path class="st0" d="M331.3,9.3c6.9,0,12.4-5.6,12.4-12.4c0-6.9-5.6-12.4-12.4-12.4c-6.9,0-12.4,5.6-12.4,12.4
			S324.4,9.3,331.3,9.3"/>
		<linearGradient id="SVGID_2_" gradientUnits="userSpaceOnUse" x1="331.2271" y1="-13.7352" x2="331.2271" y2="79.6884">
			<stop  offset="0" style="stop-color:#96D71F"/>
			<stop  offset="1" style="stop-color:#89C50D"/>
		</linearGradient>
		<path class="st1" d="M357.2,61c0,0-10.4,2.3-25.8,2.3c-15.3,0-26-2.3-26-2.3c-8.1-1.8-14.8,1.3-14.8,8.3s6.4,11,15.1,12.7
			c0,0,13.8,2,24.8,2c17.4,0,26.2-2,26.2-2c8-1.8,15.1-5.7,15.1-12.7C371.9,62.4,365.3,59.4,357.2,61"/>
		<linearGradient id="SVGID_3_" gradientUnits="userSpaceOnUse" x1="331.3197" y1="-13.7352" x2="331.3197" y2="79.6884">
			<stop  offset="0" style="stop-color:#96D71F"/>
			<stop  offset="1" style="stop-color:#89C50D"/>
		</linearGradient>
		<path class="st2" d="M372.6,47.9l-15.5-26.2c-3.8-7.2-15.5-9.5-21.1-10c0,0,0,0-0.1,0c-3.1-0.3-6.2-0.3-9.3,0c0,0,0,0-0.1,0
			c-5.5,0.6-17.3,2.8-21.1,10L290,47.9c-2.3,3-2.2,7,0.3,8.8c2.4,1.9,6.3,0.9,8.6-2l9.3-16c0,0,0-0.1,0.1-0.1l0.8-1.1
			c0.9-1,2.4-2.1,4.3-1.3c0.9,0.4,1.7,1.3,2.1,3.3l1.9,15c0.5,3.7,4,6.8,7.8,6.8h6.2h6.2c3.8,0,7.3-3.1,7.8-6.8l1.9-15
			c0.4-2.1,1.3-3,2.1-3.3c1.8-0.8,3.4,0.3,4.3,1.3l0.8,1.1c0.1,0.1,0.1,0.1,0.1,0.1l9.3,16c2.3,3,6.2,3.9,8.6,2
			C374.7,54.8,374.9,50.9,372.6,47.9"/>
	</g>
	<g>
		
			<linearGradient id="SVGID_4_" gradientUnits="userSpaceOnUse" x1="250.0266" y1="-748.3795" x2="250.0266" y2="-844.1833" gradientTransform="matrix(1 0 0 1 0 829.67)">
			<stop  offset="0" style="stop-color:#FD8701"/>
			<stop  offset="1" style="stop-color:#FFA12A"/>
		</linearGradient>
		<path class="st3" d="M250,9.3c6.9,0,12.4-5.6,12.4-12.4c0-6.9-5.6-12.4-12.4-12.4c-6.9,0-12.4,5.6-12.4,12.4S243.1,9.3,250,9.3"/>
		
			<linearGradient id="SVGID_5_" gradientUnits="userSpaceOnUse" x1="249.9271" y1="-748.3795" x2="249.9271" y2="-844.1833" gradientTransform="matrix(1 0 0 1 0 829.67)">
			<stop  offset="0" style="stop-color:#FD8701"/>
			<stop  offset="1" style="stop-color:#FFA12A"/>
		</linearGradient>
		<path class="st4" d="M275.9,61c0,0-10.4,2.3-25.8,2.3c-15.3,0-26-2.3-26-2.3c-8.1-1.8-14.8,1.3-14.8,8.3s6.4,11,15.1,12.7
			c0,0,13.8,2,24.8,2c17.4,0,26.2-2,26.2-2c8-1.8,15.1-5.7,15.1-12.7C290.6,62.4,284,59.4,275.9,61"/>
		
			<linearGradient id="SVGID_6_" gradientUnits="userSpaceOnUse" x1="249.9641" y1="-748.3795" x2="249.9641" y2="-844.1833" gradientTransform="matrix(1 0 0 1 0 829.67)">
			<stop  offset="0" style="stop-color:#FD8701"/>
			<stop  offset="1" style="stop-color:#FFA12A"/>
		</linearGradient>
		<path class="st5" d="M291.3,47.9l-15.5-26.2c-3.8-7.2-15.5-9.5-21.1-10c0,0,0,0-0.1,0c-3.1-0.3-6.2-0.3-9.3,0c0,0,0,0-0.1,0
			c-5.5,0.6-17.3,2.8-21.1,10l-15.5,26.2c-2.3,3-2.2,7,0.3,8.8c2.4,1.9,6.3,0.9,8.6-2l9.3-16c0,0,0-0.1,0.1-0.1l0.8-1.1
			c0.9-1,2.4-2.1,4.3-1.3c0.9,0.4,1.7,1.3,2.1,3.3l1.9,15c0.5,3.7,4,6.8,7.8,6.8h6.2h6.2c3.8,0,7.3-3.1,7.8-6.8l1.9-15
			c0.4-2.1,1.3-3,2.1-3.3c1.8-0.8,3.4,0.3,4.3,1.3l0.8,1.1c0.1,0.1,0.1,0.1,0.1,0.1l9.3,16c2.3,3,6.2,3.9,8.6,2
			C293.4,54.8,293.6,50.9,291.3,47.9"/>
	</g>
	<g>
		
			<linearGradient id="SVGID_7_" gradientUnits="userSpaceOnUse" x1="168.9266" y1="-859.206" x2="168.9266" y2="-744.2796" gradientTransform="matrix(1 0 0 1 0 829.67)">
			<stop  offset="7.450981e-002" style="stop-color:#F9D718"/>
			<stop  offset="1" style="stop-color:#E8C400"/>
		</linearGradient>
		<path class="st6" d="M168.9,9.3c6.9,0,12.4-5.6,12.4-12.4c0-6.9-5.6-12.4-12.4-12.4c-6.9,0-12.4,5.6-12.4,12.4
			S162.1,9.3,168.9,9.3"/>
		
			<linearGradient id="SVGID_8_" gradientUnits="userSpaceOnUse" x1="168.8271" y1="-859.206" x2="168.8271" y2="-744.2796" gradientTransform="matrix(1 0 0 1 0 829.67)">
			<stop  offset="7.450981e-002" style="stop-color:#F9D718"/>
			<stop  offset="1" style="stop-color:#E8C400"/>
		</linearGradient>
		<path class="st7" d="M194.8,61c0,0-10.4,2.3-25.8,2.3c-15.3,0-26-2.3-26-2.3c-8.1-1.8-14.8,1.3-14.8,8.3s6.4,11,15.1,12.7
			c0,0,13.8,2,24.8,2c17.4,0,26.2-2,26.2-2c8-1.8,15.1-5.7,15.1-12.7C209.5,62.4,202.9,59.4,194.8,61"/>
		
			<linearGradient id="SVGID_9_" gradientUnits="userSpaceOnUse" x1="168.9379" y1="-859.206" x2="168.9379" y2="-744.2796" gradientTransform="matrix(1 0 0 1 0 829.67)">
			<stop  offset="7.450981e-002" style="stop-color:#F9D718"/>
			<stop  offset="1" style="stop-color:#E8C400"/>
		</linearGradient>
		<path class="st8" d="M210.2,47.9l-15.5-26.3c-3.8-7.2-15.5-9.5-21.1-10c0,0,0,0-0.1,0c-3.1-0.3-6.2-0.3-9.3,0c0,0,0,0-0.1,0
			c-5.5,0.6-17.3,2.8-21.1,10l-15.4,26.3c-2.3,3-2.2,7,0.3,8.8c2.4,1.9,6.3,0.9,8.6-2l9.3-16c0,0,0-0.1,0.1-0.1l0.8-1.1
			c0.9-1,2.4-2.1,4.3-1.3c0.9,0.4,1.7,1.3,2.1,3.3l1.9,15c0.5,3.7,4,6.8,7.8,6.8h6.2h6.2c3.8,0,7.3-3.1,7.8-6.8l1.9-15
			c0.4-2.1,1.3-3,2.1-3.3c1.8-0.8,3.4,0.3,4.3,1.3l0.8,1.1c0.1,0.1,0.1,0.1,0.1,0.1l9.3,16c2.3,3,6.2,3.9,8.6,2
			C212.4,54.8,212.5,50.9,210.2,47.9"/>
	</g>
	
		<linearGradient id="SVGID_10_" gradientUnits="userSpaceOnUse" x1="355.9766" y1="-825.3958" x2="355.9766" y2="-907.0375" gradientTransform="matrix(1 0 0 1 0 829.67)">
		<stop  offset="0" style="stop-color:#89C50D"/>
		<stop  offset="1" style="stop-color:#96D71F"/>
	</linearGradient>
	<path class="st9" d="M350.8-4.1l-0.1-1l0.5-0.1c6-1.1,8.1-7.7,8.8-12.8h-11.1c-14.9,0-27-12.1-27-27s12.1-27,27-27H363
		c14.9,0,27,12.1,27,27c0,13.1-9.7,24.5-22.5,26.6c-5.3,14.4-14.9,14.3-16,14.3H350.8z"/>
	
		<linearGradient id="SVGID_11_" gradientUnits="userSpaceOnUse" x1="355.9766" y1="-825.7788" x2="355.9766" y2="-906.4046" gradientTransform="matrix(1 0 0 1 0 829.67)">
		<stop  offset="0" style="stop-color:#89C50D"/>
		<stop  offset="1" style="stop-color:#96D71F"/>
	</linearGradient>
	<path class="st10" d="M351.3-4.4v-0.5c6.6-1.2,8.7-8.1,9.4-13.6h-11.8c-14.6,0-26.4-11.8-26.4-26.4s11.8-26.4,26.4-26.4H363
		c14.6,0,26.4,11.8,26.4,26.4c0,13-9.6,24.1-22.4,26.1c-5.1,14.3-14.6,14.5-15.6,14.5L351.3-4.4z"/>
	
		<linearGradient id="SVGID_12_" gradientUnits="userSpaceOnUse" x1="355.9769" y1="-826.1762" x2="355.9769" y2="-905.7702" gradientTransform="matrix(1 0 0 1 0 829.67)">
		<stop  offset="0" style="stop-color:#89C50D"/>
		<stop  offset="1" style="stop-color:#96D71F"/>
	</linearGradient>
	<path class="st11" d="M363-70.9h-14.1c-14.3,0-25.8,11.6-25.8,25.8l0,0c0,14.3,11.6,25.8,25.8,25.8h12.4c-0.5,5.4-2.6,13.1-10,14.4
		c0,0,10,0.5,15.3-14.7c12.6-1.8,22.2-12.5,22.2-25.6l0,0C388.9-59.3,377.3-70.9,363-70.9z"/>
	
		<linearGradient id="SVGID_13_" gradientUnits="userSpaceOnUse" x1="190.2266" y1="-899.6377" x2="190.2266" y2="-848.1845" gradientTransform="matrix(1 0 0 1 0 829.67)">
		<stop  offset="7.450981e-002" style="stop-color:#F9D718"/>
		<stop  offset="1" style="stop-color:#E8C400"/>
	</linearGradient>
	<path class="st12" d="M182.9-4.1L182.8-5l0.8-0.2c6.1-1.1,8.1-7.7,8.8-12.9c-0.8,0.1-1.5,0.1-2.2,0.1c-14.9,0-27-12.1-27-27
		s12.1-27,27-27c14.9,0,27,12.1,27,27c0,11-6.6,20.8-16.7,24.9c-5.1,16-15.3,15.9-16.5,15.9L182.9-4.1z"/>
	
		<linearGradient id="SVGID_14_" gradientUnits="userSpaceOnUse" x1="190.2266" y1="-899.6447" x2="190.2266" y2="-848.4468" gradientTransform="matrix(1 0 0 1 0 829.67)">
		<stop  offset="7.450981e-002" style="stop-color:#F9D718"/>
		<stop  offset="1" style="stop-color:#E8C400"/>
	</linearGradient>
	<path class="st13" d="M183.5-4.5V-5h0.2c6.6-1.2,8.8-8.2,9.4-13.8c-1,0.1-2,0.2-2.9,0.2c-14.6,0-26.4-11.8-26.4-26.4
		s11.9-26.4,26.4-26.4s26.4,11.8,26.4,26.4c0,10.9-6.5,20.5-16.6,24.5c-5,15.9-15,16-16.1,16L183.5-4.5L183.5-4.5z"/>
	
		<linearGradient id="SVGID_15_" gradientUnits="userSpaceOnUse" x1="190.2766" y1="-899.6377" x2="190.2766" y2="-848.1845" gradientTransform="matrix(1 0 0 1 0 829.67)">
		<stop  offset="7.450981e-002" style="stop-color:#F9D718"/>
		<stop  offset="1" style="stop-color:#E8C400"/>
	</linearGradient>
	<path class="st14" d="M216.1-45c0-14.3-11.6-25.8-25.8-25.8S164.4-59.3,164.4-45s11.6,25.8,25.8,25.8c1.2,0,2.4-0.1,3.5-0.2
		c-0.5,5.4-2.5,13.3-10,14.7c0,0,10.7,0.5,15.8-16.2C209.2-24.6,216.1-34.1,216.1-45z"/>
	
		<linearGradient id="SVGID_16_" gradientUnits="userSpaceOnUse" x1="190.2266" y1="-899.6377" x2="190.2266" y2="-848.1845" gradientTransform="matrix(1 0 0 1 0 829.67)">
		<stop  offset="7.450981e-002" style="stop-color:#F9D718"/>
		<stop  offset="1" style="stop-color:#E8C400"/>
	</linearGradient>
	<path class="st15" d="M189.4-7c3.4-3.4,4.5-8.8,4.9-12.3l0.1-0.7h-0.7c-1.2,0.2-2.3,0.2-3.5,0.2c-13.9,0-25.3-11.3-25.3-25.3
		s11.4-25.2,25.3-25.2c13.9,0,25.3,11.3,25.3,25.3c0,10.5-6.3,19.8-16.1,23.6l-0.3,0.1L199-21C196.5-12.9,192.6-8.9,189.4-7z"/>
	
		<linearGradient id="SVGID_17_" gradientUnits="userSpaceOnUse" x1="190.2265" y1="-899.6377" x2="190.2265" y2="-837.6939" gradientTransform="matrix(1 0 0 1 0 829.67)">
		<stop  offset="7.450981e-002" style="stop-color:#F9D718"/>
		<stop  offset="1" style="stop-color:#E8C400"/>
	</linearGradient>
	<path class="st16" d="M193.4-11.6c0.9-2.2,1.4-4.7,1.7-7.6l0.2-1.8l-1.8,0.2c-1.1,0.2-2.3,0.2-3.3,0.2c-13.5,0-24.4-11-24.4-24.4
		s11-24.4,24.4-24.4c13.4,0,24.4,11,24.4,24.4c0,10.2-6.1,19.1-15.6,22.8l-0.6,0.3l-0.2,0.7C196.9-17,195.2-13.9,193.4-11.6z"/>
	
		<linearGradient id="SVGID_18_" gradientUnits="userSpaceOnUse" x1="268.1765" y1="-903.3615" x2="268.1765" y2="-825.0162" gradientTransform="matrix(1 0 0 1 0 829.67)">
		<stop  offset="0" style="stop-color:#FFA12A"/>
		<stop  offset="1" style="stop-color:#FD8701"/>
	</linearGradient>
	<path class="st17" d="M268.8-4.1l-0.1-1l0.7-0.1c6-1.1,8.1-7.7,8.8-12.8h-23.1c-14.9,0-27-12.1-27-27s12.1-27,27-27h26.1
		c14.9,0,27,12.1,27,27c0,13.1-9.7,24.5-22.5,26.6c-5.3,14.4-14.9,14.3-16,14.3H268.8z"/>
	
		<linearGradient id="SVGID_19_" gradientUnits="userSpaceOnUse" x1="268.2766" y1="-902.7748" x2="268.2766" y2="-825.3797" gradientTransform="matrix(1 0 0 1 0 829.67)">
		<stop  offset="0" style="stop-color:#FFA12A"/>
		<stop  offset="1" style="stop-color:#FD8701"/>
	</linearGradient>
	<path class="st18" d="M269.3-4.4v-0.5h0.2c6.6-1.2,8.8-8.2,9.4-13.6h-23.7c-14.6,0-26.4-11.8-26.4-26.4s11.8-26.4,26.4-26.4h26.1
		c14.6,0,26.4,11.8,26.4,26.4c0,12.9-9.6,24.1-22.4,26.1c-5.1,14.3-14.6,14.5-15.6,14.5L269.3-4.4z"/>
	
		<linearGradient id="SVGID_20_" gradientUnits="userSpaceOnUse" x1="268.2269" y1="-902.1871" x2="268.2269" y2="-825.8086" gradientTransform="matrix(1 0 0 1 0 829.67)">
		<stop  offset="0" style="stop-color:#FFA12A"/>
		<stop  offset="1" style="stop-color:#FD8701"/>
	</linearGradient>
	<path class="st19" d="M281.3-70.9h-26.1c-14.3,0-25.8,11.6-25.8,25.8l0,0c0,14.3,11.6,25.8,25.8,25.8h24.3
		c-0.5,5.4-2.6,13.1-10,14.4c0,0,10,0.5,15.3-14.7c12.6-1.8,22.2-12.5,22.2-25.6l0,0C307.1-59.3,295.6-70.9,281.3-70.9z"/>
	
		<linearGradient id="SVGID_21_" gradientUnits="userSpaceOnUse" x1="268.2766" y1="-901.549" x2="268.2766" y2="-828.4701" gradientTransform="matrix(1 0 0 1 0 829.67)">
		<stop  offset="0" style="stop-color:#FFA12A"/>
		<stop  offset="1" style="stop-color:#FD8701"/>
	</linearGradient>
	<path class="st20" d="M275.2-7c2.6-2.6,4.3-6.7,4.9-12.1l0.1-0.6h-25c-13.9,0-25.3-11.3-25.3-25.3s11.3-25.3,25.3-25.3h26.1
		c13.9,0,25.3,11.3,25.3,25.3c0,12.5-9.3,23.3-21.7,25h-0.3l-0.1,0.3C281.9-12.4,278.3-8.8,275.2-7z"/>
	
		<linearGradient id="SVGID_22_" gradientUnits="userSpaceOnUse" x1="268.3766" y1="-900.5606" x2="268.3766" y2="-833.8764" gradientTransform="matrix(1 0 0 1 0 829.67)">
		<stop  offset="0" style="stop-color:#FFA12A"/>
		<stop  offset="1" style="stop-color:#FD8701"/>
	</linearGradient>
	<path class="st21" d="M279.3-11.6c0.8-2.1,1.4-4.5,1.7-7.3l0.2-1.6h-25.9c-13.5,0-24.4-11-24.4-24.4s11-24.4,24.4-24.4h26.1
		c13.5,0,24.4,11,24.4,24.4c0,12.1-9,22.5-21,24.2l-0.9,0.1l-0.3,0.8C282.3-16.3,280.8-13.6,279.3-11.6z"/>
	
		<linearGradient id="SVGID_23_" gradientUnits="userSpaceOnUse" x1="356.0266" y1="-828.8218" x2="356.0266" y2="-904.9773" gradientTransform="matrix(1 0 0 1 0 829.67)">
		<stop  offset="0" style="stop-color:#89C50D"/>
		<stop  offset="1" style="stop-color:#96D71F"/>
	</linearGradient>
	<path class="st22" d="M357-7c2.6-2.6,4.3-6.7,4.9-12.1l0.1-0.6h-13c-13.9,0-25.3-11.3-25.3-25.3s11.3-25.3,25.2-25.3H363
		c14,0,25.3,11.3,25.3,25.3c0,12.5-9.3,23.3-21.7,25h-0.3l-0.1,0.3C363.6-12.4,360-8.8,357-7z"/>
	
		<linearGradient id="SVGID_24_" gradientUnits="userSpaceOnUse" x1="355.9766" y1="-834.1973" x2="355.9766" y2="-903.6889" gradientTransform="matrix(1 0 0 1 0 829.67)">
		<stop  offset="0" style="stop-color:#89C50D"/>
		<stop  offset="1" style="stop-color:#96D71F"/>
	</linearGradient>
	<path class="st23" d="M361-11.6c0.8-2.1,1.4-4.5,1.7-7.3l0.2-1.6h-14c-13.5,0-24.4-11-24.4-24.4s11-24.4,24.4-24.4H363
		c13.5,0,24.4,11,24.4,24.4c0,12.1-9,22.5-21,24.2l-0.9,0.1l-0.3,0.8C364.1-16.3,362.6-13.6,361-11.6z"/>
	<g>
		<path class="st24" d="M189.4-31L189.4-31c-6.2,0-11.2-5-11.2-11.2V-45h22.4v2.8C200.7-36,195.6-31,189.4-31z"/>
		<path class="st25" d="M198.4-43.6c0,0,6.4-0.8,6.2,3.4c-0.2,3.4-6.3,2.6-6.3,2.6"/>
	</g>
	<path class="st24" d="M188.1-47.3c-0.3-1.5-0.3-3.1,0.3-4.6c0.5-1.2,1-2.4,1.7-3.5c1.8-2.9,1.9-5.7,0.2-8.8
		c0.2,0.1,0.3,0.1,0.4,0.2c3.2,2.3,3.7,5.9,1.4,9.1c-1.2,1.6-2.3,3.2-3,5C188.7-48.9,188.4-48.1,188.1-47.3z"/>
	<path class="st24" d="M187-53.4c-0.2-0.8-0.1-1.6,0.2-2.4c0.2-0.6,0.5-1.2,0.9-1.8c0.9-1.5,1-3,0.1-4.5c0.1,0,0.1,0.1,0.2,0.1
		c1.6,1.2,1.9,3,0.7,4.7c-0.6,0.8-1.2,1.6-1.6,2.6C187.2-54.3,187.1-53.8,187-53.4z"/>
	<g>
		<path class="st24" d="M365.2-41.8c-0.3-0.1-0.5-0.1-0.9-0.2c-0.6,2-1.1,4-1.7,6c-0.4,1.6-0.9,3.2-1.3,4.8
			c-0.4,1.3-1.2,1.8-2.2,1.5s-1.4-1.2-1.1-2.4c1-3.7,2.2-7.5,3.1-11.2c0.6-2.6,0.9-5.4,1.3-8.1c0-0.2-0.2-0.5-0.4-0.6
			c-2.8-1-4.7-2.9-5.8-5.9c-1.1,3.1-3.2,5-6.3,6c0.2,1.6,0.5,3.1,0.7,4.6c0.5,4.8,2.4,9.3,3.5,13.9c0.1,0.5,0.3,1,0.4,1.4
			c0.3,1.1-0.2,2-1.2,2.2c-1,0.3-1.8-0.3-2.1-1.3c-0.9-3.3-1.9-6.7-2.8-10c-0.1-0.3-0.2-0.6-0.3-0.9c-0.3,0.1-0.6,0.1-0.9,0.2
			c0,1.3,0,2.5,0,3.7c0,2.2,0,4.5,0,6.7c0,1.1-0.7,1.8-1.7,1.8s-1.7-0.7-1.7-1.7c0-3.4,0.1-6.8-0.1-10.2c-0.1-2.6-0.6-5.2-1-7.8
			c-0.1,0-0.2,0-0.3-0.1c-0.3,0.9-0.7,1.7-0.7,2.6c-0.1,1.9,0.1,3.7,0.2,5.6c0.1,0.9-0.1,1.4-0.8,1.5c-0.6,0.1-1.1-0.3-1.3-1.1
			c-0.5-2.7-0.7-5.4,0.2-8c0.3-0.8,0.7-1.6,1.2-2.4c0.7-1.1,1.6-1.7,3-1.9c1.5-0.2,3-0.4,4.5-0.7c3-0.7,5-2.5,5.7-5.6
			c0.3-1.1,0.5-1.3,1.7-1.1c0.1,0,0.2,0,0.2,0c1.5-0.1,1.5-0.1,1.8,1.3c0.9,3.4,3.3,4.9,6.5,5.5c1.3,0.2,2.6,0.4,3.8,0.6
			c1,0.1,1.7,0.6,2.3,1.2c1.6,1.8,2.2,4,2.2,6.4c0,1.6-0.2,3.1-0.4,4.7c-0.1,0.7-0.7,1.1-1.3,1s-0.9-0.7-0.8-1.4
			c0.4-2.1,0.6-4.3,0.1-6.4c-0.2-0.6-0.4-1.2-0.8-1.9c0,0.2-0.1,0.4-0.1,0.6c-1.2,5.7-1,11.4-1,17.2c0,1.2-0.5,1.8-1.5,1.9
			c-1.1,0.1-1.9-0.6-1.9-1.9c0-3,0-6.1,0-9.1C365.2-41,365.2-41.4,365.2-41.8z"/>
		<path class="st24" d="M342.8-57.1c0-1.7,1.4-3,3.1-3c1.7,0,3.1,1.4,3.1,3.1s-1.4,3-3.1,3C344.2-54,342.8-55.5,342.8-57.1z"/>
		<path class="st24" d="M366.4-60.1c1.7,0,3.1,1.4,3.1,3.1s-1.4,3.1-3,3.1c-1.7,0-3.1-1.3-3.1-3C363.3-58.8,364.7-60.1,366.4-60.1z"
			/>
	</g>
	<path class="st24" d="M246.3-34.6c0,0-0.8,0.1-0.9-1.3s-0.7-6.6-0.7-6.6s-2.5-0.8-2.3-2.9c0.1-1.3,1.1-1.8,1.9-2.1
		c0.6-0.2,1.2-0.2,1.8,0.1c1,0.4,2.6,1.3,2.7,3c0.1,2.6,0,9.8,0,9.8H246.3z"/>
	<g>
		<ellipse class="st24" cx="247.5" cy="-33.6" rx="1.5" ry="0.5"/>
	</g>
	<path class="st24" d="M291.2-34.6c0,0,0.8,0.1,0.9-1.3s0.7-6.6,0.7-6.6s2.5-0.8,2.3-2.9c-0.1-1.3-1.1-1.8-1.9-2.1
		c-0.6-0.2-1.2-0.2-1.8,0.1c-1,0.4-2.6,1.3-2.7,3c-0.1,2.6,0,9.8,0,9.8H291.2z"/>
	<g>
		<ellipse class="st24" cx="290" cy="-33.6" rx="1.5" ry="0.5"/>
	</g>
	<rect x="249.4" y="-44.6" class="st24" width="38.9" height="4"/>
	<rect x="249.4" y="-40.3" class="st24" width="38.9" height="6"/>
	<path class="st24" d="M287.8-53.6c0,0-0.1-2.9-4.3-2.9h-14.2v10.4l0,0c0.1,0.4,0.8,0.5,0.9,0.6h15.9c0,0,1.4-0.1,1.6-2
		C288.1-49.5,287.8-53.6,287.8-53.6z"/>
	<path class="st24" d="M268.3-46.1L268.3-46.1v-10.4h-14.5c-3.8-0.2-4.3,2.9-4.3,2.9s0,0.3,0,0.7c2.3,0.4,5.2,2,5.7,7.4h12.1
		C267.6-45.6,268.2-45.8,268.3-46.1z"/>
	<g>
		<path class="st24" d="M246.5-52.4c0,0,7.5-2,8.2,7C254.8-45.4,245.8-44.4,246.5-52.4z"/>
	</g>
	<g>
		<g>
			<path class="st26" d="M248.3-52.6c2.3,0,6,1,6.5,7.2c0,0-0.4,0-0.9,0c-2.3,0-7.9-0.6-7.3-7.1C246.5-52.4,247.2-52.6,248.3-52.6
				 M248.3-52.9L248.3-52.9c-1,0-1.8,0.2-1.8,0.2l-0.2,0.1v0.2c-0.2,2.2,0.3,3.9,1.4,5.2c1.8,1.9,4.6,2.2,6.2,2.2c0.6,0,0.9,0,0.9,0
				h0.3v-0.3C254.5-51.9,250.6-52.9,248.3-52.9L248.3-52.9z"/>
		</g>
	</g>
	<g>
		<circle class="st26" cx="245.3" cy="-45.1" r="0.8"/>
	</g>
	<g>
		<circle class="st26" cx="292.3" cy="-45.1" r="0.8"/>
	</g>
</g>
</svg>
